TTTravels-Regular.ufo
<glyph name="exclam" format="2">
  <advance width="544"/>
  <unicode hex="0021"/>
  <outline>
    <contour>
      <point x="319" y="385" type="line"/>
      <point x="225" y="385" type="line"/>
      <point x="205" y="1106" type="line"/>
      <point x="205" y="1434" type="line"/>
      <point x="340" y="1434" type="line"/>
      <point x="340" y="1106" type="line"/>
    </contour>
    <contour>
      <point x="209" y="3" type="qcurve" smooth="yes"/>
      <point x="184" y="25"/>
      <point x="184" y="103"/>
      <point x="209" y="125" type="qcurve" smooth="yes"/>
      <point x="232" y="147"/>
      <point x="272" y="147" type="qcurve" smooth="yes"/>
      <point x="311" y="147"/>
      <point x="336" y="125" type="qcurve" smooth="yes"/>
      <point x="360" y="103"/>
      <point x="360" y="64" type="qcurve" smooth="yes"/>
      <point x="360" y="26"/>
      <point x="312" y="-20"/>
      <point x="232" y="-20"/>
    </contour>
  </outline>
</glyph>
<glyph name="quotedbl" format="2">
  <advance width="712"/>
  <unicode hex="0022"/>
  <outline>
    <contour>
      <point x="252" y="840" type="line"/>
      <point x="162" y="840" type="line"/>
      <point x="143" y="1270" type="line"/>
      <point x="143" y="1434" type="line"/>
      <point x="270" y="1434" type="line"/>
      <point x="270" y="1270" type="line"/>
    </contour>
    <contour>
      <point x="553" y="840" type="line"/>
      <point x="461" y="840" type="line"/>
      <point x="442" y="1270" type="line"/>
      <point x="442" y="1434" type="line"/>
      <point x="569" y="1434" type="line"/>
      <point x="569" y="1270" type="line"/>
    </contour>
  </outline>
</glyph>
<glyph name="numbersign" format="2">
  <advance width="1454"/>
  <unicode hex="0023"/>
  <outline>
    <contour>
      <point x="874" y="0" type="line"/>
      <point x="752" y="0" type="line"/>
      <point x="842" y="371" type="line"/>
      <point x="442" y="371" type="line"/>
      <point x="352" y="0" type="line"/>
      <point x="229" y="0" type="line"/>
      <point x="319" y="371" type="line"/>
      <point x="82" y="371" type="line"/>
      <point x="82" y="485" type="line"/>
      <point x="346" y="485" type="line"/>
      <point x="459" y="948" type="line"/>
      <point x="221" y="948" type="line"/>
      <point x="221" y="1063" type="line"/>
      <point x="487" y="1063" type="line"/>
      <point x="578" y="1434" type="line"/>
      <point x="700" y="1434" type="line"/>
      <point x="610" y="1063" type="line"/>
      <point x="1010" y="1063" type="line"/>
      <point x="1100" y="1434" type="line"/>
      <point x="1223" y="1434" type="line"/>
      <point x="1133" y="1063" type="line"/>
      <point x="1372" y="1063" type="line"/>
      <point x="1372" y="948" type="line"/>
      <point x="1104" y="948" type="line"/>
      <point x="991" y="485" type="line"/>
      <point x="1237" y="485" type="line"/>
      <point x="1237" y="371" type="line"/>
      <point x="965" y="371" type="line"/>
    </contour>
    <contour>
      <point x="981" y="948" type="line"/>
      <point x="582" y="948" type="line"/>
      <point x="469" y="485" type="line"/>
      <point x="868" y="485" type="line"/>
    </contour>
  </outline>
</glyph>
<glyph name="dollar" format="2">
  <advance width="1390"/>
  <unicode hex="0024"/>
  <outline>
    <contour>
      <point x="760" y="-258" type="line"/>
      <point x="625" y="-258" type="line"/>
      <point x="625" y="-16" type="line"/>
      <point x="509" y="-11"/>
      <point x="350" y="70" type="qcurve" smooth="yes"/>
      <point x="264" y="114"/>
      <point x="210" y="201" type="qcurve" smooth="yes"/>
      <point x="154" y="290"/>
      <point x="154" y="408" type="qcurve" smooth="yes"/>
      <point x="154" y="489" type="line"/>
      <point x="289" y="489" type="line"/>
      <point x="289" y="408" type="line" smooth="yes"/>
      <point x="289" y="262"/>
      <point x="521" y="102"/>
      <point x="699" y="102" type="qcurve" smooth="yes"/>
      <point x="878" y="102"/>
      <point x="1102" y="254"/>
      <point x="1102" y="389" type="qcurve" smooth="yes"/>
      <point x="1102" y="541"/>
      <point x="921" y="602" type="qcurve" smooth="yes"/>
      <point x="860" y="622"/>
      <point x="594" y="679"/>
      <point x="546" y="692" type="qcurve" smooth="yes"/>
      <point x="450" y="717"/>
      <point x="286" y="793"/>
      <point x="237" y="872" type="qcurve" smooth="yes"/>
      <point x="186" y="950"/>
      <point x="186" y="1063" type="qcurve" smooth="yes"/>
      <point x="186" y="1172"/>
      <point x="240" y="1253" type="qcurve" smooth="yes"/>
      <point x="292" y="1332"/>
      <point x="371" y="1373" type="qcurve" smooth="yes"/>
      <point x="522" y="1450"/>
      <point x="625" y="1450" type="qcurve"/>
      <point x="625" y="1692" type="line"/>
      <point x="760" y="1692" type="line"/>
      <point x="760" y="1450" type="line"/>
      <point x="866" y="1445"/>
      <point x="1001" y="1369" type="qcurve" smooth="yes"/>
      <point x="1075" y="1327"/>
      <point x="1126" y="1241" type="qcurve" smooth="yes"/>
      <point x="1176" y="1155"/>
      <point x="1176" y="1038" type="qcurve" smooth="yes"/>
      <point x="1176" y="997" type="line"/>
      <point x="1040" y="997" type="line"/>
      <point x="1040" y="1038" type="line" smooth="yes"/>
      <point x="1040" y="1181"/>
      <point x="846" y="1331"/>
      <point x="680" y="1331" type="qcurve" smooth="yes"/>
      <point x="520" y="1331"/>
      <point x="421" y="1259" type="qcurve" smooth="yes"/>
      <point x="322" y="1186"/>
      <point x="322" y="1063" type="qcurve" smooth="yes"/>
      <point x="322" y="967"/>
      <point x="390" y="907" type="qcurve" smooth="yes"/>
      <point x="458" y="845"/>
      <point x="560" y="823" type="qcurve" smooth="yes"/>
      <point x="655" y="801"/>
      <point x="780" y="769" type="qcurve" smooth="yes"/>
      <point x="883" y="742"/>
      <point x="1000" y="707" type="qcurve" smooth="yes"/>
      <point x="1103" y="674"/>
      <point x="1170" y="593" type="qcurve" smooth="yes"/>
      <point x="1237" y="513"/>
      <point x="1237" y="389" type="qcurve" smooth="yes"/>
      <point x="1237" y="276"/>
      <point x="1180" y="190" type="qcurve" smooth="yes"/>
      <point x="1121" y="104"/>
      <point x="1038" y="64" type="qcurve" smooth="yes"/>
      <point x="872" y="-16"/>
      <point x="760" y="-16" type="qcurve"/>
    </contour>
  </outline>
</glyph>
<glyph name="percent" format="2">
  <advance width="1685"/>
  <unicode hex="0025"/>
  <outline>
    <contour>
      <point x="422" y="0" type="line"/>
      <point x="281" y="0" type="line"/>
      <point x="1264" y="1434" type="line"/>
      <point x="1405" y="1434" type="line"/>
    </contour>
    <contour>
      <point x="420" y="1454" type="qcurve" smooth="yes"/>
      <point x="563" y="1454"/>
      <point x="735" y="1276"/>
      <point x="735" y="1129" type="qcurve" smooth="yes"/>
      <point x="735" y="981"/>
      <point x="563" y="803"/>
      <point x="420" y="803" type="qcurve" smooth="yes"/>
      <point x="275" y="803"/>
      <point x="189" y="892" type="qcurve" smooth="yes"/>
      <point x="102" y="980"/>
      <point x="102" y="1129" type="qcurve" smooth="yes"/>
      <point x="102" y="1276"/>
      <point x="189" y="1365" type="qcurve" smooth="yes"/>
      <point x="275" y="1454"/>
    </contour>
    <contour>
      <point x="562" y="971" type="qcurve" smooth="yes"/>
      <point x="616" y="1032"/>
      <point x="616" y="1226"/>
      <point x="508" y="1348"/>
      <point x="420" y="1348" type="qcurve" smooth="yes"/>
      <point x="330" y="1348"/>
      <point x="276" y="1287" type="qcurve" smooth="yes"/>
      <point x="221" y="1226"/>
      <point x="221" y="1032"/>
      <point x="276" y="971" type="qcurve" smooth="yes"/>
      <point x="330" y="909"/>
      <point x="420" y="909" type="qcurve" smooth="yes"/>
      <point x="508" y="909"/>
    </contour>
    <contour>
      <point x="1266" y="-20" type="qcurve" smooth="yes"/>
      <point x="1123" y="-20"/>
      <point x="1037" y="69" type="qcurve" smooth="yes"/>
      <point x="950" y="158"/>
      <point x="950" y="306" type="qcurve" smooth="yes"/>
      <point x="950" y="453"/>
      <point x="1122" y="631"/>
      <point x="1266" y="631" type="qcurve" smooth="yes"/>
      <point x="1411" y="631"/>
      <point x="1583" y="453"/>
      <point x="1583" y="306" type="qcurve" smooth="yes"/>
      <point x="1583" y="158"/>
      <point x="1411" y="-20"/>
    </contour>
    <contour>
      <point x="1124" y="463" type="qcurve" smooth="yes"/>
      <point x="1069" y="402"/>
      <point x="1069" y="305" type="qcurve" smooth="yes"/>
      <point x="1069" y="209"/>
      <point x="1124" y="148" type="qcurve" smooth="yes"/>
      <point x="1178" y="86"/>
      <point x="1266" y="86" type="qcurve" smooth="yes"/>
      <point x="1356" y="86"/>
      <point x="1464" y="210"/>
      <point x="1464" y="305" type="qcurve" smooth="yes"/>
      <point x="1464" y="402"/>
      <point x="1356" y="524"/>
      <point x="1266" y="524" type="qcurve" smooth="yes"/>
      <point x="1178" y="524"/>
    </contour>
  </outline>
</glyph>
<glyph name="ampersand" format="2">
  <advance width="1402"/>
  <unicode hex="0026"/>
  <outline>
    <contour>
      <point x="653" y="-20" type="qcurve" smooth="yes"/>
      <point x="410" y="-20"/>
      <point x="277" y="119" type="qcurve" smooth="yes"/>
      <point x="143" y="259"/>
      <point x="143" y="467" type="qcurve" smooth="yes"/>
      <point x="143" y="580"/>
      <point x="180" y="667" type="qcurve" smooth="yes"/>
      <point x="218" y="756"/>
      <point x="270" y="804" type="qcurve" smooth="yes"/>
      <point x="320" y="850"/>
      <point x="424" y="914"/>
      <point x="463" y="926" type="qcurve" smooth="yes"/>
      <point x="500" y="934" type="line"/>
      <point x="500" y="936" type="line"/>
      <point x="207" y="1305" type="line"/>
      <point x="207" y="1434" type="line"/>
      <point x="1163" y="1434" type="line"/>
      <point x="1163" y="1311" type="line"/>
      <point x="383" y="1311" type="line"/>
      <point x="383" y="1307" type="line"/>
      <point x="1038" y="473" type="line"/>
      <point x="1038" y="948" type="line"/>
      <point x="1161" y="948" type="line"/>
      <point x="1161" y="475" type="line" smooth="yes"/>
      <point x="1161" y="392"/>
      <point x="1151" y="352" type="qcurve"/>
      <point x="1149" y="336" type="line"/>
      <point x="1362" y="68" type="line"/>
      <point x="1264" y="-20" type="line"/>
      <point x="1090" y="199" type="line"/>
      <point x="1085" y="199" type="line"/>
      <point x="1071" y="169"/>
      <point x="1028" y="122" type="qcurve" smooth="yes"/>
      <point x="994" y="85"/>
      <point x="948" y="56" type="qcurve" smooth="yes"/>
      <point x="900" y="25"/>
      <point x="824" y="4" type="qcurve" smooth="yes"/>
      <point x="744" y="-20"/>
    </contour>
    <contour>
      <point x="653" y="102" type="qcurve" smooth="yes"/>
      <point x="727" y="102"/>
      <point x="856" y="143"/>
      <point x="895" y="175" type="qcurve" smooth="yes"/>
      <point x="931" y="204"/>
      <point x="982" y="265"/>
      <point x="991" y="287" type="qcurve" smooth="yes"/>
      <point x="1001" y="309" type="line"/>
      <point x="586" y="831" type="line"/>
      <point x="574" y="830"/>
      <point x="553" y="825" type="qcurve" smooth="yes"/>
      <point x="529" y="820"/>
      <point x="479" y="797" type="qcurve" smooth="yes"/>
      <point x="424" y="770"/>
      <point x="385" y="737" type="qcurve" smooth="yes"/>
      <point x="344" y="702"/>
      <point x="312" y="631" type="qcurve" smooth="yes"/>
      <point x="279" y="559"/>
      <point x="279" y="467" type="qcurve" smooth="yes"/>
      <point x="279" y="310"/>
      <point x="378" y="206" type="qcurve" smooth="yes"/>
      <point x="477" y="102"/>
    </contour>
  </outline>
</glyph>
<glyph name="quotesingle" format="2">
  <advance width="421"/>
  <unicode hex="0027"/>
  <outline>
    <contour>
      <point x="260" y="840" type="line"/>
      <point x="170" y="840" type="line"/>
      <point x="152" y="1270" type="line"/>
      <point x="152" y="1434" type="line"/>
      <point x="279" y="1434" type="line"/>
      <point x="279" y="1270" type="line"/>
    </contour>
  </outline>
</glyph>
<glyph name="parenleft" format="2">
  <advance width="856"/>
  <unicode hex="0028"/>
  <outline>
    <contour>
      <point x="836" y="-393" type="qcurve"/>
      <point x="836" y="-512" type="line"/>
      <point x="542" y="-512"/>
      <point x="342" y="-209" type="qcurve" smooth="yes"/>
      <point x="143" y="93"/>
      <point x="143" y="574" type="qcurve" smooth="yes"/>
      <point x="143" y="1054"/>
      <point x="342" y="1356" type="qcurve" smooth="yes"/>
      <point x="542" y="1659"/>
      <point x="836" y="1659" type="qcurve"/>
      <point x="836" y="1540" type="line"/>
      <point x="597" y="1540"/>
      <point x="434" y="1260" type="qcurve" smooth="yes"/>
      <point x="270" y="979"/>
      <point x="270" y="574" type="qcurve" smooth="yes"/>
      <point x="270" y="170"/>
      <point x="434" y="-113" type="qcurve" smooth="yes"/>
      <point x="597" y="-393"/>
    </contour>
  </outline>
</glyph>
<glyph name="parenright" format="2">
  <advance width="856"/>
  <unicode hex="0029"/>
  <outline>
    <contour>
      <point x="20" y="-512" type="qcurve"/>
      <point x="20" y="-393" type="line"/>
      <point x="259" y="-393"/>
      <point x="422" y="-113" type="qcurve" smooth="yes"/>
      <point x="586" y="170"/>
      <point x="586" y="574" type="qcurve" smooth="yes"/>
      <point x="586" y="979"/>
      <point x="422" y="1260" type="qcurve" smooth="yes"/>
      <point x="259" y="1540"/>
      <point x="20" y="1540" type="qcurve"/>
      <point x="20" y="1659" type="line"/>
      <point x="314" y="1659"/>
      <point x="514" y="1356" type="qcurve" smooth="yes"/>
      <point x="713" y="1054"/>
      <point x="713" y="574" type="qcurve" smooth="yes"/>
      <point x="713" y="93"/>
      <point x="514" y="-209" type="qcurve" smooth="yes"/>
      <point x="314" y="-512"/>
    </contour>
  </outline>
</glyph>
<glyph name="asterisk" format="2">
  <advance width="978"/>
  <unicode hex="002A"/>
  <outline>
    <contour>
      <point x="512" y="1315" type="qcurve" smooth="yes"/>
      <point x="498" y="1270" type="line"/>
      <point x="481" y="1270" type="line"/>
      <point x="418" y="1434"/>
      <point x="418" y="1546" type="qcurve" smooth="yes"/>
      <point x="418" y="1626"/>
      <point x="490" y="1626" type="qcurve" smooth="yes"/>
      <point x="561" y="1626"/>
      <point x="561" y="1546" type="qcurve" smooth="yes"/>
      <point x="561" y="1495"/>
      <point x="545" y="1428" type="qcurve" smooth="yes"/>
      <point x="529" y="1360"/>
    </contour>
    <contour>
      <point x="582" y="1221" type="qcurve" smooth="yes"/>
      <point x="537" y="1223" type="line"/>
      <point x="532" y="1237" type="line"/>
      <point x="666" y="1350"/>
      <point x="772" y="1384" type="qcurve"/>
      <point x="849" y="1413"/>
      <point x="893" y="1275"/>
      <point x="819" y="1249" type="qcurve" smooth="yes"/>
      <point x="771" y="1233"/>
      <point x="700" y="1227" type="qcurve" smooth="yes"/>
      <point x="630" y="1221"/>
    </contour>
    <contour>
      <point x="410" y="1266" type="qcurve" smooth="yes"/>
      <point x="446" y="1237" type="line"/>
      <point x="442" y="1223" type="line"/>
      <point x="269" y="1213"/>
      <point x="160" y="1249" type="qcurve" smooth="yes"/>
      <point x="87" y="1274"/>
      <point x="109" y="1344" type="qcurve" smooth="yes"/>
      <point x="131" y="1412"/>
      <point x="207" y="1384" type="qcurve" smooth="yes"/>
      <point x="257" y="1366"/>
      <point x="315" y="1331" type="qcurve" smooth="yes"/>
      <point x="382" y="1289"/>
    </contour>
    <contour>
      <point x="524" y="1130" type="qcurve" smooth="yes"/>
      <point x="510" y="1174" type="line"/>
      <point x="522" y="1184" type="line"/>
      <point x="673" y="1094"/>
      <point x="741" y="1008" type="qcurve" smooth="yes"/>
      <point x="794" y="941"/>
      <point x="733" y="901" type="qcurve"/>
      <point x="677" y="856"/>
      <point x="631" y="920" type="qcurve"/>
      <point x="598" y="959"/>
      <point x="568" y="1022" type="qcurve" smooth="yes"/>
      <point x="539" y="1080"/>
    </contour>
    <contour>
      <point x="418" y="1159" type="qcurve" smooth="yes"/>
      <point x="457" y="1184" type="line"/>
      <point x="469" y="1174" type="line"/>
      <point x="423" y="1011"/>
      <point x="348" y="920" type="qcurve"/>
      <point x="302" y="857"/>
      <point x="246" y="901" type="qcurve"/>
      <point x="185" y="941"/>
      <point x="238" y="1008" type="qcurve" smooth="yes"/>
      <point x="272" y="1050"/>
      <point x="323" y="1091" type="qcurve" smooth="yes"/>
      <point x="378" y="1135"/>
    </contour>
  </outline>
</glyph>
<glyph name="plus" format="2">
  <advance width="1040"/>
  <unicode hex="002B"/>
  <outline>
    <contour>
      <point x="461" y="600" type="line"/>
      <point x="461" y="954" type="line"/>
      <point x="580" y="954" type="line"/>
      <point x="580" y="600" type="line"/>
      <point x="938" y="600" type="line"/>
      <point x="938" y="481" type="line"/>
      <point x="580" y="481" type="line"/>
      <point x="580" y="127" type="line"/>
      <point x="461" y="127" type="line"/>
      <point x="461" y="481" type="line"/>
      <point x="102" y="481" type="line"/>
      <point x="102" y="600" type="line"/>
    </contour>
  </outline>
</glyph>
<glyph name="comma" format="2">
  <advance width="380"/>
  <unicode hex="002C"/>
  <outline>
    <contour>
      <point x="180" y="-266" type="qcurve"/>
      <point x="180" y="-68" type="line" smooth="yes"/>
      <point x="180" y="-29"/>
      <point x="141" y="-12" type="qcurve" smooth="yes"/>
      <point x="102" y="6"/>
      <point x="102" y="63" type="qcurve" smooth="yes"/>
      <point x="102" y="100"/>
      <point x="152" y="147"/>
      <point x="190" y="147" type="qcurve" smooth="yes"/>
      <point x="276" y="147"/>
      <point x="279" y="45" type="qcurve" smooth="yes"/>
      <point x="279" y="-88"/>
      <point x="247" y="-178" type="qcurve" smooth="yes"/>
      <point x="216" y="-266"/>
    </contour>
  </outline>
</glyph>
<glyph name="period" format="2">
  <advance width="380"/>
  <unicode hex="002E"/>
  <outline>
    <contour>
      <point x="127" y="3" type="qcurve" smooth="yes"/>
      <point x="102" y="25"/>
      <point x="102" y="103"/>
      <point x="127" y="125" type="qcurve" smooth="yes"/>
      <point x="152" y="148"/>
      <point x="229" y="148"/>
      <point x="254" y="125" type="qcurve" smooth="yes"/>
      <point x="279" y="103"/>
      <point x="279" y="25"/>
      <point x="254" y="3" type="qcurve" smooth="yes"/>
      <point x="229" y="-20"/>
      <point x="152" y="-20"/>
    </contour>
  </outline>
</glyph>
<glyph name="slash" format="2">
  <advance width="907"/>
  <unicode hex="002F"/>
  <outline>
    <contour>
      <point x="127" y="-246" type="line"/>
      <point x="0" y="-246" type="line"/>
      <point x="780" y="1434" type="line"/>
      <point x="907" y="1434" type="line"/>
    </contour>
  </outline>
</glyph>
<glyph name="zero" format="2">
  <advance width="1572"/>
  <unicode hex="0030"/>
  <outline>
    <contour>
      <point x="1257" y="189" type="qcurve" smooth="yes"/>
      <point x="1083" y="-20"/>
      <point x="489" y="-20"/>
      <point x="143" y="398"/>
      <point x="143" y="1036"/>
      <point x="489" y="1454"/>
      <point x="1083" y="1454"/>
      <point x="1257" y="1245" type="qcurve" smooth="yes"/>
      <point x="1430" y="1036"/>
      <point x="1430" y="398"/>
    </contour>
    <contour>
      <point x="1022" y="1327"/>
      <point x="787" y="1327" type="qcurve" smooth="yes"/>
      <point x="551" y="1327"/>
      <point x="283" y="981"/>
      <point x="283" y="453"/>
      <point x="417" y="280" type="qcurve" smooth="yes"/>
      <point x="550" y="106"/>
      <point x="787" y="106" type="qcurve" smooth="yes"/>
      <point x="1022" y="106"/>
      <point x="1156" y="280" type="qcurve" smooth="yes"/>
      <point x="1290" y="453"/>
      <point x="1290" y="981"/>
    </contour>
  </outline>
</glyph>
<glyph name="one" format="2">
  <advance width="731"/>
  <unicode hex="0031"/>
  <outline>
    <contour>
      <point x="391" y="1266" type="line"/>
      <point x="82" y="991" type="line"/>
      <point x="82" y="1153" type="line"/>
      <point x="393" y="1434" type="line"/>
      <point x="526" y="1434" type="line"/>
      <point x="526" y="0" type="line"/>
      <point x="391" y="0" type="line"/>
    </contour>
  </outline>
</glyph>
<glyph name="two" format="2">
  <advance width="1384"/>
  <unicode hex="0032"/>
  <outline>
    <contour>
      <point x="1262" y="0" type="line"/>
      <point x="123" y="0" type="line"/>
      <point x="123" y="111" type="line" smooth="yes"/>
      <point x="123" y="204"/>
      <point x="207" y="363"/>
      <point x="279" y="418" type="qcurve" smooth="yes"/>
      <point x="418" y="526"/>
      <point x="620" y="603" type="qcurve" smooth="yes"/>
      <point x="810" y="676"/>
      <point x="961" y="774" type="qcurve" smooth="yes"/>
      <point x="1033" y="821"/>
      <point x="1116" y="954"/>
      <point x="1116" y="1032" type="qcurve" smooth="yes"/>
      <point x="1116" y="1177"/>
      <point x="1006" y="1254" type="qcurve" smooth="yes"/>
      <point x="894" y="1331"/>
      <point x="711" y="1331" type="qcurve" smooth="yes"/>
      <point x="526" y="1331"/>
      <point x="416" y="1250" type="qcurve" smooth="yes"/>
      <point x="305" y="1169"/>
      <point x="305" y="1014" type="qcurve" smooth="yes"/>
      <point x="305" y="973" type="line"/>
      <point x="170" y="973" type="line"/>
      <point x="170" y="1014" type="line" smooth="yes"/>
      <point x="170" y="1223"/>
      <point x="319" y="1339" type="qcurve" smooth="yes"/>
      <point x="467" y="1454"/>
      <point x="955" y="1454"/>
      <point x="1251" y="1230"/>
      <point x="1251" y="1032" type="qcurve" smooth="yes"/>
      <point x="1251" y="925"/>
      <point x="1146" y="747"/>
      <point x="1056" y="687" type="qcurve" smooth="yes"/>
      <point x="918" y="595"/>
      <point x="652" y="483" type="qcurve" smooth="yes"/>
      <point x="582" y="454"/>
      <point x="479" y="404"/>
      <point x="372" y="335"/>
      <point x="304" y="265"/>
      <point x="262" y="174"/>
      <point x="262" y="123" type="qcurve"/>
      <point x="1262" y="123" type="line"/>
    </contour>
  </outline>
</glyph>
<glyph name="three" format="2">
  <advance width="1368"/>
  <unicode hex="0033"/>
  <outline>
    <contour>
      <point x="1235" y="434" type="qcurve" smooth="yes"/>
      <point x="1235" y="224"/>
      <point x="1082" y="102" type="qcurve" smooth="yes"/>
      <point x="927" y="-20"/>
      <point x="680" y="-20" type="qcurve" smooth="yes"/>
      <point x="431" y="-20"/>
      <point x="277" y="102" type="qcurve" smooth="yes"/>
      <point x="123" y="223"/>
      <point x="123" y="438" type="qcurve" smooth="yes"/>
      <point x="123" y="475" type="line"/>
      <point x="258" y="475" type="line"/>
      <point x="258" y="438" type="line" smooth="yes"/>
      <point x="258" y="273"/>
      <point x="373" y="188" type="qcurve" smooth="yes"/>
      <point x="488" y="102"/>
      <point x="680" y="102" type="qcurve" smooth="yes"/>
      <point x="869" y="102"/>
      <point x="985" y="188" type="qcurve" smooth="yes"/>
      <point x="1100" y="273"/>
      <point x="1100" y="434" type="qcurve" smooth="yes"/>
      <point x="1100" y="596"/>
      <point x="986" y="678" type="qcurve" smooth="yes"/>
      <point x="873" y="760"/>
      <point x="680" y="760" type="qcurve" smooth="yes"/>
      <point x="340" y="760" type="line"/>
      <point x="340" y="893" type="line"/>
      <point x="973" y="1307" type="line"/>
      <point x="973" y="1311" type="line"/>
      <point x="176" y="1311" type="line"/>
      <point x="176" y="1434" type="line"/>
      <point x="1178" y="1434" type="line"/>
      <point x="1178" y="1300" type="line"/>
      <point x="545" y="887" type="line"/>
      <point x="545" y="883" type="line"/>
      <point x="680" y="883" type="line" smooth="yes"/>
      <point x="930" y="883"/>
      <point x="1083" y="766" type="qcurve" smooth="yes"/>
      <point x="1235" y="649"/>
    </contour>
  </outline>
</glyph>
<glyph name="four" format="2">
  <advance width="1335"/>
  <unicode hex="0034"/>
  <outline>
    <contour>
      <point x="1063" y="0" type="line"/>
      <point x="928" y="0" type="line"/>
      <point x="928" y="358" type="line"/>
      <point x="51" y="358" type="line"/>
      <point x="51" y="487" type="line"/>
      <point x="881" y="1434" type="line"/>
      <point x="1063" y="1434" type="line"/>
      <point x="1063" y="481" type="line"/>
      <point x="1264" y="481" type="line"/>
      <point x="1264" y="358" type="line"/>
      <point x="1063" y="358" type="line"/>
    </contour>
    <contour>
      <point x="211" y="487" type="line"/>
      <point x="211" y="481" type="line"/>
      <point x="928" y="481" type="line"/>
      <point x="928" y="1294" type="line"/>
      <point x="924" y="1294" type="line"/>
    </contour>
  </outline>
</glyph>
<glyph name="five" format="2">
  <advance width="1406"/>
  <unicode hex="0035"/>
  <outline>
    <contour>
      <point x="1284" y="690"/>
      <point x="1284" y="240"/>
      <point x="982" y="-20"/>
      <point x="733" y="-20" type="qcurve" smooth="yes"/>
      <point x="592" y="-20"/>
      <point x="367" y="61"/>
      <point x="305" y="129" type="qcurve" smooth="yes"/>
      <point x="184" y="260"/>
      <point x="184" y="401" type="qcurve"/>
      <point x="319" y="401" type="line"/>
      <point x="319" y="311"/>
      <point x="403" y="215" type="qcurve" smooth="yes"/>
      <point x="447" y="164"/>
      <point x="622" y="102"/>
      <point x="733" y="102" type="qcurve" smooth="yes"/>
      <point x="921" y="102"/>
      <point x="1035" y="198" type="qcurve" smooth="yes"/>
      <point x="1149" y="292"/>
      <point x="1149" y="465" type="qcurve" smooth="yes"/>
      <point x="1149" y="638"/>
      <point x="1035" y="733" type="qcurve" smooth="yes"/>
      <point x="920" y="827"/>
      <point x="727" y="827" type="qcurve" smooth="yes"/>
      <point x="640" y="827"/>
      <point x="491" y="788"/>
      <point x="449" y="757" type="qcurve" smooth="yes"/>
      <point x="362" y="692"/>
      <point x="344" y="647" type="qcurve"/>
      <point x="334" y="627" type="line"/>
      <point x="199" y="627" type="line"/>
      <point x="199" y="1434" type="line"/>
      <point x="1186" y="1434" type="line"/>
      <point x="1186" y="1311" type="line"/>
      <point x="334" y="1311" type="line"/>
      <point x="334" y="811" type="line"/>
      <point x="338" y="811" type="line"/>
      <point x="349" y="829"/>
      <point x="395" y="860" type="qcurve" smooth="yes"/>
      <point x="428" y="882"/>
      <point x="472" y="902" type="qcurve" smooth="yes"/>
      <point x="584" y="950"/>
      <point x="739" y="950" type="qcurve" smooth="yes"/>
      <point x="982" y="950"/>
    </contour>
  </outline>
</glyph>
<glyph name="six" format="2">
  <advance width="1445"/>
  <unicode hex="0036"/>
  <outline>
    <contour>
      <point x="1241" y="1059" type="qcurve"/>
      <point x="1098" y="1059" type="line"/>
      <point x="1090" y="1095"/>
      <point x="1057" y="1152" type="qcurve" smooth="yes"/>
      <point x="1030" y="1198"/>
      <point x="993" y="1234" type="qcurve" smooth="yes"/>
      <point x="953" y="1273"/>
      <point x="812" y="1327"/>
      <point x="731" y="1327" type="qcurve" smooth="yes"/>
      <point x="508" y="1327"/>
      <point x="399" y="1153" type="qcurve" smooth="yes"/>
      <point x="289" y="978"/>
      <point x="289" y="705" type="qcurve"/>
      <point x="293" y="705" type="line"/>
      <point x="298" y="717"/>
      <point x="306" y="730" type="qcurve" smooth="yes"/>
      <point x="315" y="745"/>
      <point x="352" y="785" type="qcurve" smooth="yes"/>
      <point x="387" y="823"/>
      <point x="436" y="856" type="qcurve" smooth="yes"/>
      <point x="482" y="888"/>
      <point x="568" y="913" type="qcurve" smooth="yes"/>
      <point x="652" y="938"/>
      <point x="754" y="938" type="qcurve" smooth="yes"/>
      <point x="985" y="938"/>
      <point x="1139" y="805" type="qcurve" smooth="yes"/>
      <point x="1292" y="672"/>
      <point x="1292" y="459" type="qcurve" smooth="yes"/>
      <point x="1292" y="238"/>
      <point x="990" y="-20"/>
      <point x="737" y="-20" type="qcurve" smooth="yes"/>
      <point x="457" y="-20"/>
      <point x="305" y="159" type="qcurve" smooth="yes"/>
      <point x="154" y="337"/>
      <point x="154" y="643" type="qcurve" smooth="yes"/>
      <point x="154" y="715" type="line" smooth="yes"/>
      <point x="154" y="1031"/>
      <point x="303" y="1243" type="qcurve" smooth="yes"/>
      <point x="451" y="1454"/>
      <point x="731" y="1454" type="qcurve" smooth="yes"/>
      <point x="841" y="1454"/>
      <point x="935" y="1419" type="qcurve" smooth="yes"/>
      <point x="1025" y="1386"/>
      <point x="1083" y="1334" type="qcurve" smooth="yes"/>
      <point x="1138" y="1283"/>
      <point x="1175" y="1226" type="qcurve" smooth="yes"/>
      <point x="1241" y="1123"/>
    </contour>
    <contour>
      <point x="737" y="106" type="qcurve" smooth="yes"/>
      <point x="922" y="106"/>
      <point x="1038" y="202" type="qcurve" smooth="yes"/>
      <point x="1153" y="296"/>
      <point x="1153" y="459" type="qcurve" smooth="yes"/>
      <point x="1153" y="621"/>
      <point x="1037" y="716" type="qcurve" smooth="yes"/>
      <point x="919" y="811"/>
      <point x="737" y="811" type="qcurve" smooth="yes"/>
      <point x="566" y="811"/>
      <point x="448" y="713" type="qcurve" smooth="yes"/>
      <point x="330" y="614"/>
      <point x="330" y="459" type="qcurve" smooth="yes"/>
      <point x="330" y="301"/>
      <point x="445" y="204" type="qcurve" smooth="yes"/>
      <point x="560" y="106"/>
    </contour>
  </outline>
</glyph>
<glyph name="seven" format="2">
  <advance width="1165"/>
  <unicode hex="0037"/>
  <outline>
    <contour>
      <point x="967" y="1311" type="line"/>
      <point x="51" y="1311" type="line"/>
      <point x="51" y="1434" type="line"/>
      <point x="1104" y="1434" type="line"/>
      <point x="1104" y="1294" type="line"/>
      <point x="369" y="0" type="line"/>
      <point x="225" y="0" type="line"/>
    </contour>
  </outline>
</glyph>
<glyph name="eight" format="2">
  <advance width="1462"/>
  <unicode hex="0038"/>
  <outline>
    <contour>
      <point x="1149" y="91" type="qcurve" smooth="yes"/>
      <point x="988" y="-20"/>
      <point x="731" y="-20" type="qcurve" smooth="yes"/>
      <point x="472" y="-20"/>
      <point x="314" y="92" type="qcurve" smooth="yes"/>
      <point x="154" y="203"/>
      <point x="154" y="395" type="qcurve" smooth="yes"/>
      <point x="154" y="476"/>
      <point x="216" y="610"/>
      <point x="266" y="649" type="qcurve" smooth="yes"/>
      <point x="357" y="720"/>
      <point x="440" y="741" type="qcurve" smooth="yes"/>
      <point x="473" y="750" type="line"/>
      <point x="473" y="756" type="line"/>
      <point x="429" y="766"/>
      <point x="377" y="791" type="qcurve" smooth="yes"/>
      <point x="327" y="815"/>
      <point x="294" y="844" type="qcurve" smooth="yes"/>
      <point x="255" y="877"/>
      <point x="199" y="997"/>
      <point x="199" y="1067" type="qcurve" smooth="yes"/>
      <point x="199" y="1245"/>
      <point x="344" y="1350" type="qcurve" smooth="yes"/>
      <point x="490" y="1454"/>
      <point x="731" y="1454" type="qcurve" smooth="yes"/>
      <point x="973" y="1454"/>
      <point x="1119" y="1350" type="qcurve" smooth="yes"/>
      <point x="1264" y="1245"/>
      <point x="1264" y="1067" type="qcurve" smooth="yes"/>
      <point x="1264" y="996"/>
      <point x="1208" y="876"/>
      <point x="1166" y="843" type="qcurve" smooth="yes"/>
      <point x="1080" y="775"/>
      <point x="1018" y="762" type="qcurve" smooth="yes"/>
      <point x="989" y="756" type="line"/>
      <point x="989" y="750" type="line"/>
      <point x="997" y="749"/>
      <point x="1023" y="742" type="qcurve" smooth="yes"/>
      <point x="1056" y="730"/>
      <point x="1100" y="710" type="qcurve" smooth="yes"/>
      <point x="1153" y="686"/>
      <point x="1197" y="648" type="qcurve" smooth="yes"/>
      <point x="1240" y="611"/>
      <point x="1274" y="546" type="qcurve" smooth="yes"/>
      <point x="1309" y="478"/>
      <point x="1309" y="395" type="qcurve" smooth="yes"/>
      <point x="1309" y="202"/>
    </contour>
    <contour>
      <point x="412" y="181" type="qcurve" smooth="yes"/>
      <point x="530" y="106"/>
      <point x="932" y="106"/>
      <point x="1051" y="181" type="qcurve" smooth="yes"/>
      <point x="1169" y="256"/>
      <point x="1169" y="396" type="qcurve" smooth="yes"/>
      <point x="1169" y="535"/>
      <point x="1050" y="610" type="qcurve" smooth="yes"/>
      <point x="929" y="684"/>
      <point x="731" y="684" type="qcurve" smooth="yes"/>
      <point x="532" y="684"/>
      <point x="413" y="610" type="qcurve" smooth="yes"/>
      <point x="293" y="535"/>
      <point x="293" y="396" type="qcurve" smooth="yes"/>
      <point x="293" y="256"/>
    </contour>
    <contour>
      <point x="445" y="881" type="qcurve" smooth="yes"/>
      <point x="551" y="811"/>
      <point x="731" y="811" type="qcurve" smooth="yes"/>
      <point x="912" y="811"/>
      <point x="1018" y="881" type="qcurve" smooth="yes"/>
      <point x="1124" y="950"/>
      <point x="1124" y="1067" type="qcurve" smooth="yes"/>
      <point x="1124" y="1188"/>
      <point x="1018" y="1258" type="qcurve" smooth="yes"/>
      <point x="911" y="1327"/>
      <point x="731" y="1327" type="qcurve" smooth="yes"/>
      <point x="552" y="1327"/>
      <point x="445" y="1258" type="qcurve" smooth="yes"/>
      <point x="338" y="1187"/>
      <point x="338" y="1067" type="qcurve" smooth="yes"/>
      <point x="338" y="950"/>
    </contour>
  </outline>
</glyph>
<glyph name="nine" format="2">
  <advance width="1445"/>
  <unicode hex="0039"/>
  <outline>
    <contour>
      <point x="168" y="375" type="qcurve"/>
      <point x="311" y="375" type="line" smooth="yes"/>
      <point x="312" y="372"/>
      <point x="319" y="353"/>
      <point x="322" y="347" type="qcurve" smooth="yes"/>
      <point x="328" y="328"/>
      <point x="359" y="282" type="qcurve" smooth="yes"/>
      <point x="389" y="236"/>
      <point x="429" y="200" type="qcurve" smooth="yes"/>
      <point x="470" y="163"/>
      <point x="543" y="135" type="qcurve" smooth="yes"/>
      <point x="618" y="106"/>
      <point x="705" y="106" type="qcurve" smooth="yes"/>
      <point x="862" y="106"/>
      <point x="965" y="194" type="qcurve" smooth="yes"/>
      <point x="1070" y="282"/>
      <point x="1113" y="416" type="qcurve" smooth="yes"/>
      <point x="1157" y="553"/>
      <point x="1157" y="729" type="qcurve"/>
      <point x="1153" y="729" type="line"/>
      <point x="1148" y="717"/>
      <point x="1140" y="704" type="qcurve" smooth="yes"/>
      <point x="1130" y="689"/>
      <point x="1094" y="648" type="qcurve" smooth="yes"/>
      <point x="1058" y="609"/>
      <point x="1010" y="578" type="qcurve" smooth="yes"/>
      <point x="966" y="548"/>
      <point x="878" y="522" type="qcurve" smooth="yes"/>
      <point x="791" y="496"/>
      <point x="692" y="496" type="qcurve" smooth="yes"/>
      <point x="460" y="496"/>
      <point x="308" y="629" type="qcurve" smooth="yes"/>
      <point x="154" y="762"/>
      <point x="154" y="975" type="qcurve" smooth="yes"/>
      <point x="154" y="1196"/>
      <point x="458" y="1454"/>
      <point x="709" y="1454" type="qcurve" smooth="yes"/>
      <point x="989" y="1454"/>
      <point x="1141" y="1275" type="qcurve" smooth="yes"/>
      <point x="1292" y="1097"/>
      <point x="1292" y="791" type="qcurve" smooth="yes"/>
      <point x="1292" y="719" type="line" smooth="yes"/>
      <point x="1292" y="400"/>
      <point x="1142" y="190" type="qcurve" smooth="yes"/>
      <point x="990" y="-20"/>
      <point x="705" y="-20" type="qcurve" smooth="yes"/>
      <point x="587" y="-20"/>
      <point x="494" y="15" type="qcurve" smooth="yes"/>
      <point x="396" y="50"/>
      <point x="340" y="100" type="qcurve" smooth="yes"/>
      <point x="282" y="151"/>
      <point x="242" y="208" type="qcurve" smooth="yes"/>
      <point x="168" y="312"/>
    </contour>
    <contour>
      <point x="709" y="1327" type="qcurve" smooth="yes"/>
      <point x="524" y="1327"/>
      <point x="408" y="1232" type="qcurve" smooth="yes"/>
      <point x="293" y="1138"/>
      <point x="293" y="812"/>
      <point x="410" y="718" type="qcurve" smooth="yes"/>
      <point x="526" y="623"/>
      <point x="709" y="623" type="qcurve" smooth="yes"/>
      <point x="880" y="623"/>
      <point x="999" y="721" type="qcurve" smooth="yes"/>
      <point x="1116" y="818"/>
      <point x="1116" y="975" type="qcurve" smooth="yes"/>
      <point x="1116" y="1132"/>
      <point x="1002" y="1230" type="qcurve" smooth="yes"/>
      <point x="887" y="1327"/>
    </contour>
  </outline>
</glyph>
<glyph name="colon" format="2">
  <advance width="380"/>
  <unicode hex="003A"/>
  <outline>
    <contour>
      <point x="127" y="3" type="qcurve" smooth="yes"/>
      <point x="102" y="25"/>
      <point x="102" y="103"/>
      <point x="127" y="125" type="qcurve" smooth="yes"/>
      <point x="152" y="148"/>
      <point x="229" y="148"/>
      <point x="254" y="125" type="qcurve" smooth="yes"/>
      <point x="279" y="103"/>
      <point x="279" y="25"/>
      <point x="254" y="3" type="qcurve" smooth="yes"/>
      <point x="229" y="-20"/>
      <point x="152" y="-20"/>
    </contour>
    <contour>
      <point x="127" y="879" type="qcurve" smooth="yes"/>
      <point x="102" y="901"/>
      <point x="102" y="940" type="qcurve" smooth="yes"/>
      <point x="102" y="980"/>
      <point x="152" y="1024"/>
      <point x="229" y="1024"/>
      <point x="279" y="980"/>
      <point x="279" y="940" type="qcurve" smooth="yes"/>
      <point x="279" y="901"/>
      <point x="254" y="879" type="qcurve" smooth="yes"/>
      <point x="229" y="856"/>
      <point x="152" y="856"/>
    </contour>
  </outline>
</glyph>
<glyph name="semicolon" format="2">
  <advance width="380"/>
  <unicode hex="003B"/>
  <outline>
    <contour>
      <point x="127" y="879" type="qcurve" smooth="yes"/>
      <point x="102" y="901"/>
      <point x="102" y="940" type="qcurve" smooth="yes"/>
      <point x="102" y="980"/>
      <point x="152" y="1024"/>
      <point x="229" y="1024"/>
      <point x="279" y="980"/>
      <point x="279" y="940" type="qcurve" smooth="yes"/>
      <point x="279" y="901"/>
      <point x="254" y="879" type="qcurve" smooth="yes"/>
      <point x="229" y="856"/>
      <point x="152" y="856"/>
    </contour>
    <contour>
      <point x="180" y="-266" type="qcurve"/>
      <point x="180" y="-68" type="line" smooth="yes"/>
      <point x="180" y="-29"/>
      <point x="141" y="-12" type="qcurve" smooth="yes"/>
      <point x="102" y="6"/>
      <point x="102" y="63" type="qcurve" smooth="yes"/>
      <point x="102" y="100"/>
      <point x="152" y="147"/>
      <point x="190" y="147" type="qcurve" smooth="yes"/>
      <point x="276" y="147"/>
      <point x="279" y="45" type="qcurve" smooth="yes"/>
      <point x="279" y="-88"/>
      <point x="247" y="-178" type="qcurve" smooth="yes"/>
      <point x="216" y="-266"/>
    </contour>
  </outline>
</glyph>
<glyph name="less" format="2">
  <advance width="1153"/>
  <unicode hex="003C"/>
  <outline>
    <contour>
      <point x="1071" y="-20" type="line"/>
      <point x="61" y="430" type="line"/>
      <point x="61" y="573" type="line"/>
      <point x="1071" y="1024" type="line"/>
      <point x="1071" y="893" type="line"/>
      <point x="195" y="506" type="line"/>
      <point x="195" y="498" type="line"/>
      <point x="1071" y="111" type="line"/>
    </contour>
  </outline>
</glyph>
<glyph name="equal" format="2">
  <advance width="1040"/>
  <unicode hex="003D"/>
  <outline>
    <contour>
      <point x="938" y="678" type="line"/>
      <point x="102" y="678" type="line"/>
      <point x="102" y="797" type="line"/>
      <point x="938" y="797" type="line"/>
    </contour>
    <contour>
      <point x="938" y="305" type="line"/>
      <point x="102" y="305" type="line"/>
      <point x="102" y="424" type="line"/>
      <point x="938" y="424" type="line"/>
    </contour>
  </outline>
</glyph>
<glyph name="greater" format="2">
  <advance width="1153"/>
  <unicode hex="003E"/>
  <outline>
    <contour>
      <point x="82" y="1024" type="line"/>
      <point x="1092" y="573" type="line"/>
      <point x="1092" y="430" type="line"/>
      <point x="82" y="-20" type="line"/>
      <point x="82" y="111" type="line"/>
      <point x="958" y="498" type="line"/>
      <point x="958" y="506" type="line"/>
      <point x="82" y="893" type="line"/>
    </contour>
  </outline>
</glyph>
<glyph name="question" format="2">
  <advance width="1232"/>
  <unicode hex="003F"/>
  <outline>
    <contour>
      <point x="446" y="643" type="qcurve" smooth="yes"/>
      <point x="446" y="593"/>
      <point x="529" y="535"/>
      <point x="596" y="535" type="qcurve" smooth="yes"/>
      <point x="661" y="535"/>
      <point x="737" y="587"/>
      <point x="737" y="639" type="qcurve" smooth="yes"/>
      <point x="737" y="664" type="line"/>
      <point x="866" y="664" type="line"/>
      <point x="866" y="639" type="line" smooth="yes"/>
      <point x="866" y="534"/>
      <point x="724" y="420"/>
      <point x="596" y="420" type="qcurve" smooth="yes"/>
      <point x="464" y="420"/>
      <point x="317" y="538"/>
      <point x="317" y="750"/>
      <point x="388" y="810" type="qcurve" smooth="yes"/>
      <point x="458" y="869"/>
      <point x="561" y="892" type="qcurve" smooth="yes"/>
      <point x="656" y="912"/>
      <point x="763" y="931" type="qcurve" smooth="yes"/>
      <point x="864" y="948"/>
      <point x="1006" y="1044"/>
      <point x="1006" y="1133" type="qcurve" smooth="yes"/>
      <point x="1006" y="1220"/>
      <point x="896" y="1276" type="qcurve" smooth="yes"/>
      <point x="787" y="1331"/>
      <point x="616" y="1331" type="qcurve" smooth="yes"/>
      <point x="444" y="1331"/>
      <point x="336" y="1268" type="qcurve" smooth="yes"/>
      <point x="227" y="1204"/>
      <point x="227" y="1090" type="qcurve" smooth="yes"/>
      <point x="227" y="1032" type="line"/>
      <point x="92" y="1032" type="line"/>
      <point x="92" y="1090" type="line" smooth="yes"/>
      <point x="92" y="1260"/>
      <point x="239" y="1357" type="qcurve" smooth="yes"/>
      <point x="384" y="1454"/>
      <point x="617" y="1454" type="qcurve" smooth="yes"/>
      <point x="847" y="1454"/>
      <point x="995" y="1368" type="qcurve" smooth="yes"/>
      <point x="1141" y="1282"/>
      <point x="1141" y="1133" type="qcurve" smooth="yes"/>
      <point x="1141" y="1014"/>
      <point x="1069" y="944" type="qcurve" smooth="yes"/>
      <point x="998" y="874"/>
      <point x="896" y="850" type="qcurve" smooth="yes"/>
      <point x="807" y="827"/>
      <point x="693" y="809" type="qcurve" smooth="yes"/>
      <point x="590" y="793"/>
      <point x="518" y="755" type="qcurve" smooth="yes"/>
      <point x="446" y="718"/>
    </contour>
    <contour>
      <point x="531" y="3" type="qcurve" smooth="yes"/>
      <point x="506" y="25"/>
      <point x="506" y="103"/>
      <point x="531" y="125" type="qcurve" smooth="yes"/>
      <point x="554" y="147"/>
      <point x="594" y="147" type="qcurve" smooth="yes"/>
      <point x="633" y="147"/>
      <point x="658" y="125" type="qcurve" smooth="yes"/>
      <point x="682" y="103"/>
      <point x="682" y="64" type="qcurve" smooth="yes"/>
      <point x="682" y="26"/>
      <point x="634" y="-20"/>
      <point x="554" y="-20"/>
    </contour>
  </outline>
</glyph>
<glyph name="at" format="2">
  <advance width="1998"/>
  <unicode hex="0040"/>
  <outline>
    <contour>
      <point x="571" y="330"/>
      <point x="571" y="519" type="qcurve" smooth="yes"/>
      <point x="571" y="707"/>
      <point x="685" y="830" type="qcurve" smooth="yes"/>
      <point x="799" y="952"/>
      <point x="971" y="952" type="qcurve" smooth="yes"/>
      <point x="1102" y="952"/>
      <point x="1175" y="903" type="qcurve" smooth="yes"/>
      <point x="1231" y="864"/>
      <point x="1262" y="823" type="qcurve"/>
      <point x="1270" y="809" type="line"/>
      <point x="1276" y="809" type="line"/>
      <point x="1276" y="932" type="line"/>
      <point x="1403" y="932" type="line"/>
      <point x="1403" y="371" type="line" smooth="yes"/>
      <point x="1403" y="288"/>
      <point x="1484" y="203"/>
      <point x="1559" y="203" type="qcurve"/>
      <point x="1675" y="211"/>
      <point x="1709" y="304" type="qcurve" smooth="yes"/>
      <point x="1739" y="387"/>
      <point x="1739" y="535" type="qcurve" smooth="yes"/>
      <point x="1739" y="886"/>
      <point x="1546" y="1094" type="qcurve" smooth="yes"/>
      <point x="1352" y="1303"/>
      <point x="1004" y="1303" type="qcurve" smooth="yes"/>
      <point x="666" y="1303"/>
      <point x="468" y="1085" type="qcurve" smooth="yes"/>
      <point x="270" y="866"/>
      <point x="270" y="526" type="qcurve" smooth="yes"/>
      <point x="270" y="194"/>
      <point x="664" y="-242"/>
      <point x="989" y="-242" type="qcurve" smooth="yes"/>
      <point x="1089" y="-242"/>
      <point x="1176" y="-224" type="qcurve" smooth="yes"/>
      <point x="1266" y="-204"/>
      <point x="1298" y="-186" type="qcurve" smooth="yes"/>
      <point x="1333" y="-168" type="line"/>
      <point x="1380" y="-272" type="line"/>
      <point x="1365" y="-281"/>
      <point x="1334" y="-297" type="qcurve" smooth="yes"/>
      <point x="1302" y="-311"/>
      <point x="1201" y="-336" type="qcurve" smooth="yes"/>
      <point x="1098" y="-360"/>
      <point x="989" y="-360" type="qcurve" smooth="yes"/>
      <point x="609" y="-360"/>
      <point x="376" y="-115" type="qcurve" smooth="yes"/>
      <point x="143" y="132"/>
      <point x="143" y="526" type="qcurve" smooth="yes"/>
      <point x="143" y="922"/>
      <point x="382" y="1172" type="qcurve" smooth="yes"/>
      <point x="620" y="1421"/>
      <point x="1004" y="1421" type="qcurve" smooth="yes"/>
      <point x="1405" y="1421"/>
      <point x="1636" y="1176" type="qcurve" smooth="yes"/>
      <point x="1866" y="929"/>
      <point x="1866" y="535" type="qcurve" smooth="yes"/>
      <point x="1866" y="298"/>
      <point x="1778" y="192" type="qcurve" smooth="yes"/>
      <point x="1690" y="84"/>
      <point x="1559" y="84" type="qcurve" smooth="yes"/>
      <point x="1501" y="84"/>
      <point x="1402" y="120"/>
      <point x="1377" y="147" type="qcurve" smooth="yes"/>
      <point x="1323" y="202"/>
      <point x="1315" y="244" type="qcurve" smooth="yes"/>
      <point x="1311" y="262" type="line"/>
      <point x="1305" y="262" type="line"/>
      <point x="1294" y="237"/>
      <point x="1262" y="201" type="qcurve" smooth="yes"/>
      <point x="1235" y="170"/>
      <point x="1202" y="147" type="qcurve" smooth="yes"/>
      <point x="1166" y="121"/>
      <point x="1048" y="84"/>
      <point x="983" y="84" type="qcurve" smooth="yes"/>
      <point x="799" y="84"/>
    </contour>
    <contour>
      <point x="1197" y="293" type="qcurve" smooth="yes"/>
      <point x="1276" y="382"/>
      <point x="1276" y="518" type="qcurve" smooth="yes"/>
      <point x="1276" y="653"/>
      <point x="1197" y="744" type="qcurve" smooth="yes"/>
      <point x="1117" y="834"/>
      <point x="983" y="834" type="qcurve" smooth="yes"/>
      <point x="850" y="834"/>
      <point x="774" y="744" type="qcurve" smooth="yes"/>
      <point x="698" y="653"/>
      <point x="698" y="518" type="qcurve" smooth="yes"/>
      <point x="698" y="380"/>
      <point x="774" y="292" type="qcurve" smooth="yes"/>
      <point x="851" y="203"/>
      <point x="983" y="203" type="qcurve" smooth="yes"/>
      <point x="1118" y="203"/>
    </contour>
  </outline>
</glyph>
<glyph name="B" format="2">
  <advance width="1488"/>
  <unicode hex="0042"/>
  <outline>
    <contour>
      <point x="1264" y="1055" type="qcurve" smooth="yes"/>
      <point x="1264" y="989"/>
      <point x="1222" y="875"/>
      <point x="1190" y="844" type="qcurve" smooth="yes"/>
      <point x="1120" y="774"/>
      <point x="1073" y="762" type="qcurve"/>
      <point x="1053" y="754" type="line"/>
      <point x="1053" y="748" type="line"/>
      <point x="1066" y="746"/>
      <point x="1085" y="742" type="qcurve" smooth="yes"/>
      <point x="1100" y="739"/>
      <point x="1154" y="714" type="qcurve" smooth="yes"/>
      <point x="1205" y="689"/>
      <point x="1243" y="657" type="qcurve" smooth="yes"/>
      <point x="1283" y="621"/>
      <point x="1314" y="554" type="qcurve" smooth="yes"/>
      <point x="1346" y="484"/>
      <point x="1346" y="399" type="qcurve" smooth="yes"/>
      <point x="1346" y="0"/>
      <point x="819" y="0" type="qcurve" smooth="yes"/>
      <point x="205" y="0" type="line"/>
      <point x="205" y="1434" type="line"/>
      <point x="805" y="1434" type="line" smooth="yes"/>
      <point x="1027" y="1434"/>
      <point x="1264" y="1238"/>
    </contour>
    <contour>
      <point x="819" y="676" type="qcurve" smooth="yes"/>
      <point x="340" y="676" type="line"/>
      <point x="340" y="123" type="line"/>
      <point x="819" y="123" type="line" smooth="yes"/>
      <point x="1206" y="123"/>
      <point x="1206" y="400" type="qcurve" smooth="yes"/>
      <point x="1206" y="676"/>
    </contour>
    <contour>
      <point x="340" y="1311" type="line"/>
      <point x="340" y="799" type="line"/>
      <point x="803" y="799" type="line" smooth="yes"/>
      <point x="964" y="799"/>
      <point x="1125" y="927"/>
      <point x="1124" y="1055" type="qcurve" smooth="yes"/>
      <point x="1124" y="1180"/>
      <point x="956" y="1311"/>
      <point x="803" y="1311" type="qcurve" smooth="yes"/>
    </contour>
  </outline>
</glyph>
<glyph name="D" format="2">
  <advance width="1568"/>
  <unicode hex="0044"/>
  <outline>
    <contour>
      <point x="205" y="1434" type="line"/>
      <point x="721" y="1434" type="line" smooth="yes"/>
      <point x="1040" y="1434"/>
      <point x="1233" y="1232" type="qcurve" smooth="yes"/>
      <point x="1425" y="1030"/>
      <point x="1425" y="717" type="qcurve" smooth="yes"/>
      <point x="1425" y="403"/>
      <point x="1233" y="202" type="qcurve" smooth="yes"/>
      <point x="1040" y="0"/>
      <point x="721" y="0" type="qcurve" smooth="yes"/>
      <point x="205" y="0" type="line"/>
    </contour>
    <contour>
      <point x="1134" y="291" type="qcurve" smooth="yes"/>
      <point x="1286" y="460"/>
      <point x="1286" y="974"/>
      <point x="1134" y="1143" type="qcurve" smooth="yes"/>
      <point x="981" y="1311"/>
      <point x="721" y="1311" type="qcurve" smooth="yes"/>
      <point x="340" y="1311" type="line"/>
      <point x="340" y="123" type="line"/>
      <point x="721" y="123" type="line" smooth="yes"/>
      <point x="981" y="123"/>
    </contour>
  </outline>
</glyph>
<glyph name="F" format="2">
  <advance width="1304"/>
  <unicode hex="0046"/>
  <outline>
    <contour>
      <point x="340" y="0" type="line"/>
      <point x="205" y="0" type="line"/>
      <point x="205" y="1434" type="line"/>
      <point x="1233" y="1434" type="line"/>
      <point x="1233" y="1311" type="line"/>
      <point x="340" y="1311" type="line"/>
      <point x="340" y="721" type="line"/>
      <point x="1090" y="721" type="line"/>
      <point x="1090" y="598" type="line"/>
      <point x="340" y="598" type="line"/>
    </contour>
  </outline>
</glyph>
<glyph name="G" format="2">
  <advance width="1718"/>
  <unicode hex="0047"/>
  <outline>
    <contour>
      <point x="1534" y="0" type="line"/>
      <point x="1403" y="0" type="line"/>
      <point x="1403" y="311" type="line"/>
      <point x="1397" y="311" type="line"/>
      <point x="1390" y="290"/>
      <point x="1383" y="276" type="qcurve" smooth="yes"/>
      <point x="1375" y="258"/>
      <point x="1328" y="197" type="qcurve" smooth="yes"/>
      <point x="1286" y="140"/>
      <point x="1228" y="95" type="qcurve" smooth="yes"/>
      <point x="1169" y="50"/>
      <point x="1067" y="16" type="qcurve" smooth="yes"/>
      <point x="964" y="-20"/>
      <point x="840" y="-20" type="qcurve" smooth="yes"/>
      <point x="527" y="-20"/>
      <point x="335" y="187" type="qcurve" smooth="yes"/>
      <point x="143" y="393"/>
      <point x="143" y="1041"/>
      <point x="336" y="1247" type="qcurve" smooth="yes"/>
      <point x="528" y="1454"/>
      <point x="850" y="1454" type="qcurve" smooth="yes"/>
      <point x="1016" y="1454"/>
      <point x="1148" y="1397" type="qcurve" smooth="yes"/>
      <point x="1279" y="1339"/>
      <point x="1350" y="1259" type="qcurve" smooth="yes"/>
      <point x="1417" y="1180"/>
      <point x="1509" y="1017"/>
      <point x="1522" y="958" type="qcurve" smooth="yes"/>
      <point x="1534" y="901" type="line"/>
      <point x="1393" y="901" type="line"/>
      <point x="1391" y="905" type="line"/>
      <point x="1385" y="930"/>
      <point x="1372" y="970" type="qcurve" smooth="yes"/>
      <point x="1360" y="1002"/>
      <point x="1318" y="1072" type="qcurve" smooth="yes"/>
      <point x="1275" y="1144"/>
      <point x="1222" y="1194" type="qcurve" smooth="yes"/>
      <point x="1166" y="1246"/>
      <point x="1069" y="1286" type="qcurve" smooth="yes"/>
      <point x="970" y="1327"/>
      <point x="850" y="1327" type="qcurve" smooth="yes"/>
      <point x="587" y="1327"/>
      <point x="436" y="1155" type="qcurve" smooth="yes"/>
      <point x="283" y="982"/>
      <point x="283" y="717" type="qcurve" smooth="yes"/>
      <point x="283" y="453"/>
      <point x="435" y="280" type="qcurve" smooth="yes"/>
      <point x="586" y="106"/>
      <point x="840" y="106" type="qcurve" smooth="yes"/>
      <point x="966" y="106"/>
      <point x="1068" y="153" type="qcurve" smooth="yes"/>
      <point x="1171" y="201"/>
      <point x="1226" y="263" type="qcurve" smooth="yes"/>
      <point x="1282" y="326"/>
      <point x="1319" y="401" type="qcurve" smooth="yes"/>
      <point x="1380" y="524"/>
      <point x="1380" y="598" type="qcurve"/>
      <point x="858" y="598" type="line"/>
      <point x="858" y="721" type="line"/>
      <point x="1534" y="721" type="line"/>
    </contour>
  </outline>
</glyph>
<glyph name="I" format="2">
  <advance width="1159"/>
  <unicode hex="0049"/>
  <outline>
    <contour>
      <point x="123" y="1434" type="line"/>
      <point x="1036" y="1434" type="line"/>
      <point x="1036" y="1311" type="line"/>
      <point x="647" y="1311" type="line"/>
      <point x="647" y="123" type="line"/>
      <point x="1036" y="123" type="line"/>
      <point x="1036" y="0" type="line"/>
      <point x="123" y="0" type="line"/>
      <point x="123" y="123" type="line"/>
      <point x="512" y="123" type="line"/>
      <point x="512" y="1311" type="line"/>
      <point x="123" y="1311" type="line"/>
    </contour>
  </outline>
</glyph>
<glyph name="K" format="2">
  <advance width="1314"/>
  <unicode hex="004B"/>
  <outline>
    <contour>
      <point x="1305" y="0" type="line"/>
      <point x="1128" y="0" type="line"/>
      <point x="340" y="715" type="line"/>
      <point x="340" y="0" type="line"/>
      <point x="205" y="0" type="line"/>
      <point x="205" y="1434" type="line"/>
      <point x="340" y="1434" type="line"/>
      <point x="340" y="735" type="line"/>
      <point x="1073" y="1434" type="line"/>
      <point x="1247" y="1434" type="line"/>
      <point x="518" y="725" type="line"/>
    </contour>
  </outline>
</glyph>
<glyph name="L" format="2">
  <advance width="1286"/>
  <unicode hex="004C"/>
  <outline>
    <contour>
      <point x="340" y="123" type="line"/>
      <point x="1245" y="123" type="line"/>
      <point x="1245" y="0" type="line"/>
      <point x="205" y="0" type="line"/>
      <point x="205" y="1434" type="line"/>
      <point x="340" y="1434" type="line"/>
    </contour>
  </outline>
</glyph>
<glyph name="M" format="2">
  <advance width="1835"/>
  <unicode hex="004D"/>
  <outline>
    <contour>
      <point x="1495" y="1280" type="line"/>
      <point x="1489" y="1280" type="line"/>
      <point x="1004" y="401" type="line"/>
      <point x="831" y="401" type="line"/>
      <point x="346" y="1280" type="line"/>
      <point x="340" y="1280" type="line"/>
      <point x="340" y="0" type="line"/>
      <point x="205" y="0" type="line"/>
      <point x="205" y="1434" type="line"/>
      <point x="416" y="1434" type="line"/>
      <point x="915" y="522" type="line"/>
      <point x="918" y="522" type="line"/>
      <point x="920" y="522" type="line"/>
      <point x="1419" y="1434" type="line"/>
      <point x="1630" y="1434" type="line"/>
      <point x="1630" y="0" type="line"/>
      <point x="1495" y="0" type="line"/>
    </contour>
  </outline>
</glyph>
<glyph name="N" format="2">
  <advance width="1611"/>
  <unicode hex="004E"/>
  <outline>
    <contour>
      <point x="1407" y="0" type="line"/>
      <point x="1196" y="0" type="line"/>
      <point x="344" y="1286" type="line"/>
      <point x="340" y="1286" type="line"/>
      <point x="340" y="0" type="line"/>
      <point x="205" y="0" type="line"/>
      <point x="205" y="1434" type="line"/>
      <point x="418" y="1434" type="line"/>
      <point x="1268" y="147" type="line"/>
      <point x="1272" y="147" type="line"/>
      <point x="1272" y="1434" type="line"/>
      <point x="1407" y="1434" type="line"/>
    </contour>
  </outline>
</glyph>
<glyph name="Q" format="2">
  <advance width="1695"/>
  <unicode hex="0051"/>
  <outline>
    <contour>
      <point x="335" y="187" type="qcurve" smooth="yes"/>
      <point x="143" y="393"/>
      <point x="143" y="717" type="qcurve" smooth="yes"/>
      <point x="143" y="1040"/>
      <point x="335" y="1247" type="qcurve" smooth="yes"/>
      <point x="526" y="1454"/>
      <point x="848" y="1454" type="qcurve" smooth="yes"/>
      <point x="1169" y="1454"/>
      <point x="1361" y="1247" type="qcurve" smooth="yes"/>
      <point x="1552" y="1039"/>
      <point x="1552" y="717" type="qcurve" smooth="yes"/>
      <point x="1552" y="436"/>
      <point x="1405" y="240" type="qcurve" smooth="yes"/>
      <point x="1256" y="43"/>
      <point x="1004" y="-6" type="qcurve"/>
      <point x="1006" y="-9"/>
      <point x="1021" y="-33" type="qcurve" smooth="yes"/>
      <point x="1029" y="-46"/>
      <point x="1076" y="-91" type="qcurve" smooth="yes"/>
      <point x="1120" y="-133"/>
      <point x="1175" y="-166" type="qcurve" smooth="yes"/>
      <point x="1229" y="-199"/>
      <point x="1324" y="-226" type="qcurve" smooth="yes"/>
      <point x="1420" y="-252"/>
      <point x="1528" y="-252" type="qcurve"/>
      <point x="1528" y="-379" type="line"/>
      <point x="1377" y="-379"/>
      <point x="1254" y="-342" type="qcurve" smooth="yes"/>
      <point x="1127" y="-304"/>
      <point x="1059" y="-253" type="qcurve" smooth="yes"/>
      <point x="990" y="-203"/>
      <point x="886" y="-96"/>
      <point x="866" y="-57" type="qcurve" smooth="yes"/>
      <point x="848" y="-20" type="line"/>
      <point x="526" y="-20"/>
    </contour>
    <contour>
      <point x="1260" y="279" type="qcurve" smooth="yes"/>
      <point x="1413" y="452"/>
      <point x="1413" y="982"/>
      <point x="1260" y="1155" type="qcurve" smooth="yes"/>
      <point x="1106" y="1327"/>
      <point x="590" y="1327"/>
      <point x="437" y="1155" type="qcurve" smooth="yes"/>
      <point x="283" y="983"/>
      <point x="283" y="451"/>
      <point x="437" y="279" type="qcurve" smooth="yes"/>
      <point x="590" y="106"/>
      <point x="848" y="106" type="qcurve" smooth="yes"/>
      <point x="1105" y="106"/>
    </contour>
  </outline>
</glyph>
<glyph name="U" format="2">
  <advance width="1564"/>
  <unicode hex="0055"/>
  <outline>
    <contour>
      <point x="1245" y="481" type="qcurve" smooth="yes"/>
      <point x="1245" y="1434" type="line"/>
      <point x="1380" y="1434" type="line"/>
      <point x="1380" y="475" type="line" smooth="yes"/>
      <point x="1380" y="230"/>
      <point x="1211" y="106" type="qcurve" smooth="yes"/>
      <point x="1042" y="-20"/>
      <point x="522" y="-20"/>
      <point x="353" y="106" type="qcurve" smooth="yes"/>
      <point x="184" y="230"/>
      <point x="184" y="475" type="qcurve" smooth="yes"/>
      <point x="184" y="1434" type="line"/>
      <point x="319" y="1434" type="line"/>
      <point x="319" y="481" type="line" smooth="yes"/>
      <point x="319" y="296"/>
      <point x="451" y="202" type="qcurve" smooth="yes"/>
      <point x="582" y="106"/>
      <point x="984" y="106"/>
      <point x="1114" y="202" type="qcurve" smooth="yes"/>
      <point x="1245" y="297"/>
    </contour>
  </outline>
</glyph>
<glyph name="V" format="2">
  <advance width="1363"/>
  <unicode hex="0056"/>
  <outline>
    <contour>
      <point x="1169" y="1434" type="line"/>
      <point x="1313" y="1434" type="line"/>
      <point x="778" y="0" type="line"/>
      <point x="586" y="0" type="line"/>
      <point x="51" y="1434" type="line"/>
      <point x="195" y="1434" type="line"/>
      <point x="678" y="139" type="line"/>
      <point x="686" y="139" type="line"/>
    </contour>
  </outline>
</glyph>
<glyph name="W" format="2">
  <advance width="2068"/>
  <unicode hex="0057"/>
  <outline>
    <contour>
      <point x="932" y="1434" type="line"/>
      <point x="1137" y="1434" type="line"/>
      <point x="1491" y="160" type="line"/>
      <point x="1499" y="160" type="line"/>
      <point x="1845" y="1434" type="line"/>
      <point x="1987" y="1434" type="line"/>
      <point x="1597" y="0" type="line"/>
      <point x="1393" y="0" type="line"/>
      <point x="1036" y="1282" type="line"/>
      <point x="1032" y="1282" type="line"/>
      <point x="676" y="0" type="line"/>
      <point x="471" y="0" type="line"/>
      <point x="82" y="1434" type="line"/>
      <point x="223" y="1434" type="line"/>
      <point x="569" y="160" type="line"/>
      <point x="578" y="160" type="line"/>
    </contour>
  </outline>
</glyph>
<glyph name="X" format="2">
  <advance width="1302"/>
  <unicode hex="0058"/>
  <outline>
    <contour>
      <point x="1063" y="1434" type="line"/>
      <point x="1219" y="1434" type="line"/>
      <point x="729" y="745" type="line"/>
      <point x="1262" y="0" type="line"/>
      <point x="1106" y="0" type="line"/>
      <point x="651" y="637" type="line"/>
      <point x="197" y="0" type="line"/>
      <point x="41" y="0" type="line"/>
      <point x="573" y="745" type="line"/>
      <point x="84" y="1434" type="line"/>
      <point x="240" y="1434" type="line"/>
      <point x="651" y="856" type="line"/>
    </contour>
  </outline>
</glyph>
<glyph name="Y" format="2">
  <advance width="1345"/>
  <unicode hex="0059"/>
  <outline>
    <contour>
      <point x="745" y="0" type="line"/>
      <point x="600" y="0" type="line"/>
      <point x="600" y="541" type="line"/>
      <point x="41" y="1434" type="line"/>
      <point x="193" y="1434" type="line"/>
      <point x="670" y="674" type="line"/>
      <point x="676" y="674" type="line"/>
      <point x="1153" y="1434" type="line"/>
      <point x="1305" y="1434" type="line"/>
      <point x="745" y="541" type="line"/>
    </contour>
  </outline>
</glyph>
<glyph name="bracketleft" format="2">
  <advance width="731"/>
  <unicode hex="005B"/>
  <outline>
    <contour>
      <point x="332" y="-393" type="line"/>
      <point x="690" y="-393" type="line"/>
      <point x="690" y="-512" type="line"/>
      <point x="205" y="-512" type="line"/>
      <point x="205" y="1659" type="line"/>
      <point x="690" y="1659" type="line"/>
      <point x="690" y="1540" type="line"/>
      <point x="332" y="1540" type="line"/>
    </contour>
  </outline>
</glyph>
<glyph name="backslash" format="2">
  <advance width="907"/>
  <unicode hex="005C"/>
  <outline>
    <contour>
      <point x="0" y="1434" type="line"/>
      <point x="127" y="1434" type="line"/>
      <point x="907" y="-246" type="line"/>
      <point x="780" y="-246" type="line"/>
    </contour>
  </outline>
</glyph>
<glyph name="bracketright" format="2">
  <advance width="731"/>
  <unicode hex="005D"/>
  <outline>
    <contour>
      <point x="526" y="-512" type="line"/>
      <point x="41" y="-512" type="line"/>
      <point x="41" y="-393" type="line"/>
      <point x="399" y="-393" type="line"/>
      <point x="399" y="1540" type="line"/>
      <point x="41" y="1540" type="line"/>
      <point x="41" y="1659" type="line"/>
      <point x="526" y="1659" type="line"/>
    </contour>
  </outline>
</glyph>
<glyph name="asciicircum" format="2">
  <advance width="1107"/>
  <unicode hex="005E"/>
  <outline>
    <contour>
      <point x="473" y="1434" type="line"/>
      <point x="635" y="1434" type="line"/>
      <point x="1016" y="717" type="line"/>
      <point x="879" y="717" type="line"/>
      <point x="555" y="1327" type="line"/>
      <point x="553" y="1327" type="line"/>
      <point x="229" y="717" type="line"/>
      <point x="92" y="717" type="line"/>
    </contour>
  </outline>
</glyph>
<glyph name="underscore" format="2">
  <advance width="899"/>
  <unicode hex="005F"/>
  <outline>
    <contour>
      <point x="-41" y="-131" type="line"/>
      <point x="940" y="-131" type="line"/>
      <point x="940" y="-250" type="line"/>
      <point x="-41" y="-250" type="line"/>
    </contour>
  </outline>
</glyph>
<glyph name="grave" format="2">
  <advance width="598"/>
  <unicode hex="0060"/>
  <outline>
    <contour>
      <point x="61" y="1524" type="line"/>
      <point x="229" y="1524" type="line"/>
      <point x="537" y="1196" type="line"/>
      <point x="410" y="1196" type="line"/>
    </contour>
  </outline>
</glyph>
<glyph name="b" format="2">
  <advance width="1376"/>
  <unicode hex="0062"/>
  <outline>
    <contour>
      <point x="717" y="-20" type="qcurve" smooth="yes"/>
      <point x="455" y="-24"/>
      <point x="313" y="166" type="qcurve"/>
      <point x="309" y="172" type="line"/>
      <point x="301" y="172" type="line"/>
      <point x="301" y="0" type="line"/>
      <point x="174" y="0" type="line"/>
      <point x="174" y="1434" type="line"/>
      <point x="301" y="1434" type="line"/>
      <point x="301" y="831" type="line"/>
      <point x="309" y="831" type="line"/>
      <point x="313" y="838" type="line"/>
      <point x="459" y="1027"/>
      <point x="717" y="1024" type="qcurve" smooth="yes"/>
      <point x="943" y="1024"/>
      <point x="1094" y="878" type="qcurve" smooth="yes"/>
      <point x="1243" y="731"/>
      <point x="1243" y="502" type="qcurve" smooth="yes"/>
      <point x="1243" y="272"/>
      <point x="1094" y="126" type="qcurve" smooth="yes"/>
      <point x="943" y="-20"/>
    </contour>
    <contour>
      <point x="1112" y="332"/>
      <point x="1112" y="672"/>
      <point x="1000" y="787" type="qcurve" smooth="yes"/>
      <point x="888" y="901"/>
      <point x="707" y="901" type="qcurve" smooth="yes"/>
      <point x="529" y="901"/>
      <point x="415" y="790" type="qcurve" smooth="yes"/>
      <point x="301" y="678"/>
      <point x="301" y="326"/>
      <point x="415" y="214" type="qcurve" smooth="yes"/>
      <point x="527" y="102"/>
      <point x="707" y="102" type="qcurve" smooth="yes"/>
      <point x="888" y="102"/>
    </contour>
  </outline>
</glyph>
<glyph name="c" format="2">
  <advance width="1312"/>
  <unicode hex="0063"/>
  <outline>
    <contour>
      <point x="283" y="125" type="qcurve" smooth="yes"/>
      <point x="133" y="270"/>
      <point x="133" y="734"/>
      <point x="283" y="879" type="qcurve" smooth="yes"/>
      <point x="431" y="1024"/>
      <point x="666" y="1024" type="qcurve" smooth="yes"/>
      <point x="768" y="1024"/>
      <point x="952" y="963"/>
      <point x="1013" y="913" type="qcurve" smooth="yes"/>
      <point x="1071" y="864"/>
      <point x="1113" y="807" type="qcurve" smooth="yes"/>
      <point x="1190" y="702"/>
      <point x="1190" y="614" type="qcurve"/>
      <point x="1057" y="614" type="line"/>
      <point x="1057" y="636"/>
      <point x="1014" y="722"/>
      <point x="974" y="772" type="qcurve" smooth="yes"/>
      <point x="930" y="826"/>
      <point x="850" y="863" type="qcurve" smooth="yes"/>
      <point x="766" y="901"/>
      <point x="666" y="901" type="qcurve" smooth="yes"/>
      <point x="486" y="901"/>
      <point x="375" y="787" type="qcurve" smooth="yes"/>
      <point x="264" y="672"/>
      <point x="264" y="332"/>
      <point x="375" y="217" type="qcurve" smooth="yes"/>
      <point x="484" y="102"/>
      <point x="666" y="102" type="qcurve" smooth="yes"/>
      <point x="766" y="102"/>
      <point x="850" y="140" type="qcurve" smooth="yes"/>
      <point x="931" y="177"/>
      <point x="974" y="232" type="qcurve" smooth="yes"/>
      <point x="1057" y="337"/>
      <point x="1057" y="389" type="qcurve"/>
      <point x="1190" y="389" type="line"/>
      <point x="1193" y="332"/>
      <point x="1098" y="160"/>
      <point x="1013" y="91" type="qcurve" smooth="yes"/>
      <point x="952" y="41"/>
      <point x="768" y="-20"/>
      <point x="666" y="-20" type="qcurve" smooth="yes"/>
      <point x="432" y="-20"/>
    </contour>
  </outline>
</glyph>
<glyph name="f" format="2">
  <advance width="737"/>
  <unicode hex="0066"/>
  <outline>
    <contour>
      <point x="352" y="1055" type="qcurve" smooth="yes"/>
      <point x="352" y="1004" type="line"/>
      <point x="678" y="1004" type="line"/>
      <point x="678" y="885" type="line"/>
      <point x="352" y="885" type="line"/>
      <point x="352" y="0" type="line"/>
      <point x="225" y="0" type="line"/>
      <point x="225" y="885" type="line"/>
      <point x="51" y="885" type="line"/>
      <point x="51" y="1004" type="line"/>
      <point x="225" y="1004" type="line"/>
      <point x="225" y="1065" type="line" smooth="yes"/>
      <point x="225" y="1262"/>
      <point x="322" y="1358" type="qcurve" smooth="yes"/>
      <point x="418" y="1454"/>
      <point x="573" y="1454" type="qcurve" smooth="yes"/>
      <point x="626" y="1454"/>
      <point x="730" y="1434"/>
      <point x="756" y="1421" type="qcurve" smooth="yes"/>
      <point x="778" y="1409" type="line"/>
      <point x="778" y="1286" type="line"/>
      <point x="711" y="1335"/>
      <point x="584" y="1335" type="qcurve" smooth="yes"/>
      <point x="468" y="1336"/>
      <point x="352" y="1195"/>
    </contour>
  </outline>
</glyph>
<glyph name="g" format="2">
  <advance width="1167"/>
  <unicode hex="0067"/>
  <outline>
    <contour>
      <point x="129" y="694" type="qcurve" smooth="yes"/>
      <point x="129" y="850"/>
      <point x="369" y="1024"/>
      <point x="563" y="1024" type="qcurve" smooth="yes"/>
      <point x="1116" y="1024" type="line"/>
      <point x="1116" y="901" type="line"/>
      <point x="897" y="901" type="line"/>
      <point x="897" y="895" type="line"/>
      <point x="908" y="889"/>
      <point x="924" y="877" type="qcurve" smooth="yes"/>
      <point x="939" y="865"/>
      <point x="968" y="813" type="qcurve" smooth="yes"/>
      <point x="995" y="762"/>
      <point x="995" y="694" type="qcurve" smooth="yes"/>
      <point x="995" y="541"/>
      <point x="876" y="455" type="qcurve" smooth="yes"/>
      <point x="755" y="369"/>
      <point x="563" y="369" type="qcurve" smooth="yes"/>
      <point x="293" y="369"/>
      <point x="293" y="270" type="qcurve" smooth="yes"/>
      <point x="293" y="220"/>
      <point x="370" y="194" type="qcurve" smooth="yes"/>
      <point x="448" y="168"/>
      <point x="563" y="168" type="qcurve" smooth="yes"/>
      <point x="783" y="168"/>
      <point x="1055" y="4"/>
      <point x="1055" y="-131" type="qcurve" smooth="yes"/>
      <point x="1055" y="-268"/>
      <point x="920" y="-349" type="qcurve" smooth="yes"/>
      <point x="784" y="-430"/>
      <point x="563" y="-430" type="qcurve" smooth="yes"/>
      <point x="343" y="-430"/>
      <point x="207" y="-350" type="qcurve" smooth="yes"/>
      <point x="72" y="-270"/>
      <point x="72" y="-131" type="qcurve" smooth="yes"/>
      <point x="72" y="-82"/>
      <point x="114" y="11"/>
      <point x="147" y="40" type="qcurve" smooth="yes"/>
      <point x="211" y="96"/>
      <point x="262" y="117" type="qcurve" smooth="yes"/>
      <point x="285" y="125" type="line"/>
      <point x="285" y="129" type="line" smooth="yes"/>
      <point x="284" y="129"/>
      <point x="266" y="134"/>
      <point x="260" y="136"/>
      <point x="241" y="144"/>
      <point x="227" y="154"/>
      <point x="207" y="172"/>
      <point x="196" y="184" type="qcurve" smooth="yes"/>
      <point x="162" y="221"/>
      <point x="162" y="270" type="qcurve" smooth="yes"/>
      <point x="162" y="318"/>
      <point x="198" y="356" type="qcurve" smooth="yes"/>
      <point x="231" y="392"/>
      <point x="270" y="406" type="qcurve" smooth="yes"/>
      <point x="305" y="420" type="line"/>
      <point x="305" y="424" type="line"/>
      <point x="276" y="435"/>
      <point x="245" y="458" type="qcurve" smooth="yes"/>
      <point x="213" y="480"/>
      <point x="192" y="507" type="qcurve" smooth="yes"/>
      <point x="166" y="537"/>
      <point x="129" y="638"/>
    </contour>
    <contour>
      <point x="924" y="-131" type="qcurve" smooth="yes"/>
      <point x="924" y="-54"/>
      <point x="825" y="-4" type="qcurve" smooth="yes"/>
      <point x="726" y="45"/>
      <point x="563" y="45" type="qcurve" smooth="yes"/>
      <point x="397" y="45"/>
      <point x="203" y="-53"/>
      <point x="203" y="-131" type="qcurve" smooth="yes"/>
      <point x="203" y="-213"/>
      <point x="301" y="-260" type="qcurve" smooth="yes"/>
      <point x="400" y="-307"/>
      <point x="563" y="-307" type="qcurve" smooth="yes"/>
      <point x="724" y="-307"/>
      <point x="825" y="-259" type="qcurve" smooth="yes"/>
      <point x="924" y="-211"/>
    </contour>
    <contour>
      <point x="864" y="594"/>
      <point x="864" y="695" type="qcurve" smooth="yes"/>
      <point x="864" y="795"/>
      <point x="698" y="901"/>
      <point x="563" y="901" type="qcurve" smooth="yes"/>
      <point x="426" y="901"/>
      <point x="260" y="795"/>
      <point x="260" y="694" type="qcurve" smooth="yes"/>
      <point x="260" y="597"/>
      <point x="422" y="492"/>
      <point x="563" y="492" type="qcurve" smooth="yes"/>
      <point x="698" y="492"/>
    </contour>
  </outline>
</glyph>
<glyph name="k" format="2">
  <advance width="1093"/>
  <unicode hex="006B"/>
  <outline>
    <contour>
      <point x="1094" y="0" type="line"/>
      <point x="924" y="0" type="line"/>
      <point x="301" y="512" type="line"/>
      <point x="301" y="0" type="line"/>
      <point x="174" y="0" type="line"/>
      <point x="174" y="1434" type="line"/>
      <point x="301" y="1434" type="line"/>
      <point x="301" y="520" type="line"/>
      <point x="883" y="1004" type="line"/>
      <point x="1053" y="1004" type="line"/>
      <point x="471" y="516" type="line"/>
    </contour>
  </outline>
</glyph>
<glyph name="l" format="2">
  <advance width="475"/>
  <unicode hex="006C"/>
  <outline>
    <contour>
      <point x="174" y="1434" type="line"/>
      <point x="301" y="1434" type="line"/>
      <point x="301" y="0" type="line"/>
      <point x="174" y="0" type="line"/>
    </contour>
  </outline>
</glyph>
<glyph name="m" format="2">
  <advance width="1861"/>
  <unicode hex="006D"/>
  <outline>
    <contour>
      <point x="1698" y="0" type="line"/>
      <point x="1571" y="0" type="line"/>
      <point x="1571" y="543" type="line" smooth="yes"/>
      <point x="1571" y="725"/>
      <point x="1428" y="908"/>
      <point x="1286" y="907" type="qcurve" smooth="yes"/>
      <point x="1145" y="907"/>
      <point x="999" y="720"/>
      <point x="999" y="549" type="qcurve" smooth="yes"/>
      <point x="999" y="0" type="line"/>
      <point x="872" y="0" type="line"/>
      <point x="872" y="551" type="line" smooth="yes"/>
      <point x="872" y="907"/>
      <point x="586" y="907" type="qcurve" smooth="yes"/>
      <point x="446" y="907"/>
      <point x="301" y="721"/>
      <point x="301" y="549" type="qcurve" smooth="yes"/>
      <point x="301" y="0" type="line"/>
      <point x="174" y="0" type="line"/>
      <point x="174" y="1004" type="line"/>
      <point x="301" y="1004" type="line"/>
      <point x="301" y="856" type="line"/>
      <point x="307" y="856" type="line"/>
      <point x="317" y="882"/>
      <point x="343" y="915" type="qcurve" smooth="yes"/>
      <point x="366" y="943"/>
      <point x="399" y="966" type="qcurve" smooth="yes"/>
      <point x="435" y="990"/>
      <point x="552" y="1024"/>
      <point x="618" y="1024" type="qcurve" smooth="yes"/>
      <point x="683" y="1024"/>
      <point x="797" y="983"/>
      <point x="833" y="952" type="qcurve" smooth="yes"/>
      <point x="899" y="892"/>
      <point x="922" y="840" type="qcurve" smooth="yes"/>
      <point x="932" y="817" type="line"/>
      <point x="940" y="817" type="line"/>
      <point x="947" y="842"/>
      <point x="984" y="890" type="qcurve" smooth="yes"/>
      <point x="1013" y="927"/>
      <point x="1048" y="953" type="qcurve" smooth="yes"/>
      <point x="1085" y="980"/>
      <point x="1150" y="1002" type="qcurve" smooth="yes"/>
      <point x="1216" y="1024"/>
      <point x="1294" y="1024" type="qcurve" smooth="yes"/>
      <point x="1489" y="1024"/>
      <point x="1698" y="793"/>
      <point x="1698" y="567" type="qcurve" smooth="yes"/>
    </contour>
  </outline>
</glyph>
<glyph name="q" format="2">
  <advance width="1376"/>
  <unicode hex="0071"/>
  <outline>
    <contour>
      <point x="659" y="1024" type="qcurve" smooth="yes"/>
      <point x="914" y="1027"/>
      <point x="1059" y="843" type="qcurve" smooth="yes"/>
      <point x="1061" y="841"/>
      <point x="1062" y="839"/>
      <point x="1063" y="838" type="qcurve" smooth="yes"/>
      <point x="1067" y="831" type="line"/>
      <point x="1075" y="831" type="line"/>
      <point x="1075" y="1004" type="line"/>
      <point x="1202" y="1004" type="line"/>
      <point x="1202" y="-410" type="line"/>
      <point x="1075" y="-410" type="line"/>
      <point x="1075" y="172" type="line"/>
      <point x="1067" y="172" type="line"/>
      <point x="1063" y="166" type="line"/>
      <point x="915" y="-24"/>
      <point x="659" y="-20" type="qcurve" smooth="yes"/>
      <point x="432" y="-20"/>
      <point x="283" y="126" type="qcurve" smooth="yes"/>
      <point x="133" y="272"/>
      <point x="133" y="502" type="qcurve" smooth="yes"/>
      <point x="133" y="731"/>
      <point x="283" y="878" type="qcurve" smooth="yes"/>
      <point x="432" y="1024"/>
    </contour>
    <contour>
      <point x="377" y="787" type="qcurve" smooth="yes"/>
      <point x="264" y="671"/>
      <point x="264" y="333"/>
      <point x="377" y="217" type="qcurve" smooth="yes"/>
      <point x="489" y="102"/>
      <point x="670" y="102" type="qcurve" smooth="yes"/>
      <point x="849" y="102"/>
      <point x="962" y="214" type="qcurve" smooth="yes"/>
      <point x="1075" y="327"/>
      <point x="1075" y="677"/>
      <point x="962" y="790" type="qcurve" smooth="yes"/>
      <point x="848" y="901"/>
      <point x="670" y="901" type="qcurve" smooth="yes"/>
      <point x="490" y="901"/>
    </contour>
  </outline>
</glyph>
<glyph name="t" format="2">
  <advance width="860"/>
  <unicode hex="0074"/>
  <outline>
    <contour>
      <point x="225" y="358" type="qcurve" smooth="yes"/>
      <point x="225" y="885" type="line"/>
      <point x="51" y="885" type="line"/>
      <point x="51" y="1004" type="line"/>
      <point x="225" y="1004" type="line"/>
      <point x="225" y="1229" type="line"/>
      <point x="352" y="1229" type="line"/>
      <point x="352" y="1004" type="line"/>
      <point x="737" y="1004" type="line"/>
      <point x="737" y="885" type="line"/>
      <point x="352" y="885" type="line"/>
      <point x="352" y="373" type="line" smooth="yes"/>
      <point x="352" y="99"/>
      <point x="584" y="98" type="qcurve" smooth="yes"/>
      <point x="636" y="98"/>
      <point x="734" y="121"/>
      <point x="758" y="135" type="qcurve" smooth="yes"/>
      <point x="778" y="147" type="line"/>
      <point x="778" y="27" type="line"/>
      <point x="704" y="-20"/>
      <point x="573" y="-20" type="qcurve" smooth="yes"/>
      <point x="416" y="-20"/>
      <point x="321" y="74" type="qcurve" smooth="yes"/>
      <point x="225" y="168"/>
    </contour>
  </outline>
</glyph>
<glyph name="v" format="2">
  <advance width="1114"/>
  <unicode hex="0076"/>
  <outline>
    <contour>
      <point x="942" y="1004" type="line"/>
      <point x="1073" y="1004" type="line"/>
      <point x="649" y="0" type="line"/>
      <point x="465" y="0" type="line"/>
      <point x="41" y="1004" type="line"/>
      <point x="172" y="1004" type="line"/>
      <point x="555" y="98" type="line"/>
      <point x="559" y="98" type="line"/>
    </contour>
  </outline>
</glyph>
<glyph name="w" format="2">
  <advance width="1624"/>
  <unicode hex="0077"/>
  <outline>
    <contour>
      <point x="1272" y="0" type="line"/>
      <point x="1104" y="0" type="line"/>
      <point x="815" y="874" type="line"/>
      <point x="809" y="874" type="line"/>
      <point x="520" y="0" type="line"/>
      <point x="352" y="0" type="line"/>
      <point x="51" y="1004" type="line"/>
      <point x="178" y="1004" type="line"/>
      <point x="436" y="127" type="line"/>
      <point x="440" y="127" type="line"/>
      <point x="729" y="1004" type="line"/>
      <point x="895" y="1004" type="line"/>
      <point x="1184" y="127" type="line"/>
      <point x="1188" y="127" type="line"/>
      <point x="1446" y="1004" type="line"/>
      <point x="1573" y="1004" type="line"/>
    </contour>
  </outline>
</glyph>
<glyph name="y" format="2">
  <advance width="1095"/>
  <unicode hex="0079"/>
  <outline>
    <contour>
      <point x="0" y="1004" type="line"/>
      <point x="137" y="1004" type="line"/>
      <point x="549" y="115" type="line"/>
      <point x="555" y="115" type="line"/>
      <point x="961" y="1004" type="line"/>
      <point x="1096" y="1004" type="line"/>
      <point x="610" y="-51" type="line" smooth="yes"/>
      <point x="519" y="-248"/>
      <point x="438" y="-338" type="qcurve" smooth="yes"/>
      <point x="355" y="-430"/>
      <point x="246" y="-430" type="qcurve" smooth="yes"/>
      <point x="181" y="-430"/>
      <point x="141" y="-414" type="qcurve"/>
      <point x="127" y="-410" type="line"/>
      <point x="127" y="-291" type="line"/>
      <point x="169" y="-311"/>
      <point x="246" y="-311" type="qcurve" smooth="yes"/>
      <point x="308" y="-311"/>
      <point x="361" y="-251" type="qcurve" smooth="yes"/>
      <point x="413" y="-188"/>
      <point x="475" y="-51" type="qcurve" smooth="yes"/>
      <point x="483" y="-33" type="line"/>
    </contour>
  </outline>
</glyph>
<glyph name="z" format="2">
  <advance width="1083"/>
  <unicode hex="007A"/>
  <outline>
    <contour>
      <point x="819" y="885" type="line"/>
      <point x="119" y="885" type="line"/>
      <point x="119" y="1004" type="line"/>
      <point x="981" y="1004" type="line"/>
      <point x="981" y="879" type="line"/>
      <point x="244" y="123" type="line"/>
      <point x="244" y="119" type="line"/>
      <point x="1001" y="119" type="line"/>
      <point x="1001" y="0" type="line"/>
      <point x="82" y="0" type="line"/>
      <point x="82" y="125" type="line"/>
      <point x="819" y="881" type="line"/>
    </contour>
  </outline>
</glyph>
<glyph name="braceleft" format="2">
  <advance width="794"/>
  <unicode hex="007B"/>
  <outline>
    <contour>
      <point x="305" y="582" type="qcurve"/>
      <point x="291" y="575" type="line"/>
      <point x="291" y="571" type="line"/>
      <point x="319" y="561"/>
      <point x="339" y="546" type="qcurve" smooth="yes"/>
      <point x="362" y="528"/>
      <point x="381" y="504" type="qcurve" smooth="yes"/>
      <point x="430" y="437"/>
      <point x="430" y="326" type="qcurve" smooth="yes"/>
      <point x="430" y="-90" type="line" smooth="yes"/>
      <point x="430" y="-255"/>
      <point x="493" y="-335" type="qcurve" smooth="yes"/>
      <point x="554" y="-414"/>
      <point x="715" y="-414" type="qcurve" smooth="yes"/>
      <point x="754" y="-414" type="line"/>
      <point x="754" y="-532" type="line"/>
      <point x="715" y="-532" type="line" smooth="yes"/>
      <point x="496" y="-532"/>
      <point x="400" y="-420" type="qcurve" smooth="yes"/>
      <point x="303" y="-308"/>
      <point x="303" y="-57" type="qcurve" smooth="yes"/>
      <point x="303" y="311" type="line" smooth="yes"/>
      <point x="303" y="409"/>
      <point x="209" y="514"/>
      <point x="123" y="514" type="qcurve"/>
      <point x="123" y="633" type="line"/>
      <point x="210" y="633"/>
      <point x="303" y="737"/>
      <point x="303" y="836" type="qcurve" smooth="yes"/>
      <point x="303" y="1204" type="line" smooth="yes"/>
      <point x="303" y="1455"/>
      <point x="400" y="1567" type="qcurve" smooth="yes"/>
      <point x="496" y="1679"/>
      <point x="715" y="1679" type="qcurve" smooth="yes"/>
      <point x="754" y="1679" type="line"/>
      <point x="754" y="1561" type="line"/>
      <point x="715" y="1561" type="line" smooth="yes"/>
      <point x="554" y="1561"/>
      <point x="493" y="1482" type="qcurve" smooth="yes"/>
      <point x="430" y="1402"/>
      <point x="430" y="1237" type="qcurve" smooth="yes"/>
      <point x="430" y="821" type="line" smooth="yes"/>
      <point x="430" y="706"/>
      <point x="381" y="642" type="qcurve" smooth="yes"/>
      <point x="340" y="591"/>
    </contour>
  </outline>
</glyph>
<glyph name="bar" format="2">
  <advance width="737"/>
  <unicode hex="007C"/>
  <outline>
    <contour>
      <point x="430" y="-532" type="line"/>
      <point x="307" y="-532" type="line"/>
      <point x="307" y="1577" type="line"/>
      <point x="430" y="1577" type="line"/>
    </contour>
  </outline>
</glyph>
<glyph name="braceright" format="2">
  <advance width="794"/>
  <unicode hex="007D"/>
  <outline>
    <contour>
      <point x="489" y="565" type="qcurve"/>
      <point x="504" y="571" type="line"/>
      <point x="504" y="575" type="line"/>
      <point x="478" y="585"/>
      <point x="456" y="601" type="qcurve" smooth="yes"/>
      <point x="432" y="618"/>
      <point x="414" y="643" type="qcurve" smooth="yes"/>
      <point x="365" y="708"/>
      <point x="365" y="821" type="qcurve" smooth="yes"/>
      <point x="365" y="1237" type="line" smooth="yes"/>
      <point x="365" y="1402"/>
      <point x="303" y="1482" type="qcurve" smooth="yes"/>
      <point x="240" y="1561"/>
      <point x="80" y="1561" type="qcurve" smooth="yes"/>
      <point x="41" y="1561" type="line"/>
      <point x="41" y="1679" type="line"/>
      <point x="80" y="1679" type="line" smooth="yes"/>
      <point x="299" y="1679"/>
      <point x="396" y="1567" type="qcurve" smooth="yes"/>
      <point x="492" y="1454"/>
      <point x="492" y="1204" type="qcurve" smooth="yes"/>
      <point x="492" y="836" type="line" smooth="yes"/>
      <point x="492" y="738"/>
      <point x="586" y="633"/>
      <point x="672" y="633" type="qcurve"/>
      <point x="672" y="514" type="line"/>
      <point x="585" y="514"/>
      <point x="492" y="410"/>
      <point x="492" y="311" type="qcurve" smooth="yes"/>
      <point x="492" y="-57" type="line" smooth="yes"/>
      <point x="492" y="-308"/>
      <point x="396" y="-420" type="qcurve" smooth="yes"/>
      <point x="299" y="-532"/>
      <point x="80" y="-532" type="qcurve" smooth="yes"/>
      <point x="41" y="-532" type="line"/>
      <point x="41" y="-414" type="line"/>
      <point x="80" y="-414" type="line" smooth="yes"/>
      <point x="240" y="-414"/>
      <point x="303" y="-335" type="qcurve" smooth="yes"/>
      <point x="365" y="-255"/>
      <point x="365" y="-90" type="qcurve" smooth="yes"/>
      <point x="365" y="326" type="line" smooth="yes"/>
      <point x="365" y="446"/>
      <point x="414" y="505" type="qcurve" smooth="yes"/>
      <point x="454" y="556"/>
    </contour>
  </outline>
</glyph>
<glyph name="asciitilde" format="2">
  <advance width="1171"/>
  <unicode hex="007E"/>
  <outline>
    <contour>
      <point x="823" y="565" type="qcurve" smooth="yes"/>
      <point x="769" y="565"/>
      <point x="711" y="533" type="qcurve" smooth="yes"/>
      <point x="655" y="502"/>
      <point x="610" y="461" type="qcurve" smooth="yes"/>
      <point x="565" y="421"/>
      <point x="494" y="389" type="qcurve" smooth="yes"/>
      <point x="420" y="356"/>
      <point x="334" y="356" type="qcurve" smooth="yes"/>
      <point x="237" y="356"/>
      <point x="169" y="412" type="qcurve" smooth="yes"/>
      <point x="102" y="467"/>
      <point x="102" y="573" type="qcurve" smooth="yes"/>
      <point x="102" y="625"/>
      <point x="115" y="659" type="qcurve" smooth="yes"/>
      <point x="121" y="672" type="line"/>
      <point x="244" y="672" type="line"/>
      <point x="231" y="644"/>
      <point x="229" y="592" type="qcurve" smooth="yes"/>
      <point x="229" y="537"/>
      <point x="291" y="475"/>
      <point x="348" y="475" type="qcurve" smooth="yes"/>
      <point x="403" y="475"/>
      <point x="460" y="508" type="qcurve" smooth="yes"/>
      <point x="518" y="543"/>
      <point x="560" y="580" type="qcurve" smooth="yes"/>
      <point x="604" y="618"/>
      <point x="752" y="684"/>
      <point x="838" y="684" type="qcurve" smooth="yes"/>
      <point x="936" y="684"/>
      <point x="1003" y="629" type="qcurve" smooth="yes"/>
      <point x="1069" y="574"/>
      <point x="1069" y="469" type="qcurve" smooth="yes"/>
      <point x="1069" y="412"/>
      <point x="1057" y="381" type="qcurve" smooth="yes"/>
      <point x="1051" y="369" type="line"/>
      <point x="928" y="369" type="line"/>
      <point x="942" y="402"/>
      <point x="942" y="449" type="qcurve" smooth="yes"/>
      <point x="942" y="565"/>
    </contour>
  </outline>
</glyph>
<glyph name="exclamdown" format="2">
  <advance width="544"/>
  <unicode hex="00A1"/>
  <outline>
    <contour>
      <point x="205" y="-410" type="line"/>
      <point x="205" y="-102" type="line"/>
      <point x="225" y="618" type="line"/>
      <point x="319" y="618" type="line"/>
      <point x="340" y="-102" type="line"/>
      <point x="340" y="-410" type="line"/>
    </contour>
    <contour>
      <point x="209" y="879" type="qcurve" smooth="yes"/>
      <point x="184" y="901"/>
      <point x="184" y="940" type="qcurve" smooth="yes"/>
      <point x="184" y="980"/>
      <point x="209" y="1002" type="qcurve" smooth="yes"/>
      <point x="232" y="1024"/>
      <point x="272" y="1024" type="qcurve" smooth="yes"/>
      <point x="311" y="1024"/>
      <point x="336" y="1002" type="qcurve" smooth="yes"/>
      <point x="360" y="980"/>
      <point x="360" y="940" type="qcurve" smooth="yes"/>
      <point x="360" y="902"/>
      <point x="336" y="879" type="qcurve" smooth="yes"/>
      <point x="310" y="856"/>
      <point x="234" y="856"/>
    </contour>
  </outline>
</glyph>
<glyph name="cent" format="2">
  <advance width="1312"/>
  <unicode hex="00A2"/>
  <outline>
    <contour>
      <point x="729" y="-246" type="line"/>
      <point x="602" y="-246" type="line"/>
      <point x="602" y="-16" type="line"/>
      <point x="394" y="4"/>
      <point x="263" y="146" type="qcurve" smooth="yes"/>
      <point x="133" y="286"/>
      <point x="133" y="502" type="qcurve" smooth="yes"/>
      <point x="133" y="715"/>
      <point x="393" y="999"/>
      <point x="602" y="1020" type="qcurve"/>
      <point x="602" y="1249" type="line"/>
      <point x="729" y="1249" type="line"/>
      <point x="729" y="1020" type="line"/>
      <point x="843" y="1010"/>
      <point x="938" y="960" type="qcurve" smooth="yes"/>
      <point x="1031" y="910"/>
      <point x="1084" y="845" type="qcurve" smooth="yes"/>
      <point x="1190" y="711"/>
      <point x="1190" y="614" type="qcurve"/>
      <point x="1057" y="614" type="line"/>
      <point x="1057" y="636"/>
      <point x="1014" y="722"/>
      <point x="974" y="772" type="qcurve" smooth="yes"/>
      <point x="930" y="826"/>
      <point x="850" y="863" type="qcurve" smooth="yes"/>
      <point x="766" y="901"/>
      <point x="666" y="901" type="qcurve" smooth="yes"/>
      <point x="486" y="901"/>
      <point x="375" y="787" type="qcurve" smooth="yes"/>
      <point x="264" y="672"/>
      <point x="264" y="332"/>
      <point x="375" y="217" type="qcurve" smooth="yes"/>
      <point x="484" y="102"/>
      <point x="666" y="102" type="qcurve" smooth="yes"/>
      <point x="766" y="102"/>
      <point x="850" y="140" type="qcurve" smooth="yes"/>
      <point x="931" y="177"/>
      <point x="974" y="232" type="qcurve" smooth="yes"/>
      <point x="1057" y="337"/>
      <point x="1057" y="389" type="qcurve"/>
      <point x="1190" y="389" type="line"/>
      <point x="1190" y="294"/>
      <point x="1084" y="158" type="qcurve" smooth="yes"/>
      <point x="1031" y="92"/>
      <point x="938" y="43" type="qcurve" smooth="yes"/>
      <point x="846" y="-5"/>
      <point x="729" y="-16" type="qcurve"/>
    </contour>
  </outline>
</glyph>
<glyph name="sterling" format="2">
  <advance width="1163"/>
  <unicode hex="00A3"/>
  <outline>
    <contour>
      <point x="1079" y="1057" type="line"/>
      <point x="944" y="1057" type="line"/>
      <point x="944" y="1075" type="line" smooth="yes"/>
      <point x="944" y="1197"/>
      <point x="797" y="1331"/>
      <point x="670" y="1331" type="qcurve" smooth="yes"/>
      <point x="542" y="1331"/>
      <point x="393" y="1197"/>
      <point x="393" y="1075" type="qcurve" smooth="yes"/>
      <point x="393" y="709" type="line"/>
      <point x="838" y="709" type="line"/>
      <point x="838" y="586" type="line"/>
      <point x="393" y="586" type="line"/>
      <point x="393" y="123" type="line"/>
      <point x="1092" y="123" type="line"/>
      <point x="1092" y="0" type="line"/>
      <point x="61" y="0" type="line"/>
      <point x="61" y="123" type="line"/>
      <point x="258" y="123" type="line"/>
      <point x="258" y="586" type="line"/>
      <point x="61" y="586" type="line"/>
      <point x="61" y="709" type="line"/>
      <point x="258" y="709" type="line"/>
      <point x="258" y="1075" type="line" smooth="yes"/>
      <point x="258" y="1243"/>
      <point x="364" y="1349" type="qcurve" smooth="yes"/>
      <point x="469" y="1454"/>
      <point x="670" y="1454" type="qcurve" smooth="yes"/>
      <point x="869" y="1454"/>
      <point x="974" y="1348" type="qcurve" smooth="yes"/>
      <point x="1079" y="1242"/>
      <point x="1079" y="1075" type="qcurve" smooth="yes"/>
    </contour>
  </outline>
</glyph>
<glyph name="yen" format="2">
  <advance width="1406"/>
  <unicode hex="00A5"/>
  <outline>
    <contour>
      <point x="551" y="668" type="line"/>
      <point x="219" y="668" type="line"/>
      <point x="219" y="786" type="line"/>
      <point x="477" y="786" type="line"/>
      <point x="72" y="1434" type="line"/>
      <point x="223" y="1434" type="line"/>
      <point x="700" y="674" type="line"/>
      <point x="707" y="674" type="line"/>
      <point x="1184" y="1434" type="line"/>
      <point x="1335" y="1434" type="line"/>
      <point x="930" y="786" type="line"/>
      <point x="1188" y="786" type="line"/>
      <point x="1188" y="668" type="line"/>
      <point x="856" y="668" type="line"/>
      <point x="776" y="541" type="line"/>
      <point x="776" y="446" type="line"/>
      <point x="1188" y="446" type="line"/>
      <point x="1188" y="328" type="line"/>
      <point x="776" y="328" type="line"/>
      <point x="776" y="0" type="line"/>
      <point x="631" y="0" type="line"/>
      <point x="631" y="328" type="line"/>
      <point x="219" y="328" type="line"/>
      <point x="219" y="446" type="line"/>
      <point x="631" y="446" type="line"/>
      <point x="631" y="541" type="line"/>
    </contour>
  </outline>
</glyph>
<glyph name="brokenbar" format="2">
  <advance width="737"/>
  <unicode hex="00A6"/>
  <outline>
    <contour>
      <point x="307" y="1577" type="line"/>
      <point x="430" y="1577" type="line"/>
      <point x="430" y="672" type="line"/>
      <point x="307" y="672" type="line"/>
    </contour>
    <contour>
      <point x="430" y="-532" type="line"/>
      <point x="307" y="-532" type="line"/>
      <point x="307" y="385" type="line"/>
      <point x="430" y="385" type="line"/>
    </contour>
  </outline>
</glyph>
<glyph name="section" format="2">
  <advance width="1329"/>
  <unicode hex="00A7"/>
  <outline>
    <contour>
      <point x="666" y="950" type="qcurve" smooth="yes"/>
      <point x="900" y="950"/>
      <point x="1027" y="851" type="qcurve" smooth="yes"/>
      <point x="1155" y="752"/>
      <point x="1155" y="588" type="qcurve" smooth="yes"/>
      <point x="1155" y="527"/>
      <point x="1109" y="418"/>
      <point x="1074" y="384" type="qcurve" smooth="yes"/>
      <point x="1009" y="322"/>
      <point x="950" y="301" type="qcurve" smooth="yes"/>
      <point x="926" y="293" type="line"/>
      <point x="926" y="285" type="line"/>
      <point x="963" y="275"/>
      <point x="1004" y="256" type="qcurve" smooth="yes"/>
      <point x="1041" y="238"/>
      <point x="1072" y="212" type="qcurve" smooth="yes"/>
      <point x="1105" y="183"/>
      <point x="1151" y="84"/>
      <point x="1151" y="27" type="qcurve" smooth="yes"/>
      <point x="1151" y="-115"/>
      <point x="1020" y="-204" type="qcurve" smooth="yes"/>
      <point x="890" y="-291"/>
      <point x="666" y="-291" type="qcurve" smooth="yes"/>
      <point x="442" y="-291"/>
      <point x="312" y="-208" type="qcurve" smooth="yes"/>
      <point x="182" y="-126"/>
      <point x="182" y="29" type="qcurve" smooth="yes"/>
      <point x="182" y="94" type="line"/>
      <point x="309" y="94" type="line"/>
      <point x="309" y="29" type="line" smooth="yes"/>
      <point x="309" y="-73"/>
      <point x="407" y="-123" type="qcurve" smooth="yes"/>
      <point x="504" y="-172"/>
      <point x="666" y="-172" type="qcurve" smooth="yes"/>
      <point x="827" y="-172"/>
      <point x="926" y="-121" type="qcurve" smooth="yes"/>
      <point x="1024" y="-70"/>
      <point x="1024" y="27" type="qcurve" smooth="yes"/>
      <point x="1024" y="226"/>
      <point x="666" y="225" type="qcurve" smooth="yes"/>
      <point x="434" y="225"/>
      <point x="304" y="326" type="qcurve" smooth="yes"/>
      <point x="174" y="426"/>
      <point x="174" y="588" type="qcurve" smooth="yes"/>
      <point x="174" y="649"/>
      <point x="220" y="759"/>
      <point x="255" y="792" type="qcurve" smooth="yes"/>
      <point x="322" y="854"/>
      <point x="381" y="874" type="qcurve" smooth="yes"/>
      <point x="403" y="883" type="line"/>
      <point x="403" y="891" type="line"/>
      <point x="377" y="898"/>
      <point x="338" y="921" type="qcurve" smooth="yes"/>
      <point x="306" y="940"/>
      <point x="280" y="966" type="qcurve" smooth="yes"/>
      <point x="252" y="994"/>
      <point x="213" y="1089"/>
      <point x="213" y="1143" type="qcurve" smooth="yes"/>
      <point x="213" y="1278"/>
      <point x="449" y="1454"/>
      <point x="666" y="1454" type="qcurve" smooth="yes"/>
      <point x="882" y="1454"/>
      <point x="1118" y="1280"/>
      <point x="1118" y="1137" type="qcurve" smooth="yes"/>
      <point x="1118" y="1106" type="line"/>
      <point x="991" y="1106" type="line"/>
      <point x="991" y="1137" type="line" smooth="yes"/>
      <point x="991" y="1224"/>
      <point x="904" y="1279" type="qcurve" smooth="yes"/>
      <point x="816" y="1335"/>
      <point x="666" y="1335" type="qcurve" smooth="yes"/>
      <point x="525" y="1335"/>
      <point x="433" y="1285" type="qcurve" smooth="yes"/>
      <point x="340" y="1236"/>
      <point x="340" y="1143" type="qcurve" smooth="yes"/>
      <point x="340" y="1047"/>
      <point x="431" y="999" type="qcurve" smooth="yes"/>
      <point x="520" y="950"/>
    </contour>
    <contour>
      <point x="404" y="410" type="qcurve" smooth="yes"/>
      <point x="506" y="344"/>
      <point x="826" y="344"/>
      <point x="927" y="411" type="qcurve" smooth="yes"/>
      <point x="1028" y="477"/>
      <point x="1028" y="588" type="qcurve" smooth="yes"/>
      <point x="1028" y="701"/>
      <point x="927" y="766" type="qcurve" smooth="yes"/>
      <point x="824" y="831"/>
      <point x="666" y="831" type="qcurve" smooth="yes"/>
      <point x="507" y="831"/>
      <point x="404" y="766" type="qcurve" smooth="yes"/>
      <point x="301" y="700"/>
      <point x="301" y="588" type="qcurve" smooth="yes"/>
      <point x="301" y="474"/>
    </contour>
  </outline>
</glyph>
<glyph name="dieresis" format="2">
  <advance width="663"/>
  <unicode hex="00A8"/>
  <outline>
    <contour>
      <point x="84" y="1267" type="qcurve" smooth="yes"/>
      <point x="62" y="1288"/>
      <point x="62" y="1358"/>
      <point x="84" y="1380" type="qcurve" smooth="yes"/>
      <point x="107" y="1401"/>
      <point x="145" y="1401" type="qcurve" smooth="yes"/>
      <point x="185" y="1401"/>
      <point x="207" y="1380" type="qcurve" smooth="yes"/>
      <point x="230" y="1358"/>
      <point x="230" y="1288"/>
      <point x="207" y="1267" type="qcurve" smooth="yes"/>
      <point x="185" y="1245"/>
      <point x="145" y="1245" type="qcurve" smooth="yes"/>
      <point x="106" y="1245"/>
    </contour>
    <contour>
      <point x="457" y="1267" type="qcurve" smooth="yes"/>
      <point x="434" y="1288"/>
      <point x="434" y="1358"/>
      <point x="457" y="1380" type="qcurve" smooth="yes"/>
      <point x="479" y="1401"/>
      <point x="518" y="1401" type="qcurve" smooth="yes"/>
      <point x="558" y="1401"/>
      <point x="580" y="1380" type="qcurve" smooth="yes"/>
      <point x="602" y="1358"/>
      <point x="602" y="1288"/>
      <point x="580" y="1267" type="qcurve" smooth="yes"/>
      <point x="558" y="1245"/>
      <point x="518" y="1245" type="qcurve" smooth="yes"/>
      <point x="479" y="1245"/>
    </contour>
  </outline>
</glyph>
<glyph name="copyright" format="2">
  <advance width="1777"/>
  <unicode hex="00A9"/>
  <outline>
    <contour>
      <point x="1427" y="187" type="qcurve" smooth="yes"/>
      <point x="1218" y="-20"/>
      <point x="560" y="-20"/>
      <point x="351" y="187" type="qcurve" smooth="yes"/>
      <point x="143" y="392"/>
      <point x="143" y="717" type="qcurve" smooth="yes"/>
      <point x="143" y="1040"/>
      <point x="351" y="1247" type="qcurve" smooth="yes"/>
      <point x="560" y="1454"/>
      <point x="1218" y="1454"/>
      <point x="1427" y="1247" type="qcurve" smooth="yes"/>
      <point x="1634" y="1040"/>
      <point x="1634" y="717" type="qcurve" smooth="yes"/>
      <point x="1634" y="392"/>
    </contour>
    <contour>
      <point x="437" y="272" type="qcurve" smooth="yes"/>
      <point x="604" y="98"/>
      <point x="1174" y="98"/>
      <point x="1341" y="272" type="qcurve" smooth="yes"/>
      <point x="1507" y="445"/>
      <point x="1507" y="717" type="qcurve" smooth="yes"/>
      <point x="1507" y="988"/>
      <point x="1341" y="1161" type="qcurve" smooth="yes"/>
      <point x="1174" y="1335"/>
      <point x="604" y="1335"/>
      <point x="437" y="1161" type="qcurve" smooth="yes"/>
      <point x="270" y="986"/>
      <point x="270" y="717" type="qcurve" smooth="yes"/>
      <point x="270" y="447"/>
    </contour>
    <contour>
      <point x="624" y="464" type="qcurve" smooth="yes"/>
      <point x="522" y="564"/>
      <point x="522" y="719" type="qcurve" smooth="yes"/>
      <point x="522" y="872"/>
      <point x="624" y="974" type="qcurve" smooth="yes"/>
      <point x="725" y="1075"/>
      <point x="893" y="1075" type="qcurve" smooth="yes"/>
      <point x="986" y="1075"/>
      <point x="1136" y="1012"/>
      <point x="1174" y="963" type="qcurve" smooth="yes"/>
      <point x="1247" y="866"/>
      <point x="1247" y="799" type="qcurve"/>
      <point x="1126" y="799" type="line" smooth="yes"/>
      <point x="1126" y="800"/>
      <point x="1123" y="815"/>
      <point x="1114" y="838"/>
      <point x="1104" y="854" type="qcurve" smooth="yes"/>
      <point x="1088" y="881"/>
      <point x="1065" y="902" type="qcurve" smooth="yes"/>
      <point x="1040" y="924"/>
      <point x="947" y="956"/>
      <point x="893" y="956" type="qcurve" smooth="yes"/>
      <point x="779" y="956"/>
      <point x="715" y="889" type="qcurve" smooth="yes"/>
      <point x="649" y="822"/>
      <point x="649" y="616"/>
      <point x="715" y="549" type="qcurve" smooth="yes"/>
      <point x="780" y="481"/>
      <point x="893" y="481" type="qcurve" smooth="yes"/>
      <point x="948" y="481"/>
      <point x="1042" y="513"/>
      <point x="1065" y="538" type="qcurve" smooth="yes"/>
      <point x="1115" y="589"/>
      <point x="1122" y="623" type="qcurve" smooth="yes"/>
      <point x="1126" y="639" type="line"/>
      <point x="1247" y="639" type="line"/>
      <point x="1247" y="571"/>
      <point x="1174" y="475" type="qcurve" smooth="yes"/>
      <point x="1136" y="426"/>
      <point x="985" y="362"/>
      <point x="893" y="362" type="qcurve" smooth="yes"/>
      <point x="724" y="362"/>
    </contour>
  </outline>
</glyph>
<glyph name="ordfeminine" format="2">
  <advance width="911"/>
  <unicode hex="00AA"/>
  <outline>
    <contour>
      <point x="72" y="1133" type="qcurve" smooth="yes"/>
      <point x="72" y="1235"/>
      <point x="162" y="1295" type="qcurve" smooth="yes"/>
      <point x="253" y="1354"/>
      <point x="391" y="1354" type="qcurve" smooth="yes"/>
      <point x="472" y="1354"/>
      <point x="537" y="1336" type="qcurve" smooth="yes"/>
      <point x="603" y="1316"/>
      <point x="623" y="1298" type="qcurve" smooth="yes"/>
      <point x="647" y="1280" type="line"/>
      <point x="647" y="1372" type="line" smooth="yes"/>
      <point x="647" y="1552"/>
      <point x="436" y="1552" type="qcurve" smooth="yes"/>
      <point x="307" y="1552"/>
      <point x="261" y="1499" type="qcurve" smooth="yes"/>
      <point x="221" y="1453"/>
      <point x="221" y="1421" type="qcurve"/>
      <point x="106" y="1421" type="line"/>
      <point x="106" y="1464"/>
      <point x="138" y="1520" type="qcurve" smooth="yes"/>
      <point x="157" y="1555"/>
      <point x="191" y="1586" type="qcurve" smooth="yes"/>
      <point x="225" y="1618"/>
      <point x="356" y="1659"/>
      <point x="436" y="1659" type="qcurve" smooth="yes"/>
      <point x="596" y="1659"/>
      <point x="766" y="1511"/>
      <point x="766" y="1372" type="qcurve" smooth="yes"/>
      <point x="766" y="1116" type="line" smooth="yes"/>
      <point x="766" y="1067"/>
      <point x="799" y="1024"/>
      <point x="840" y="1024" type="qcurve"/>
      <point x="881" y="1030" type="line"/>
      <point x="881" y="928" type="line"/>
      <point x="855" y="918"/>
      <point x="811" y="918" type="qcurve" smooth="yes"/>
      <point x="756" y="918"/>
      <point x="675" y="960"/>
      <point x="664" y="985" type="qcurve" smooth="yes"/>
      <point x="655" y="1008" type="line"/>
      <point x="651" y="1008" type="line"/>
      <point x="649" y="1004"/>
      <point x="626" y="982" type="qcurve" smooth="yes"/>
      <point x="608" y="965"/>
      <point x="541" y="937" type="qcurve" smooth="yes"/>
      <point x="475" y="909"/>
      <point x="391" y="909" type="qcurve" smooth="yes"/>
      <point x="246" y="909"/>
      <point x="72" y="1029"/>
    </contour>
    <contour>
      <point x="422" y="1247" type="qcurve" smooth="yes"/>
      <point x="192" y="1247"/>
      <point x="190" y="1133" type="qcurve" smooth="yes"/>
      <point x="190" y="1016"/>
      <point x="422" y="1016" type="qcurve" smooth="yes"/>
      <point x="516" y="1016"/>
      <point x="573" y="1048" type="qcurve" smooth="yes"/>
      <point x="624" y="1078"/>
      <point x="639" y="1098" type="qcurve" smooth="yes"/>
      <point x="647" y="1108" type="line"/>
      <point x="647" y="1182" type="line"/>
      <point x="571" y="1247"/>
    </contour>
  </outline>
</glyph>
<glyph name="guillemotleft" format="2">
  <advance width="897"/>
  <unicode hex="00AB"/>
  <outline>
    <contour>
      <point x="815" y="115" type="line"/>
      <point x="676" y="115" type="line"/>
      <point x="395" y="494" type="line"/>
      <point x="676" y="872" type="line"/>
      <point x="815" y="872" type="line"/>
      <point x="532" y="494" type="line"/>
    </contour>
    <contour>
      <point x="481" y="115" type="line"/>
      <point x="342" y="115" type="line"/>
      <point x="61" y="494" type="line"/>
      <point x="342" y="872" type="line"/>
      <point x="481" y="872" type="line"/>
      <point x="199" y="494" type="line"/>
    </contour>
  </outline>
</glyph>
<glyph name="logicalnot" format="2">
  <advance width="929"/>
  <unicode hex="00AC"/>
  <outline>
    <contour>
      <point x="838" y="324" type="line"/>
      <point x="715" y="324" type="line"/>
      <point x="715" y="537" type="line"/>
      <point x="61" y="537" type="line"/>
      <point x="61" y="655" type="line"/>
      <point x="838" y="655" type="line"/>
    </contour>
  </outline>
</glyph>
<glyph name="uni00AD" format="2">
  <advance width="616"/>
  <unicode hex="00AD"/>
  <outline>
    <contour>
      <point x="82" y="481" type="line"/>
      <point x="535" y="670" type="line"/>
      <point x="535" y="535" type="line"/>
      <point x="82" y="346" type="line"/>
    </contour>
  </outline>
</glyph>
<glyph name="registered" format="2">
  <advance width="1032"/>
  <unicode hex="00AE"/>
  <outline>
    <contour>
      <point x="586" y="852" type="line"/>
      <point x="514" y="979" type="line"/>
      <point x="463" y="979" type="line"/>
      <point x="463" y="852" type="line"/>
      <point x="365" y="852" type="line"/>
      <point x="365" y="1221" type="line"/>
      <point x="535" y="1221" type="line" smooth="yes"/>
      <point x="682" y="1221"/>
      <point x="682" y="1102" type="qcurve" smooth="yes"/>
      <point x="682" y="1066"/>
      <point x="649" y="1011"/>
      <point x="629" y="1001" type="qcurve" smooth="yes"/>
      <point x="610" y="993" type="line"/>
      <point x="692" y="852" type="line"/>
    </contour>
    <contour>
      <point x="584" y="1098" type="qcurve" smooth="yes"/>
      <point x="584" y="1139"/>
      <point x="539" y="1139" type="qcurve" smooth="yes"/>
      <point x="463" y="1139" type="line"/>
      <point x="463" y="1059" type="line"/>
      <point x="539" y="1059" type="line" smooth="yes"/>
      <point x="584" y="1059"/>
    </contour>
    <contour>
      <point x="721" y="614"/>
      <point x="311" y="614"/>
      <point x="192" y="736" type="qcurve" smooth="yes"/>
      <point x="72" y="858"/>
      <point x="72" y="1210"/>
      <point x="192" y="1332" type="qcurve" smooth="yes"/>
      <point x="311" y="1454"/>
      <point x="721" y="1454"/>
      <point x="841" y="1332" type="qcurve" smooth="yes"/>
      <point x="961" y="1211"/>
      <point x="961" y="1034" type="qcurve" smooth="yes"/>
      <point x="961" y="858"/>
    </contour>
    <contour>
      <point x="678" y="1364"/>
      <point x="354" y="1364"/>
      <point x="170" y="1174"/>
      <point x="170" y="1035" type="qcurve" smooth="yes"/>
      <point x="170" y="895"/>
      <point x="354" y="705"/>
      <point x="678" y="705"/>
      <point x="862" y="895"/>
      <point x="862" y="1035" type="qcurve" smooth="yes"/>
      <point x="862" y="1174"/>
    </contour>
  </outline>
</glyph>
<glyph name="overscore" format="2">
  <advance width="667"/>
  <unicode hex="00AF"/>
  <outline>
    <contour>
      <point x="606" y="1280" type="line"/>
      <point x="61" y="1280" type="line"/>
      <point x="61" y="1382" type="line"/>
      <point x="606" y="1382" type="line"/>
    </contour>
  </outline>
</glyph>
<glyph name="degree" format="2">
  <advance width="892"/>
  <unicode hex="00B0"/>
  <outline>
    <contour>
      <point x="703" y="845" type="qcurve" smooth="yes"/>
      <point x="603" y="750"/>
      <point x="447" y="750" type="qcurve" smooth="yes"/>
      <point x="289" y="750"/>
      <point x="191" y="845" type="qcurve" smooth="yes"/>
      <point x="92" y="940"/>
      <point x="92" y="1264"/>
      <point x="191" y="1359" type="qcurve" smooth="yes"/>
      <point x="289" y="1454"/>
      <point x="447" y="1454" type="qcurve" smooth="yes"/>
      <point x="603" y="1454"/>
      <point x="703" y="1359" type="qcurve" smooth="yes"/>
      <point x="801" y="1264"/>
      <point x="801" y="940"/>
    </contour>
    <contour>
      <point x="612" y="1271" type="qcurve" smooth="yes"/>
      <point x="549" y="1335"/>
      <point x="447" y="1335" type="qcurve" smooth="yes"/>
      <point x="343" y="1335"/>
      <point x="282" y="1271" type="qcurve" smooth="yes"/>
      <point x="219" y="1206"/>
      <point x="219" y="998"/>
      <point x="282" y="933" type="qcurve" smooth="yes"/>
      <point x="344" y="868"/>
      <point x="447" y="868" type="qcurve" smooth="yes"/>
      <point x="549" y="868"/>
      <point x="612" y="933" type="qcurve" smooth="yes"/>
      <point x="674" y="998"/>
      <point x="674" y="1206"/>
    </contour>
  </outline>
</glyph>
<glyph name="plusminus" format="2">
  <advance width="1040"/>
  <unicode hex="00B1"/>
  <outline>
    <contour>
      <point x="102" y="78" type="line"/>
      <point x="102" y="197" type="line"/>
      <point x="461" y="197" type="line"/>
      <point x="461" y="481" type="line"/>
      <point x="102" y="481" type="line"/>
      <point x="102" y="600" type="line"/>
      <point x="461" y="600" type="line"/>
      <point x="461" y="954" type="line"/>
      <point x="580" y="954" type="line"/>
      <point x="580" y="600" type="line"/>
      <point x="938" y="600" type="line"/>
      <point x="938" y="481" type="line"/>
      <point x="580" y="481" type="line"/>
      <point x="580" y="197" type="line"/>
      <point x="938" y="197" type="line"/>
      <point x="938" y="78" type="line"/>
    </contour>
  </outline>
</glyph>
<glyph name="uni00B2" format="2">
  <advance width="821"/>
  <unicode hex="00B2"/>
  <outline>
    <contour>
      <point x="743" y="860" type="line"/>
      <point x="72" y="860" type="line"/>
      <point x="72" y="944" type="line" smooth="yes"/>
      <point x="72" y="1029"/>
      <point x="152" y="1153"/>
      <point x="217" y="1179" type="qcurve" smooth="yes"/>
      <point x="278" y="1204"/>
      <point x="352" y="1227" type="qcurve" smooth="yes"/>
      <point x="404" y="1243"/>
      <point x="487" y="1265" type="qcurve" smooth="yes"/>
      <point x="551" y="1281"/>
      <point x="590" y="1317" type="qcurve" smooth="yes"/>
      <point x="631" y="1355"/>
      <point x="631" y="1409" type="qcurve" smooth="yes"/>
      <point x="631" y="1476"/>
      <point x="528" y="1552"/>
      <point x="428" y="1552" type="qcurve" smooth="yes"/>
      <point x="227" y="1552"/>
      <point x="227" y="1395" type="qcurve" smooth="yes"/>
      <point x="227" y="1376" type="line"/>
      <point x="109" y="1376" type="line"/>
      <point x="109" y="1395" type="line" smooth="yes"/>
      <point x="109" y="1517"/>
      <point x="276" y="1659"/>
      <point x="580" y="1659"/>
      <point x="750" y="1525"/>
      <point x="750" y="1415" type="qcurve" smooth="yes"/>
      <point x="750" y="1320"/>
      <point x="693" y="1261" type="qcurve" smooth="yes"/>
      <point x="633" y="1201"/>
      <point x="553" y="1179" type="qcurve" smooth="yes"/>
      <point x="475" y="1156"/>
      <point x="389" y="1136" type="qcurve" smooth="yes"/>
      <point x="307" y="1117"/>
      <point x="250" y="1076" type="qcurve" smooth="yes"/>
      <point x="193" y="1036"/>
      <point x="193" y="967" type="qcurve"/>
      <point x="743" y="967" type="line"/>
    </contour>
  </outline>
</glyph>
<glyph name="uni00B3" format="2">
  <advance width="821"/>
  <unicode hex="00B3"/>
  <outline>
    <contour>
      <point x="535" y="1532" type="line"/>
      <point x="96" y="1532" type="line"/>
      <point x="96" y="1638" type="line"/>
      <point x="711" y="1638" type="line"/>
      <point x="711" y="1524" type="line"/>
      <point x="397" y="1346" type="line"/>
      <point x="397" y="1343" type="line"/>
      <point x="444" y="1343" type="line" smooth="yes"/>
      <point x="593" y="1343"/>
      <point x="750" y="1209"/>
      <point x="750" y="1092" type="qcurve" smooth="yes"/>
      <point x="750" y="973"/>
      <point x="573" y="840"/>
      <point x="412" y="840" type="qcurve" smooth="yes"/>
      <point x="248" y="840"/>
      <point x="72" y="974"/>
      <point x="72" y="1092" type="qcurve" smooth="yes"/>
      <point x="72" y="1122" type="line"/>
      <point x="190" y="1122" type="line"/>
      <point x="190" y="1092" type="line" smooth="yes"/>
      <point x="190" y="948"/>
      <point x="412" y="946" type="qcurve" smooth="yes"/>
      <point x="631" y="946"/>
      <point x="631" y="1092" type="qcurve" smooth="yes"/>
      <point x="631" y="1167"/>
      <point x="527" y="1237"/>
      <point x="412" y="1237" type="qcurve" smooth="yes"/>
      <point x="205" y="1237" type="line"/>
      <point x="205" y="1343" type="line"/>
      <point x="535" y="1530" type="line"/>
    </contour>
  </outline>
</glyph>
<glyph name="paragraph" format="2">
  <advance width="1028"/>
  <unicode hex="00B6"/>
  <outline>
    <contour>
      <point x="41" y="1100" type="qcurve" smooth="yes"/>
      <point x="41" y="1264"/>
      <point x="137" y="1349" type="qcurve" smooth="yes"/>
      <point x="232" y="1434"/>
      <point x="391" y="1434" type="qcurve" smooth="yes"/>
      <point x="977" y="1434" type="line"/>
      <point x="977" y="1319" type="line"/>
      <point x="823" y="1319" type="line"/>
      <point x="823" y="-532" type="line"/>
      <point x="700" y="-532" type="line"/>
      <point x="700" y="1319" type="line"/>
      <point x="514" y="1319" type="line"/>
      <point x="514" y="-532" type="line"/>
      <point x="391" y="-532" type="line"/>
      <point x="391" y="766" type="line"/>
      <point x="234" y="766"/>
      <point x="137" y="852" type="qcurve" smooth="yes"/>
      <point x="41" y="938"/>
    </contour>
  </outline>
</glyph>
<glyph name="middot" format="2">
  <advance width="491"/>
  <unicode hex="00B7"/>
  <outline>
    <contour>
      <point x="310" y="572" type="qcurve" smooth="yes"/>
      <point x="334" y="550"/>
      <point x="334" y="510" type="qcurve" smooth="yes"/>
      <point x="334" y="472"/>
      <point x="310" y="449" type="qcurve" smooth="yes"/>
      <point x="284" y="426"/>
      <point x="208" y="426"/>
      <point x="183" y="449" type="qcurve" smooth="yes"/>
      <point x="158" y="471"/>
      <point x="158" y="510" type="qcurve" smooth="yes"/>
      <point x="158" y="550"/>
      <point x="183" y="572" type="qcurve" smooth="yes"/>
      <point x="206" y="594"/>
      <point x="246" y="594" type="qcurve" smooth="yes"/>
      <point x="285" y="594"/>
    </contour>
  </outline>
</glyph>
<glyph name="cedilla" format="2">
  <advance width="499"/>
  <unicode hex="00B8"/>
  <outline>
    <contour>
      <point x="61" y="-233" type="qcurve"/>
      <point x="154" y="-233" type="line"/>
      <point x="154" y="-305"/>
      <point x="248" y="-305" type="qcurve" smooth="yes"/>
      <point x="346" y="-305"/>
      <point x="346" y="-240" type="qcurve" smooth="yes"/>
      <point x="346" y="-172"/>
      <point x="248" y="-172" type="qcurve" smooth="yes"/>
      <point x="147" y="-172" type="line"/>
      <point x="147" y="-86" type="line"/>
      <point x="254" y="33" type="line"/>
      <point x="350" y="33" type="line"/>
      <point x="244" y="-88" type="line"/>
      <point x="341" y="-88"/>
      <point x="439" y="-164"/>
      <point x="438" y="-240" type="qcurve" smooth="yes"/>
      <point x="438" y="-310"/>
      <point x="339" y="-389"/>
      <point x="248" y="-389" type="qcurve" smooth="yes"/>
      <point x="61" y="-389"/>
    </contour>
  </outline>
</glyph>
<glyph name="uni00B9" format="2">
  <advance width="530"/>
  <unicode hex="00B9"/>
  <outline>
    <contour>
      <point x="227" y="1505" type="line"/>
      <point x="31" y="1327" type="line"/>
      <point x="31" y="1473" type="line"/>
      <point x="215" y="1638" type="line"/>
      <point x="346" y="1638" type="line"/>
      <point x="346" y="860" type="line"/>
      <point x="227" y="860" type="line"/>
    </contour>
  </outline>
</glyph>
<glyph name="ordmasculine" format="2">
  <advance width="937"/>
  <unicode hex="00BA"/>
  <outline>
    <contour>
      <point x="189" y="1019" type="qcurve" smooth="yes"/>
      <point x="82" y="1124"/>
      <point x="82" y="1286" type="qcurve" smooth="yes"/>
      <point x="82" y="1447"/>
      <point x="189" y="1554" type="qcurve" smooth="yes"/>
      <point x="295" y="1659"/>
      <point x="469" y="1659" type="qcurve" smooth="yes"/>
      <point x="644" y="1659"/>
      <point x="750" y="1554" type="qcurve" smooth="yes"/>
      <point x="856" y="1448"/>
      <point x="856" y="1124"/>
      <point x="750" y="1019" type="qcurve" smooth="yes"/>
      <point x="644" y="913"/>
      <point x="469" y="913" type="qcurve" smooth="yes"/>
      <point x="295" y="913"/>
    </contour>
    <contour>
      <point x="661" y="1103" type="qcurve" smooth="yes"/>
      <point x="733" y="1178"/>
      <point x="733" y="1287" type="qcurve" smooth="yes"/>
      <point x="733" y="1395"/>
      <point x="661" y="1470" type="qcurve" smooth="yes"/>
      <point x="587" y="1544"/>
      <point x="469" y="1544" type="qcurve" smooth="yes"/>
      <point x="350" y="1544"/>
      <point x="278" y="1470" type="qcurve" smooth="yes"/>
      <point x="205" y="1396"/>
      <point x="205" y="1287" type="qcurve" smooth="yes"/>
      <point x="205" y="1177"/>
      <point x="278" y="1103" type="qcurve" smooth="yes"/>
      <point x="350" y="1028"/>
      <point x="469" y="1028" type="qcurve" smooth="yes"/>
      <point x="588" y="1028"/>
    </contour>
  </outline>
</glyph>
<glyph name="guillemotright" format="2">
  <advance width="897"/>
  <unicode hex="00BB"/>
  <outline>
    <contour>
      <point x="221" y="872" type="line"/>
      <point x="502" y="494" type="line"/>
      <point x="221" y="115" type="line"/>
      <point x="82" y="115" type="line"/>
      <point x="365" y="494" type="line"/>
      <point x="82" y="872" type="line"/>
    </contour>
    <contour>
      <point x="555" y="872" type="line"/>
      <point x="836" y="494" type="line"/>
      <point x="555" y="115" type="line"/>
      <point x="416" y="115" type="line"/>
      <point x="698" y="494" type="line"/>
      <point x="416" y="872" type="line"/>
    </contour>
  </outline>
</glyph>
<glyph name="onequarter" format="2">
  <advance width="1509"/>
  <unicode hex="00BC"/>
  <outline>
    <contour>
      <point x="262" y="0" type="line"/>
      <point x="131" y="0" type="line"/>
      <point x="1114" y="1434" type="line"/>
      <point x="1245" y="1434" type="line"/>
    </contour>
    <contour>
      <point x="248" y="1300" type="line"/>
      <point x="51" y="1122" type="line"/>
      <point x="51" y="1268" type="line"/>
      <point x="236" y="1434" type="line"/>
      <point x="367" y="1434" type="line"/>
      <point x="367" y="655" type="line"/>
      <point x="248" y="655" type="line"/>
    </contour>
    <contour>
      <point x="1317" y="0" type="line"/>
      <point x="1198" y="0" type="line"/>
      <point x="1198" y="168" type="line"/>
      <point x="733" y="168" type="line"/>
      <point x="733" y="283" type="line"/>
      <point x="1194" y="778" type="line"/>
      <point x="1317" y="778" type="line"/>
      <point x="1317" y="274" type="line"/>
      <point x="1438" y="274" type="line"/>
      <point x="1438" y="168" type="line"/>
      <point x="1317" y="168" type="line"/>
    </contour>
    <contour>
      <point x="881" y="279" type="line"/>
      <point x="881" y="274" type="line"/>
      <point x="1198" y="274" type="line"/>
      <point x="1198" y="614" type="line"/>
      <point x="1194" y="614" type="line"/>
    </contour>
  </outline>
</glyph>
<glyph name="onehalf" format="2">
  <advance width="1640"/>
  <unicode hex="00BD"/>
  <outline>
    <contour>
      <point x="262" y="0" type="line"/>
      <point x="131" y="0" type="line"/>
      <point x="1114" y="1434" type="line"/>
      <point x="1245" y="1434" type="line"/>
    </contour>
    <contour>
      <point x="248" y="1300" type="line"/>
      <point x="51" y="1122" type="line"/>
      <point x="51" y="1268" type="line"/>
      <point x="236" y="1434" type="line"/>
      <point x="367" y="1434" type="line"/>
      <point x="367" y="655" type="line"/>
      <point x="248" y="655" type="line"/>
    </contour>
    <contour>
      <point x="1552" y="0" type="line"/>
      <point x="881" y="0" type="line"/>
      <point x="881" y="84" type="line" smooth="yes"/>
      <point x="881" y="169"/>
      <point x="960" y="293"/>
      <point x="1025" y="319" type="qcurve" smooth="yes"/>
      <point x="1086" y="344"/>
      <point x="1160" y="367" type="qcurve" smooth="yes"/>
      <point x="1214" y="383"/>
      <point x="1296" y="405" type="qcurve" smooth="yes"/>
      <point x="1360" y="421"/>
      <point x="1399" y="457" type="qcurve" smooth="yes"/>
      <point x="1440" y="495"/>
      <point x="1440" y="549" type="qcurve" smooth="yes"/>
      <point x="1440" y="616"/>
      <point x="1337" y="692"/>
      <point x="1237" y="692" type="qcurve" smooth="yes"/>
      <point x="1036" y="692"/>
      <point x="1036" y="535" type="qcurve" smooth="yes"/>
      <point x="1036" y="516" type="line"/>
      <point x="918" y="516" type="line"/>
      <point x="918" y="535" type="line" smooth="yes"/>
      <point x="918" y="657"/>
      <point x="1085" y="799"/>
      <point x="1389" y="799"/>
      <point x="1559" y="665"/>
      <point x="1559" y="555" type="qcurve" smooth="yes"/>
      <point x="1559" y="460"/>
      <point x="1502" y="401" type="qcurve" smooth="yes"/>
      <point x="1442" y="341"/>
      <point x="1362" y="319" type="qcurve" smooth="yes"/>
      <point x="1284" y="296"/>
      <point x="1198" y="276" type="qcurve" smooth="yes"/>
      <point x="1116" y="257"/>
      <point x="1059" y="216" type="qcurve" smooth="yes"/>
      <point x="1001" y="176"/>
      <point x="1001" y="106" type="qcurve"/>
      <point x="1552" y="106" type="line"/>
    </contour>
  </outline>
</glyph>
<glyph name="threequarters" format="2">
  <advance width="1837"/>
  <unicode hex="00BE"/>
  <outline>
    <contour>
      <point x="590" y="0" type="line"/>
      <point x="459" y="0" type="line"/>
      <point x="1442" y="1434" type="line"/>
      <point x="1573" y="1434" type="line"/>
    </contour>
    <contour>
      <point x="1645" y="0" type="line"/>
      <point x="1526" y="0" type="line"/>
      <point x="1526" y="168" type="line"/>
      <point x="1061" y="168" type="line"/>
      <point x="1061" y="283" type="line"/>
      <point x="1522" y="778" type="line"/>
      <point x="1645" y="778" type="line"/>
      <point x="1645" y="274" type="line"/>
      <point x="1765" y="274" type="line"/>
      <point x="1765" y="168" type="line"/>
      <point x="1645" y="168" type="line"/>
    </contour>
    <contour>
      <point x="1208" y="279" type="line"/>
      <point x="1208" y="274" type="line"/>
      <point x="1526" y="274" type="line"/>
      <point x="1526" y="614" type="line"/>
      <point x="1522" y="614" type="line"/>
    </contour>
    <contour>
      <point x="535" y="1327" type="line"/>
      <point x="96" y="1327" type="line"/>
      <point x="96" y="1434" type="line"/>
      <point x="711" y="1434" type="line"/>
      <point x="711" y="1319" type="line"/>
      <point x="397" y="1141" type="line"/>
      <point x="397" y="1139" type="line"/>
      <point x="444" y="1139" type="line" smooth="yes"/>
      <point x="593" y="1139"/>
      <point x="750" y="1004"/>
      <point x="750" y="887" type="qcurve" smooth="yes"/>
      <point x="750" y="768"/>
      <point x="573" y="635"/>
      <point x="412" y="635" type="qcurve" smooth="yes"/>
      <point x="248" y="635"/>
      <point x="72" y="769"/>
      <point x="72" y="887" type="qcurve" smooth="yes"/>
      <point x="72" y="918" type="line"/>
      <point x="190" y="918" type="line"/>
      <point x="190" y="887" type="line" smooth="yes"/>
      <point x="190" y="742"/>
      <point x="412" y="741" type="qcurve" smooth="yes"/>
      <point x="631" y="741"/>
      <point x="631" y="887" type="qcurve" smooth="yes"/>
      <point x="631" y="962"/>
      <point x="527" y="1032"/>
      <point x="412" y="1032" type="qcurve" smooth="yes"/>
      <point x="205" y="1032" type="line"/>
      <point x="205" y="1139" type="line"/>
      <point x="535" y="1325" type="line"/>
    </contour>
  </outline>
</glyph>
<glyph name="questiondown" format="2">
  <advance width="1212"/>
  <unicode hex="00BF"/>
  <outline>
    <contour>
      <point x="786" y="360" type="qcurve" smooth="yes"/>
      <point x="786" y="410"/>
      <point x="703" y="469"/>
      <point x="637" y="469" type="qcurve" smooth="yes"/>
      <point x="572" y="469"/>
      <point x="496" y="417"/>
      <point x="496" y="365" type="qcurve" smooth="yes"/>
      <point x="496" y="340" type="line"/>
      <point x="367" y="340" type="line"/>
      <point x="367" y="365" type="line" smooth="yes"/>
      <point x="367" y="470"/>
      <point x="509" y="584"/>
      <point x="637" y="584" type="qcurve" smooth="yes"/>
      <point x="769" y="584"/>
      <point x="915" y="467"/>
      <point x="915" y="361" type="qcurve" smooth="yes"/>
      <point x="915" y="254"/>
      <point x="845" y="196" type="qcurve" smooth="yes"/>
      <point x="774" y="137"/>
      <point x="673" y="119" type="qcurve" smooth="yes"/>
      <point x="572" y="100"/>
      <point x="368" y="72"/>
      <point x="298" y="26" type="qcurve" smooth="yes"/>
      <point x="227" y="-21"/>
      <point x="227" y="-109" type="qcurve" smooth="yes"/>
      <point x="227" y="-196"/>
      <point x="337" y="-252" type="qcurve" smooth="yes"/>
      <point x="446" y="-307"/>
      <point x="616" y="-307" type="qcurve" smooth="yes"/>
      <point x="787" y="-307"/>
      <point x="897" y="-244" type="qcurve" smooth="yes"/>
      <point x="1006" y="-180"/>
      <point x="1006" y="-66" type="qcurve" smooth="yes"/>
      <point x="1006" y="-8" type="line"/>
      <point x="1141" y="-8" type="line"/>
      <point x="1141" y="-66" type="line" smooth="yes"/>
      <point x="1141" y="-235"/>
      <point x="995" y="-333" type="qcurve" smooth="yes"/>
      <point x="849" y="-430"/>
      <point x="385" y="-430"/>
      <point x="239" y="-344" type="qcurve" smooth="yes"/>
      <point x="92" y="-258"/>
      <point x="92" y="-109" type="qcurve" smooth="yes"/>
      <point x="92" y="11"/>
      <point x="164" y="78" type="qcurve" smooth="yes"/>
      <point x="235" y="144"/>
      <point x="338" y="167" type="qcurve" smooth="yes"/>
      <point x="447" y="189"/>
      <point x="542" y="202" type="qcurve" smooth="yes"/>
      <point x="645" y="216"/>
      <point x="715" y="251" type="qcurve" smooth="yes"/>
      <point x="786" y="286"/>
    </contour>
    <contour>
      <point x="703" y="1002" type="qcurve" smooth="yes"/>
      <point x="727" y="980"/>
      <point x="727" y="940" type="qcurve" smooth="yes"/>
      <point x="727" y="902"/>
      <point x="703" y="879" type="qcurve" smooth="yes"/>
      <point x="677" y="856"/>
      <point x="601" y="856"/>
      <point x="576" y="879" type="qcurve" smooth="yes"/>
      <point x="551" y="901"/>
      <point x="551" y="940" type="qcurve" smooth="yes"/>
      <point x="551" y="980"/>
      <point x="576" y="1002" type="qcurve" smooth="yes"/>
      <point x="599" y="1024"/>
      <point x="639" y="1024" type="qcurve" smooth="yes"/>
      <point x="678" y="1024"/>
    </contour>
  </outline>
</glyph>
<glyph name="Aacute" format="2">
  <advance width="1443"/>
  <unicode hex="00C1"/>
  <outline>
    <contour>
      <point x="629" y="1434" type="line"/>
      <point x="815" y="1434" type="line"/>
      <point x="1403" y="0" type="line"/>
      <point x="1262" y="0" type="line"/>
      <point x="1120" y="344" type="line"/>
      <point x="324" y="344" type="line"/>
      <point x="182" y="0" type="line"/>
      <point x="41" y="0" type="line"/>
    </contour>
    <contour>
      <point x="375" y="467" type="line"/>
      <point x="1069" y="467" type="line"/>
      <point x="725" y="1315" type="line"/>
      <point x="719" y="1315" type="line"/>
    </contour>
    <contour>
      <point x="791" y="1618" type="line"/>
      <point x="664" y="1618" type="line"/>
      <point x="971" y="1946" type="line"/>
      <point x="1139" y="1946" type="line"/>
    </contour>
  </outline>
</glyph>
<glyph name="Acircumflex" format="2">
  <advance width="1443"/>
  <unicode hex="00C2"/>
  <outline>
    <contour>
      <point x="629" y="1434" type="line"/>
      <point x="815" y="1434" type="line"/>
      <point x="1403" y="0" type="line"/>
      <point x="1262" y="0" type="line"/>
      <point x="1120" y="344" type="line"/>
      <point x="324" y="344" type="line"/>
      <point x="182" y="0" type="line"/>
      <point x="41" y="0" type="line"/>
    </contour>
    <contour>
      <point x="375" y="467" type="line"/>
      <point x="1069" y="467" type="line"/>
      <point x="725" y="1315" type="line"/>
      <point x="719" y="1315" type="line"/>
    </contour>
    <contour>
      <point x="1073" y="1618" type="line"/>
      <point x="938" y="1618" type="line"/>
      <point x="721" y="1878" type="line"/>
      <point x="504" y="1618" type="line"/>
      <point x="369" y="1618" type="line"/>
      <point x="645" y="1946" type="line"/>
      <point x="797" y="1946" type="line"/>
    </contour>
  </outline>
</glyph>
<glyph name="Atilde" format="2">
  <advance width="1443"/>
  <unicode hex="00C3"/>
  <outline>
    <contour>
      <point x="629" y="1434" type="line"/>
      <point x="815" y="1434" type="line"/>
      <point x="1403" y="0" type="line"/>
      <point x="1262" y="0" type="line"/>
      <point x="1120" y="344" type="line"/>
      <point x="324" y="344" type="line"/>
      <point x="182" y="0" type="line"/>
      <point x="41" y="0" type="line"/>
    </contour>
    <contour>
      <point x="375" y="467" type="line"/>
      <point x="1069" y="467" type="line"/>
      <point x="725" y="1315" type="line"/>
      <point x="719" y="1315" type="line"/>
    </contour>
    <contour>
      <point x="549" y="1602" type="qcurve" smooth="yes"/>
      <point x="469" y="1602"/>
      <point x="381" y="1681"/>
      <point x="381" y="1751" type="qcurve"/>
      <point x="389" y="1821" type="line"/>
      <point x="494" y="1821" type="line"/>
      <point x="489" y="1801"/>
      <point x="487" y="1769" type="qcurve" smooth="yes"/>
      <point x="487" y="1699"/>
      <point x="563" y="1700" type="qcurve" smooth="yes"/>
      <point x="610" y="1700"/>
      <point x="709" y="1769" type="qcurve" smooth="yes"/>
      <point x="807" y="1837"/>
      <point x="897" y="1837" type="qcurve" smooth="yes"/>
      <point x="976" y="1837"/>
      <point x="1065" y="1758"/>
      <point x="1065" y="1690" type="qcurve"/>
      <point x="1057" y="1618" type="line"/>
      <point x="952" y="1618" type="line"/>
      <point x="958" y="1641"/>
      <point x="958" y="1671" type="qcurve" smooth="yes"/>
      <point x="958" y="1739"/>
      <point x="881" y="1739" type="qcurve" smooth="yes"/>
      <point x="854" y="1741"/>
      <point x="774" y="1698"/>
      <point x="700" y="1644"/>
      <point x="596" y="1600"/>
    </contour>
  </outline>
</glyph>
<glyph name="Adieresis" format="2">
  <advance width="1443"/>
  <unicode hex="00C4"/>
  <outline>
    <contour>
      <point x="629" y="1434" type="line"/>
      <point x="815" y="1434" type="line"/>
      <point x="1403" y="0" type="line"/>
      <point x="1262" y="0" type="line"/>
      <point x="1120" y="344" type="line"/>
      <point x="324" y="344" type="line"/>
      <point x="182" y="0" type="line"/>
      <point x="41" y="0" type="line"/>
    </contour>
    <contour>
      <point x="375" y="467" type="line"/>
      <point x="1069" y="467" type="line"/>
      <point x="725" y="1315" type="line"/>
      <point x="719" y="1315" type="line"/>
    </contour>
    <contour>
      <point x="474" y="1671" type="qcurve" smooth="yes"/>
      <point x="452" y="1692"/>
      <point x="452" y="1761"/>
      <point x="474" y="1783" type="qcurve" smooth="yes"/>
      <point x="497" y="1804"/>
      <point x="535" y="1804" type="qcurve" smooth="yes"/>
      <point x="574" y="1804"/>
      <point x="596" y="1783" type="qcurve" smooth="yes"/>
      <point x="618" y="1761"/>
      <point x="618" y="1692"/>
      <point x="596" y="1671" type="qcurve" smooth="yes"/>
      <point x="574" y="1649"/>
      <point x="496" y="1649"/>
    </contour>
    <contour>
      <point x="846" y="1671" type="qcurve" smooth="yes"/>
      <point x="824" y="1692"/>
      <point x="824" y="1761"/>
      <point x="846" y="1783" type="qcurve" smooth="yes"/>
      <point x="868" y="1804"/>
      <point x="946" y="1804"/>
      <point x="969" y="1783" type="qcurve" smooth="yes"/>
      <point x="992" y="1761"/>
      <point x="992" y="1692"/>
      <point x="969" y="1671" type="qcurve" smooth="yes"/>
      <point x="947" y="1649"/>
      <point x="907" y="1649" type="qcurve" smooth="yes"/>
      <point x="868" y="1649"/>
    </contour>
  </outline>
</glyph>
<glyph name="Aring" format="2">
  <advance width="1443"/>
  <unicode hex="00C5"/>
  <outline>
    <contour>
      <point x="629" y="1434" type="line"/>
      <point x="815" y="1434" type="line"/>
      <point x="1403" y="0" type="line"/>
      <point x="1262" y="0" type="line"/>
      <point x="1120" y="344" type="line"/>
      <point x="324" y="344" type="line"/>
      <point x="182" y="0" type="line"/>
      <point x="41" y="0" type="line"/>
    </contour>
    <contour>
      <point x="375" y="467" type="line"/>
      <point x="1069" y="467" type="line"/>
      <point x="725" y="1315" type="line"/>
      <point x="719" y="1315" type="line"/>
    </contour>
    <contour>
      <point x="814" y="1577"/>
      <point x="721" y="1577" type="qcurve" smooth="yes"/>
      <point x="630" y="1577"/>
      <point x="577" y="1628" type="qcurve" smooth="yes"/>
      <point x="524" y="1679"/>
      <point x="524" y="1759" type="qcurve" smooth="yes"/>
      <point x="524" y="1838"/>
      <point x="577" y="1891" type="qcurve" smooth="yes"/>
      <point x="630" y="1942"/>
      <point x="721" y="1942" type="qcurve" smooth="yes"/>
      <point x="814" y="1942"/>
      <point x="866" y="1891" type="qcurve" smooth="yes"/>
      <point x="918" y="1839"/>
      <point x="918" y="1679"/>
    </contour>
    <contour>
      <point x="792" y="1825" type="qcurve" smooth="yes"/>
      <point x="768" y="1851"/>
      <point x="674" y="1851"/>
      <point x="651" y="1825" type="qcurve" smooth="yes"/>
      <point x="627" y="1798"/>
      <point x="627" y="1720"/>
      <point x="651" y="1694" type="qcurve" smooth="yes"/>
      <point x="673" y="1667"/>
      <point x="721" y="1667" type="qcurve" smooth="yes"/>
      <point x="768" y="1667"/>
      <point x="792" y="1694" type="qcurve" smooth="yes"/>
      <point x="815" y="1720"/>
      <point x="815" y="1798"/>
    </contour>
  </outline>
</glyph>
<glyph name="AE" format="2">
  <advance width="1923"/>
  <unicode hex="00C6"/>
  <outline>
    <contour>
      <point x="162" y="0" type="line"/>
      <point x="20" y="0" type="line"/>
      <point x="610" y="1434" type="line"/>
      <point x="1790" y="1434" type="line"/>
      <point x="1790" y="1311" type="line"/>
      <point x="1047" y="1311" type="line"/>
      <point x="1047" y="797" type="line"/>
      <point x="1673" y="797" type="line"/>
      <point x="1673" y="674" type="line"/>
      <point x="1047" y="674" type="line"/>
      <point x="1047" y="123" type="line"/>
      <point x="1790" y="123" type="line"/>
      <point x="1790" y="0" type="line"/>
      <point x="911" y="0" type="line"/>
      <point x="911" y="346" type="line"/>
      <point x="307" y="346" type="line"/>
      <point x="307" y="352" type="line"/>
    </contour>
    <contour>
      <point x="911" y="469" type="line"/>
      <point x="911" y="1311" type="line"/>
      <point x="700" y="1311" type="line"/>
      <point x="354" y="469" type="line"/>
    </contour>
  </outline>
</glyph>
<glyph name="Ccedilla" format="2">
  <advance width="1665"/>
  <unicode hex="00C7"/>
  <outline>
    <contour>
      <point x="664" y="-233" type="qcurve"/>
      <point x="756" y="-233" type="line"/>
      <point x="756" y="-305"/>
      <point x="850" y="-305" type="qcurve" smooth="yes"/>
      <point x="948" y="-305"/>
      <point x="948" y="-240" type="qcurve" smooth="yes"/>
      <point x="948" y="-172"/>
      <point x="850" y="-172" type="qcurve" smooth="yes"/>
      <point x="750" y="-172" type="line"/>
      <point x="750" y="-86" type="line"/>
      <point x="809" y="-18" type="line"/>
      <point x="504" y="-4"/>
      <point x="324" y="200" type="qcurve" smooth="yes"/>
      <point x="143" y="402"/>
      <point x="143" y="717" type="qcurve" smooth="yes"/>
      <point x="143" y="1042"/>
      <point x="336" y="1248" type="qcurve" smooth="yes"/>
      <point x="528" y="1454"/>
      <point x="850" y="1454" type="qcurve" smooth="yes"/>
      <point x="1028" y="1454"/>
      <point x="1169" y="1388" type="qcurve" smooth="yes"/>
      <point x="1311" y="1320"/>
      <point x="1384" y="1224" type="qcurve" smooth="yes"/>
      <point x="1456" y="1129"/>
      <point x="1532" y="946"/>
      <point x="1532" y="874" type="qcurve"/>
      <point x="1397" y="874" type="line"/>
      <point x="1397" y="937"/>
      <point x="1331" y="1054" type="qcurve" smooth="yes"/>
      <point x="1291" y="1123"/>
      <point x="1235" y="1182" type="qcurve" smooth="yes"/>
      <point x="1178" y="1240"/>
      <point x="1077" y="1284" type="qcurve" smooth="yes"/>
      <point x="976" y="1327"/>
      <point x="850" y="1327" type="qcurve" smooth="yes"/>
      <point x="587" y="1327"/>
      <point x="436" y="1155" type="qcurve" smooth="yes"/>
      <point x="283" y="982"/>
      <point x="283" y="452"/>
      <point x="436" y="279" type="qcurve" smooth="yes"/>
      <point x="588" y="106"/>
      <point x="850" y="106" type="qcurve" smooth="yes"/>
      <point x="974" y="106"/>
      <point x="1077" y="150" type="qcurve" smooth="yes"/>
      <point x="1178" y="194"/>
      <point x="1235" y="252" type="qcurve" smooth="yes"/>
      <point x="1291" y="310"/>
      <point x="1331" y="380" type="qcurve" smooth="yes"/>
      <point x="1397" y="497"/>
      <point x="1397" y="559" type="qcurve"/>
      <point x="1532" y="559" type="line"/>
      <point x="1532" y="439"/>
      <point x="1445" y="296" type="qcurve" smooth="yes"/>
      <point x="1398" y="218"/>
      <point x="1260" y="86"/>
      <point x="1149" y="38" type="qcurve" smooth="yes"/>
      <point x="1037" y="-11"/>
      <point x="907" y="-18" type="qcurve"/>
      <point x="846" y="-88" type="line"/>
      <point x="943" y="-88"/>
      <point x="1041" y="-164"/>
      <point x="1040" y="-240" type="qcurve" smooth="yes"/>
      <point x="1040" y="-310"/>
      <point x="941" y="-389"/>
      <point x="850" y="-389" type="qcurve" smooth="yes"/>
      <point x="664" y="-389"/>
    </contour>
  </outline>
</glyph>
<glyph name="Egrave" format="2">
  <advance width="1372"/>
  <unicode hex="00C8"/>
  <outline>
    <contour>
      <point x="1239" y="0" type="line"/>
      <point x="205" y="0" type="line"/>
      <point x="205" y="1434" type="line"/>
      <point x="1239" y="1434" type="line"/>
      <point x="1239" y="1311" type="line"/>
      <point x="340" y="1311" type="line"/>
      <point x="340" y="797" type="line"/>
      <point x="1122" y="797" type="line"/>
      <point x="1122" y="674" type="line"/>
      <point x="340" y="674" type="line"/>
      <point x="340" y="123" type="line"/>
      <point x="1239" y="123" type="line"/>
    </contour>
    <contour>
      <point x="348" y="1946" type="line"/>
      <point x="516" y="1946" type="line"/>
      <point x="823" y="1618" type="line"/>
      <point x="696" y="1618" type="line"/>
    </contour>
  </outline>
</glyph>
<glyph name="Eacute" format="2">
  <advance width="1372"/>
  <unicode hex="00C9"/>
  <outline>
    <contour>
      <point x="1239" y="0" type="line"/>
      <point x="205" y="0" type="line"/>
      <point x="205" y="1434" type="line"/>
      <point x="1239" y="1434" type="line"/>
      <point x="1239" y="1311" type="line"/>
      <point x="340" y="1311" type="line"/>
      <point x="340" y="797" type="line"/>
      <point x="1122" y="797" type="line"/>
      <point x="1122" y="674" type="line"/>
      <point x="340" y="674" type="line"/>
      <point x="340" y="123" type="line"/>
      <point x="1239" y="123" type="line"/>
    </contour>
    <contour>
      <point x="791" y="1618" type="line"/>
      <point x="664" y="1618" type="line"/>
      <point x="971" y="1946" type="line"/>
      <point x="1139" y="1946" type="line"/>
    </contour>
  </outline>
</glyph>
<glyph name="Edieresis" format="2">
  <advance width="1372"/>
  <unicode hex="00CB"/>
  <outline>
    <contour>
      <point x="1239" y="0" type="line"/>
      <point x="205" y="0" type="line"/>
      <point x="205" y="1434" type="line"/>
      <point x="1239" y="1434" type="line"/>
      <point x="1239" y="1311" type="line"/>
      <point x="340" y="1311" type="line"/>
      <point x="340" y="797" type="line"/>
      <point x="1122" y="797" type="line"/>
      <point x="1122" y="674" type="line"/>
      <point x="340" y="674" type="line"/>
      <point x="340" y="123" type="line"/>
      <point x="1239" y="123" type="line"/>
    </contour>
    <contour>
      <point x="486" y="1671" type="qcurve" smooth="yes"/>
      <point x="464" y="1692"/>
      <point x="464" y="1761"/>
      <point x="486" y="1783" type="qcurve" smooth="yes"/>
      <point x="508" y="1804"/>
      <point x="586" y="1804"/>
      <point x="609" y="1783" type="qcurve" smooth="yes"/>
      <point x="632" y="1761"/>
      <point x="632" y="1692"/>
      <point x="609" y="1671" type="qcurve" smooth="yes"/>
      <point x="587" y="1649"/>
      <point x="547" y="1649" type="qcurve" smooth="yes"/>
      <point x="508" y="1649"/>
    </contour>
    <contour>
      <point x="859" y="1671" type="qcurve" smooth="yes"/>
      <point x="836" y="1692"/>
      <point x="836" y="1761"/>
      <point x="859" y="1783" type="qcurve" smooth="yes"/>
      <point x="882" y="1804"/>
      <point x="958" y="1804"/>
      <point x="981" y="1783" type="qcurve" smooth="yes"/>
      <point x="1004" y="1761"/>
      <point x="1004" y="1692"/>
      <point x="981" y="1671" type="qcurve" smooth="yes"/>
      <point x="959" y="1649"/>
      <point x="881" y="1649"/>
    </contour>
  </outline>
</glyph>
<glyph name="Igrave" format="2">
  <advance width="1159"/>
  <unicode hex="00CC"/>
  <outline>
    <contour>
      <point x="123" y="1434" type="line"/>
      <point x="1036" y="1434" type="line"/>
      <point x="1036" y="1311" type="line"/>
      <point x="647" y="1311" type="line"/>
      <point x="647" y="123" type="line"/>
      <point x="1036" y="123" type="line"/>
      <point x="1036" y="0" type="line"/>
      <point x="123" y="0" type="line"/>
      <point x="123" y="123" type="line"/>
      <point x="512" y="123" type="line"/>
      <point x="512" y="1311" type="line"/>
      <point x="123" y="1311" type="line"/>
    </contour>
    <contour>
      <point x="178" y="1946" type="line"/>
      <point x="346" y="1946" type="line"/>
      <point x="653" y="1618" type="line"/>
      <point x="526" y="1618" type="line"/>
    </contour>
  </outline>
</glyph>
<glyph name="Iacute" format="2">
  <advance width="1159"/>
  <unicode hex="00CD"/>
  <outline>
    <contour>
      <point x="123" y="1434" type="line"/>
      <point x="1036" y="1434" type="line"/>
      <point x="1036" y="1311" type="line"/>
      <point x="647" y="1311" type="line"/>
      <point x="647" y="123" type="line"/>
      <point x="1036" y="123" type="line"/>
      <point x="1036" y="0" type="line"/>
      <point x="123" y="0" type="line"/>
      <point x="123" y="123" type="line"/>
      <point x="512" y="123" type="line"/>
      <point x="512" y="1311" type="line"/>
      <point x="123" y="1311" type="line"/>
    </contour>
    <contour>
      <point x="635" y="1616" type="line"/>
      <point x="508" y="1616" type="line"/>
      <point x="815" y="1944" type="line"/>
      <point x="983" y="1944" type="line"/>
    </contour>
  </outline>
</glyph>
<glyph name="Icircumflex" format="2">
  <advance width="1159"/>
  <unicode hex="00CE"/>
  <outline>
    <contour>
      <point x="123" y="1434" type="line"/>
      <point x="1036" y="1434" type="line"/>
      <point x="1036" y="1311" type="line"/>
      <point x="647" y="1311" type="line"/>
      <point x="647" y="123" type="line"/>
      <point x="1036" y="123" type="line"/>
      <point x="1036" y="0" type="line"/>
      <point x="123" y="0" type="line"/>
      <point x="123" y="123" type="line"/>
      <point x="512" y="123" type="line"/>
      <point x="512" y="1311" type="line"/>
      <point x="123" y="1311" type="line"/>
    </contour>
    <contour>
      <point x="932" y="1618" type="line"/>
      <point x="797" y="1618" type="line"/>
      <point x="580" y="1878" type="line"/>
      <point x="362" y="1618" type="line"/>
      <point x="227" y="1618" type="line"/>
      <point x="504" y="1946" type="line"/>
      <point x="655" y="1946" type="line"/>
    </contour>
  </outline>
</glyph>
<glyph name="Idieresis" format="2">
  <advance width="1159"/>
  <unicode hex="00CF"/>
  <outline>
    <contour>
      <point x="123" y="1434" type="line"/>
      <point x="1036" y="1434" type="line"/>
      <point x="1036" y="1311" type="line"/>
      <point x="647" y="1311" type="line"/>
      <point x="647" y="123" type="line"/>
      <point x="1036" y="123" type="line"/>
      <point x="1036" y="0" type="line"/>
      <point x="123" y="0" type="line"/>
      <point x="123" y="123" type="line"/>
      <point x="512" y="123" type="line"/>
      <point x="512" y="1311" type="line"/>
      <point x="123" y="1311" type="line"/>
    </contour>
    <contour>
      <point x="332" y="1671" type="qcurve" smooth="yes"/>
      <point x="310" y="1692"/>
      <point x="310" y="1761"/>
      <point x="332" y="1783" type="qcurve" smooth="yes"/>
      <point x="355" y="1804"/>
      <point x="393" y="1804" type="qcurve" smooth="yes"/>
      <point x="432" y="1804"/>
      <point x="455" y="1783" type="qcurve" smooth="yes"/>
      <point x="478" y="1761"/>
      <point x="478" y="1692"/>
      <point x="455" y="1671" type="qcurve" smooth="yes"/>
      <point x="433" y="1649"/>
      <point x="393" y="1649" type="qcurve" smooth="yes"/>
      <point x="354" y="1649"/>
    </contour>
    <contour>
      <point x="705" y="1671" type="qcurve" smooth="yes"/>
      <point x="682" y="1692"/>
      <point x="682" y="1761"/>
      <point x="705" y="1783" type="qcurve" smooth="yes"/>
      <point x="728" y="1804"/>
      <point x="766" y="1804" type="qcurve" smooth="yes"/>
      <point x="806" y="1804"/>
      <point x="828" y="1783" type="qcurve" smooth="yes"/>
      <point x="850" y="1761"/>
      <point x="850" y="1692"/>
      <point x="828" y="1671" type="qcurve" smooth="yes"/>
      <point x="806" y="1649"/>
      <point x="766" y="1649" type="qcurve" smooth="yes"/>
      <point x="727" y="1649"/>
    </contour>
  </outline>
</glyph>
<glyph name="Eth" format="2">
  <advance width="1626"/>
  <unicode hex="00D0"/>
  <outline>
    <contour>
      <point x="262" y="1434" type="line"/>
      <point x="778" y="1434" type="line" smooth="yes"/>
      <point x="1097" y="1434"/>
      <point x="1483" y="1030"/>
      <point x="1483" y="717" type="qcurve" smooth="yes"/>
      <point x="1483" y="403"/>
      <point x="1291" y="202" type="qcurve" smooth="yes"/>
      <point x="1098" y="0"/>
      <point x="778" y="0" type="qcurve" smooth="yes"/>
      <point x="262" y="0" type="line"/>
      <point x="262" y="676" type="line"/>
      <point x="41" y="676" type="line"/>
      <point x="41" y="799" type="line"/>
      <point x="262" y="799" type="line"/>
    </contour>
    <contour>
      <point x="1191" y="291" type="qcurve" smooth="yes"/>
      <point x="1343" y="460"/>
      <point x="1343" y="974"/>
      <point x="1191" y="1143" type="qcurve" smooth="yes"/>
      <point x="1038" y="1311"/>
      <point x="778" y="1311" type="qcurve" smooth="yes"/>
      <point x="397" y="1311" type="line"/>
      <point x="397" y="799" type="line"/>
      <point x="729" y="799" type="line"/>
      <point x="729" y="676" type="line"/>
      <point x="397" y="676" type="line"/>
      <point x="397" y="123" type="line"/>
      <point x="778" y="123" type="line" smooth="yes"/>
      <point x="1038" y="123"/>
    </contour>
  </outline>
</glyph>
<glyph name="Ntilde" format="2">
  <advance width="1611"/>
  <unicode hex="00D1"/>
  <outline>
    <contour>
      <point x="1407" y="0" type="line"/>
      <point x="1196" y="0" type="line"/>
      <point x="344" y="1286" type="line"/>
      <point x="340" y="1286" type="line"/>
      <point x="340" y="0" type="line"/>
      <point x="205" y="0" type="line"/>
      <point x="205" y="1434" type="line"/>
      <point x="418" y="1434" type="line"/>
      <point x="1268" y="147" type="line"/>
      <point x="1272" y="147" type="line"/>
      <point x="1272" y="1434" type="line"/>
      <point x="1407" y="1434" type="line"/>
    </contour>
    <contour>
      <point x="672" y="1602" type="qcurve" smooth="yes"/>
      <point x="592" y="1602"/>
      <point x="504" y="1681"/>
      <point x="504" y="1751" type="qcurve"/>
      <point x="512" y="1821" type="line"/>
      <point x="616" y="1821" type="line"/>
      <point x="610" y="1798"/>
      <point x="610" y="1769" type="qcurve" smooth="yes"/>
      <point x="610" y="1699"/>
      <point x="686" y="1700" type="qcurve" smooth="yes"/>
      <point x="733" y="1700"/>
      <point x="832" y="1769" type="qcurve" smooth="yes"/>
      <point x="930" y="1837"/>
      <point x="1020" y="1837" type="qcurve" smooth="yes"/>
      <point x="1099" y="1837"/>
      <point x="1188" y="1758"/>
      <point x="1188" y="1690" type="qcurve"/>
      <point x="1180" y="1618" type="line"/>
      <point x="1075" y="1618" type="line"/>
      <point x="1081" y="1641"/>
      <point x="1081" y="1671" type="qcurve" smooth="yes"/>
      <point x="1081" y="1739"/>
      <point x="1004" y="1739" type="qcurve" smooth="yes"/>
      <point x="977" y="1741"/>
      <point x="897" y="1698"/>
      <point x="823" y="1644"/>
      <point x="719" y="1600"/>
    </contour>
  </outline>
</glyph>
<glyph name="Otilde" format="2">
  <advance width="1695"/>
  <unicode hex="00D5"/>
  <outline>
    <contour>
      <point x="335" y="187" type="qcurve" smooth="yes"/>
      <point x="143" y="393"/>
      <point x="143" y="717" type="qcurve" smooth="yes"/>
      <point x="143" y="1040"/>
      <point x="335" y="1247" type="qcurve" smooth="yes"/>
      <point x="526" y="1454"/>
      <point x="848" y="1454" type="qcurve" smooth="yes"/>
      <point x="1169" y="1454"/>
      <point x="1361" y="1247" type="qcurve" smooth="yes"/>
      <point x="1552" y="1039"/>
      <point x="1552" y="717" type="qcurve" smooth="yes"/>
      <point x="1552" y="393"/>
      <point x="1361" y="187" type="qcurve" smooth="yes"/>
      <point x="1169" y="-20"/>
      <point x="848" y="-20" type="qcurve" smooth="yes"/>
      <point x="526" y="-20"/>
    </contour>
    <contour>
      <point x="1260" y="279" type="qcurve" smooth="yes"/>
      <point x="1413" y="452"/>
      <point x="1413" y="982"/>
      <point x="1260" y="1155" type="qcurve" smooth="yes"/>
      <point x="1106" y="1327"/>
      <point x="590" y="1327"/>
      <point x="437" y="1155" type="qcurve" smooth="yes"/>
      <point x="283" y="983"/>
      <point x="283" y="451"/>
      <point x="437" y="279" type="qcurve" smooth="yes"/>
      <point x="590" y="106"/>
      <point x="848" y="106" type="qcurve" smooth="yes"/>
      <point x="1105" y="106"/>
    </contour>
    <contour>
      <point x="674" y="1602" type="qcurve" smooth="yes"/>
      <point x="594" y="1602"/>
      <point x="506" y="1681"/>
      <point x="506" y="1751" type="qcurve"/>
      <point x="514" y="1821" type="line"/>
      <point x="618" y="1821" type="line"/>
      <point x="612" y="1798"/>
      <point x="612" y="1769" type="qcurve" smooth="yes"/>
      <point x="612" y="1699"/>
      <point x="688" y="1700" type="qcurve" smooth="yes"/>
      <point x="734" y="1700"/>
      <point x="835" y="1769" type="qcurve" smooth="yes"/>
      <point x="935" y="1837"/>
      <point x="1022" y="1837" type="qcurve" smooth="yes"/>
      <point x="1101" y="1837"/>
      <point x="1190" y="1758"/>
      <point x="1190" y="1690" type="qcurve"/>
      <point x="1182" y="1618" type="line"/>
      <point x="1077" y="1618" type="line"/>
      <point x="1083" y="1641"/>
      <point x="1083" y="1671" type="qcurve" smooth="yes"/>
      <point x="1083" y="1739"/>
      <point x="1006" y="1739" type="qcurve" smooth="yes"/>
      <point x="979" y="1741"/>
      <point x="899" y="1698"/>
      <point x="825" y="1644"/>
      <point x="721" y="1600"/>
    </contour>
  </outline>
</glyph>
<glyph name="Odieresis" format="2">
  <advance width="1695"/>
  <unicode hex="00D6"/>
  <outline>
    <contour>
      <point x="335" y="187" type="qcurve" smooth="yes"/>
      <point x="143" y="393"/>
      <point x="143" y="717" type="qcurve" smooth="yes"/>
      <point x="143" y="1040"/>
      <point x="335" y="1247" type="qcurve" smooth="yes"/>
      <point x="526" y="1454"/>
      <point x="848" y="1454" type="qcurve" smooth="yes"/>
      <point x="1169" y="1454"/>
      <point x="1361" y="1247" type="qcurve" smooth="yes"/>
      <point x="1552" y="1039"/>
      <point x="1552" y="717" type="qcurve" smooth="yes"/>
      <point x="1552" y="393"/>
      <point x="1361" y="187" type="qcurve" smooth="yes"/>
      <point x="1169" y="-20"/>
      <point x="848" y="-20" type="qcurve" smooth="yes"/>
      <point x="526" y="-20"/>
    </contour>
    <contour>
      <point x="1260" y="279" type="qcurve" smooth="yes"/>
      <point x="1413" y="452"/>
      <point x="1413" y="982"/>
      <point x="1260" y="1155" type="qcurve" smooth="yes"/>
      <point x="1106" y="1327"/>
      <point x="590" y="1327"/>
      <point x="437" y="1155" type="qcurve" smooth="yes"/>
      <point x="283" y="983"/>
      <point x="283" y="451"/>
      <point x="437" y="279" type="qcurve" smooth="yes"/>
      <point x="590" y="106"/>
      <point x="848" y="106" type="qcurve" smooth="yes"/>
      <point x="1105" y="106"/>
    </contour>
    <contour>
      <point x="601" y="1671" type="qcurve" smooth="yes"/>
      <point x="578" y="1692"/>
      <point x="578" y="1761"/>
      <point x="601" y="1783" type="qcurve" smooth="yes"/>
      <point x="624" y="1804"/>
      <point x="700" y="1804"/>
      <point x="723" y="1783" type="qcurve" smooth="yes"/>
      <point x="746" y="1761"/>
      <point x="746" y="1692"/>
      <point x="723" y="1671" type="qcurve" smooth="yes"/>
      <point x="701" y="1649"/>
      <point x="623" y="1649"/>
    </contour>
    <contour>
      <point x="973" y="1671" type="qcurve" smooth="yes"/>
      <point x="950" y="1692"/>
      <point x="950" y="1761"/>
      <point x="973" y="1783" type="qcurve" smooth="yes"/>
      <point x="996" y="1804"/>
      <point x="1034" y="1804" type="qcurve" smooth="yes"/>
      <point x="1074" y="1804"/>
      <point x="1096" y="1783" type="qcurve" smooth="yes"/>
      <point x="1118" y="1761"/>
      <point x="1118" y="1692"/>
      <point x="1096" y="1671" type="qcurve" smooth="yes"/>
      <point x="1074" y="1649"/>
      <point x="1034" y="1649" type="qcurve" smooth="yes"/>
      <point x="995" y="1649"/>
    </contour>
  </outline>
</glyph>
<glyph name="multiply" format="2">
  <advance width="880"/>
  <unicode hex="00D7"/>
  <outline>
    <contour>
      <point x="694" y="866" type="line"/>
      <point x="778" y="782" type="line"/>
      <point x="524" y="528" type="line"/>
      <point x="778" y="274" type="line"/>
      <point x="694" y="190" type="line"/>
      <point x="440" y="444" type="line"/>
      <point x="186" y="190" type="line"/>
      <point x="102" y="274" type="line"/>
      <point x="356" y="528" type="line"/>
      <point x="102" y="782" type="line"/>
      <point x="186" y="866" type="line"/>
      <point x="440" y="612" type="line"/>
    </contour>
  </outline>
</glyph>
<glyph name="Oslash" format="2">
  <advance width="1695"/>
  <unicode hex="00D8"/>
  <outline>
    <contour>
      <point x="262" y="279" type="line"/>
      <point x="94" y="176" type="line"/>
      <point x="31" y="291" type="line"/>
      <point x="203" y="395" type="line"/>
      <point x="144" y="524"/>
      <point x="143" y="717" type="qcurve" smooth="yes"/>
      <point x="143" y="1041"/>
      <point x="335" y="1248" type="qcurve" smooth="yes"/>
      <point x="526" y="1454"/>
      <point x="848" y="1454" type="qcurve" smooth="yes"/>
      <point x="964" y="1454"/>
      <point x="1068" y="1424" type="qcurve" smooth="yes"/>
      <point x="1171" y="1393"/>
      <point x="1235" y="1348" type="qcurve" smooth="yes"/>
      <point x="1365" y="1255"/>
      <point x="1413" y="1184" type="qcurve" smooth="yes"/>
      <point x="1432" y="1153" type="line"/>
      <point x="1602" y="1257" type="line"/>
      <point x="1665" y="1143" type="line"/>
      <point x="1493" y="1036" type="line"/>
      <point x="1552" y="907"/>
      <point x="1552" y="717" type="qcurve" smooth="yes"/>
      <point x="1552" y="393"/>
      <point x="1361" y="187" type="qcurve" smooth="yes"/>
      <point x="1169" y="-20"/>
      <point x="848" y="-20" type="qcurve" smooth="yes"/>
      <point x="727" y="-20"/>
      <point x="625" y="11" type="qcurve" smooth="yes"/>
      <point x="521" y="41"/>
      <point x="457" y="85" type="qcurve" smooth="yes"/>
      <point x="325" y="177"/>
      <point x="283" y="248" type="qcurve"/>
    </contour>
    <contour>
      <point x="283" y="717" type="qcurve" smooth="yes"/>
      <point x="283" y="651"/>
      <point x="293" y="591" type="qcurve" smooth="yes"/>
      <point x="304" y="524"/>
      <point x="313" y="500" type="qcurve" smooth="yes"/>
      <point x="324" y="469" type="line"/>
      <point x="1315" y="1081" type="line"/>
      <point x="1305" y="1099"/>
      <point x="1299" y="1108" type="qcurve" smooth="yes"/>
      <point x="1291" y="1120"/>
      <point x="1247" y="1166" type="qcurve" smooth="yes"/>
      <point x="1207" y="1207"/>
      <point x="1158" y="1241" type="qcurve" smooth="yes"/>
      <point x="1110" y="1274"/>
      <point x="1026" y="1301" type="qcurve" smooth="yes"/>
      <point x="940" y="1327"/>
      <point x="848" y="1327" type="qcurve" smooth="yes"/>
      <point x="590" y="1327"/>
      <point x="437" y="1155" type="qcurve" smooth="yes"/>
      <point x="283" y="983"/>
    </contour>
    <contour>
      <point x="1413" y="717" type="qcurve" smooth="yes"/>
      <point x="1413" y="783"/>
      <point x="1393" y="901"/>
      <point x="1382" y="934" type="qcurve" smooth="yes"/>
      <point x="1372" y="963" type="line"/>
      <point x="379" y="350" type="line"/>
      <point x="381" y="346"/>
      <point x="393" y="329"/>
      <point x="396" y="324" type="qcurve" smooth="yes"/>
      <point x="407" y="306"/>
      <point x="447" y="265" type="qcurve" smooth="yes"/>
      <point x="486" y="224"/>
      <point x="537" y="192" type="qcurve" smooth="yes"/>
      <point x="589" y="159"/>
      <point x="670" y="133" type="qcurve" smooth="yes"/>
      <point x="754" y="106"/>
      <point x="848" y="106" type="qcurve" smooth="yes"/>
      <point x="1105" y="106"/>
      <point x="1260" y="279" type="qcurve" smooth="yes"/>
      <point x="1413" y="452"/>
    </contour>
  </outline>
</glyph>
<glyph name="Ugrave" format="2">
  <advance width="1564"/>
  <unicode hex="00D9"/>
  <outline>
    <contour>
      <point x="1245" y="481" type="qcurve" smooth="yes"/>
      <point x="1245" y="1434" type="line"/>
      <point x="1380" y="1434" type="line"/>
      <point x="1380" y="475" type="line" smooth="yes"/>
      <point x="1380" y="230"/>
      <point x="1211" y="106" type="qcurve" smooth="yes"/>
      <point x="1042" y="-20"/>
      <point x="522" y="-20"/>
      <point x="353" y="106" type="qcurve" smooth="yes"/>
      <point x="184" y="230"/>
      <point x="184" y="475" type="qcurve" smooth="yes"/>
      <point x="184" y="1434" type="line"/>
      <point x="319" y="1434" type="line"/>
      <point x="319" y="481" type="line" smooth="yes"/>
      <point x="319" y="296"/>
      <point x="451" y="202" type="qcurve" smooth="yes"/>
      <point x="582" y="106"/>
      <point x="984" y="106"/>
      <point x="1114" y="202" type="qcurve" smooth="yes"/>
      <point x="1245" y="297"/>
    </contour>
    <contour>
      <point x="395" y="1946" type="line"/>
      <point x="563" y="1946" type="line"/>
      <point x="870" y="1618" type="line"/>
      <point x="743" y="1618" type="line"/>
    </contour>
  </outline>
</glyph>
<glyph name="Ucircumflex" format="2">
  <advance width="1564"/>
  <unicode hex="00DB"/>
  <outline>
    <contour>
      <point x="1245" y="481" type="qcurve" smooth="yes"/>
      <point x="1245" y="1434" type="line"/>
      <point x="1380" y="1434" type="line"/>
      <point x="1380" y="475" type="line" smooth="yes"/>
      <point x="1380" y="230"/>
      <point x="1211" y="106" type="qcurve" smooth="yes"/>
      <point x="1042" y="-20"/>
      <point x="522" y="-20"/>
      <point x="353" y="106" type="qcurve" smooth="yes"/>
      <point x="184" y="230"/>
      <point x="184" y="475" type="qcurve" smooth="yes"/>
      <point x="184" y="1434" type="line"/>
      <point x="319" y="1434" type="line"/>
      <point x="319" y="481" type="line" smooth="yes"/>
      <point x="319" y="296"/>
      <point x="451" y="202" type="qcurve" smooth="yes"/>
      <point x="582" y="106"/>
      <point x="984" y="106"/>
      <point x="1114" y="202" type="qcurve" smooth="yes"/>
      <point x="1245" y="297"/>
    </contour>
    <contour>
      <point x="1137" y="1618" type="line"/>
      <point x="1001" y="1618" type="line"/>
      <point x="784" y="1878" type="line"/>
      <point x="567" y="1618" type="line"/>
      <point x="432" y="1618" type="line"/>
      <point x="709" y="1946" type="line"/>
      <point x="860" y="1946" type="line"/>
    </contour>
  </outline>
</glyph>
<glyph name="Udieresis" format="2">
  <advance width="1564"/>
  <unicode hex="00DC"/>
  <outline>
    <contour>
      <point x="1245" y="481" type="qcurve" smooth="yes"/>
      <point x="1245" y="1434" type="line"/>
      <point x="1380" y="1434" type="line"/>
      <point x="1380" y="475" type="line" smooth="yes"/>
      <point x="1380" y="230"/>
      <point x="1211" y="106" type="qcurve" smooth="yes"/>
      <point x="1042" y="-20"/>
      <point x="522" y="-20"/>
      <point x="353" y="106" type="qcurve" smooth="yes"/>
      <point x="184" y="230"/>
      <point x="184" y="475" type="qcurve" smooth="yes"/>
      <point x="184" y="1434" type="line"/>
      <point x="319" y="1434" type="line"/>
      <point x="319" y="481" type="line" smooth="yes"/>
      <point x="319" y="296"/>
      <point x="451" y="202" type="qcurve" smooth="yes"/>
      <point x="582" y="106"/>
      <point x="984" y="106"/>
      <point x="1114" y="202" type="qcurve" smooth="yes"/>
      <point x="1245" y="297"/>
    </contour>
    <contour>
      <point x="535" y="1671" type="qcurve" smooth="yes"/>
      <point x="512" y="1692"/>
      <point x="512" y="1761"/>
      <point x="535" y="1783" type="qcurve" smooth="yes"/>
      <point x="557" y="1804"/>
      <point x="596" y="1804" type="qcurve" smooth="yes"/>
      <point x="636" y="1804"/>
      <point x="658" y="1783" type="qcurve" smooth="yes"/>
      <point x="680" y="1761"/>
      <point x="680" y="1692"/>
      <point x="658" y="1671" type="qcurve" smooth="yes"/>
      <point x="636" y="1649"/>
      <point x="596" y="1649" type="qcurve" smooth="yes"/>
      <point x="557" y="1649"/>
    </contour>
    <contour>
      <point x="908" y="1671" type="qcurve" smooth="yes"/>
      <point x="886" y="1692"/>
      <point x="886" y="1761"/>
      <point x="908" y="1783" type="qcurve" smooth="yes"/>
      <point x="930" y="1804"/>
      <point x="1008" y="1804"/>
      <point x="1031" y="1783" type="qcurve" smooth="yes"/>
      <point x="1054" y="1761"/>
      <point x="1054" y="1692"/>
      <point x="1031" y="1671" type="qcurve" smooth="yes"/>
      <point x="1009" y="1649"/>
      <point x="969" y="1649" type="qcurve" smooth="yes"/>
      <point x="930" y="1649"/>
    </contour>
  </outline>
</glyph>
<glyph name="Yacute" format="2">
  <advance width="1345"/>
  <unicode hex="00DD"/>
  <outline>
    <contour>
      <point x="745" y="0" type="line"/>
      <point x="600" y="0" type="line"/>
      <point x="600" y="541" type="line"/>
      <point x="41" y="1434" type="line"/>
      <point x="193" y="1434" type="line"/>
      <point x="670" y="674" type="line"/>
      <point x="676" y="674" type="line"/>
      <point x="1153" y="1434" type="line"/>
      <point x="1305" y="1434" type="line"/>
      <point x="745" y="541" type="line"/>
    </contour>
    <contour>
      <point x="727" y="1618" type="line"/>
      <point x="600" y="1618" type="line"/>
      <point x="907" y="1946" type="line"/>
      <point x="1075" y="1946" type="line"/>
    </contour>
  </outline>
</glyph>
<glyph name="Thorn" format="2">
  <advance width="1447"/>
  <unicode hex="00DE"/>
  <outline>
    <contour>
      <point x="762" y="264" type="qcurve" smooth="yes"/>
      <point x="340" y="264" type="line"/>
      <point x="340" y="0" type="line"/>
      <point x="205" y="0" type="line"/>
      <point x="205" y="1434" type="line"/>
      <point x="340" y="1434" type="line"/>
      <point x="340" y="1186" type="line"/>
      <point x="762" y="1186" type="line" smooth="yes"/>
      <point x="1029" y="1186"/>
      <point x="1315" y="949"/>
      <point x="1315" y="501"/>
      <point x="1029" y="264"/>
    </contour>
    <contour>
      <point x="340" y="1063" type="line"/>
      <point x="340" y="387" type="line"/>
      <point x="762" y="387" type="line" smooth="yes"/>
      <point x="963" y="387"/>
      <point x="1176" y="558"/>
      <point x="1176" y="892"/>
      <point x="963" y="1063"/>
      <point x="762" y="1063" type="qcurve" smooth="yes"/>
    </contour>
  </outline>
</glyph>
<glyph name="germandbls" format="2">
  <advance width="1343"/>
  <unicode hex="00DF"/>
  <outline>
    <contour>
      <point x="354" y="1047" type="qcurve" smooth="yes"/>
      <point x="354" y="0" type="line"/>
      <point x="227" y="0" type="line"/>
      <point x="227" y="885" type="line"/>
      <point x="51" y="885" type="line"/>
      <point x="51" y="1004" type="line"/>
      <point x="227" y="1004" type="line"/>
      <point x="227" y="1061" type="line" smooth="yes"/>
      <point x="227" y="1256"/>
      <point x="447" y="1454"/>
      <point x="635" y="1454" type="qcurve" smooth="yes"/>
      <point x="816" y="1454"/>
      <point x="1034" y="1272"/>
      <point x="1034" y="1128" type="qcurve" smooth="yes"/>
      <point x="1034" y="1060"/>
      <point x="980" y="945"/>
      <point x="941" y="914" type="qcurve" smooth="yes"/>
      <point x="848" y="840"/>
      <point x="848" y="788" type="qcurve" smooth="yes"/>
      <point x="848" y="759"/>
      <point x="901" y="695"/>
      <point x="961" y="653"/>
      <point x="1076" y="580"/>
      <point x="1102" y="561" type="qcurve" smooth="yes"/>
      <point x="1164" y="516"/>
      <point x="1241" y="386"/>
      <point x="1241" y="309" type="qcurve" smooth="yes"/>
      <point x="1241" y="159"/>
      <point x="1140" y="70" type="qcurve" smooth="yes"/>
      <point x="1038" y="-20"/>
      <point x="852" y="-20" type="qcurve" smooth="yes"/>
      <point x="757" y="-20"/>
      <point x="605" y="31"/>
      <point x="567" y="72" type="qcurve" smooth="yes"/>
      <point x="493" y="150"/>
      <point x="479" y="215" type="qcurve"/>
      <point x="475" y="242" type="line"/>
      <point x="606" y="242" type="line"/>
      <point x="605" y="236"/>
      <point x="614" y="207"/>
      <point x="645" y="164"/>
      <point x="694" y="125"/>
      <point x="784" y="98"/>
      <point x="842" y="98" type="qcurve" smooth="yes"/>
      <point x="975" y="98"/>
      <point x="1114" y="212"/>
      <point x="1114" y="309" type="qcurve" smooth="yes"/>
      <point x="1114" y="420"/>
      <point x="975" y="506" type="qcurve" smooth="yes"/>
      <point x="937" y="529"/>
      <point x="861" y="577" type="qcurve" smooth="yes"/>
      <point x="799" y="615"/>
      <point x="721" y="725"/>
      <point x="721" y="788" type="qcurve" smooth="yes"/>
      <point x="721" y="879"/>
      <point x="814" y="949" type="qcurve" smooth="yes"/>
      <point x="854" y="978"/>
      <point x="907" y="1071"/>
      <point x="907" y="1126" type="qcurve" smooth="yes"/>
      <point x="907" y="1222"/>
      <point x="830" y="1279" type="qcurve" smooth="yes"/>
      <point x="751" y="1335"/>
      <point x="635" y="1335" type="qcurve" smooth="yes"/>
      <point x="495" y="1336"/>
      <point x="354" y="1192"/>
    </contour>
  </outline>
</glyph>
<glyph name="adieresis" format="2">
  <advance width="1292"/>
  <unicode hex="00E4"/>
  <outline>
    <contour>
      <point x="123" y="274" type="qcurve" smooth="yes"/>
      <point x="123" y="420"/>
      <point x="255" y="497" type="qcurve" smooth="yes"/>
      <point x="386" y="573"/>
      <point x="586" y="573" type="qcurve" smooth="yes"/>
      <point x="691" y="573"/>
      <point x="787" y="547" type="qcurve" smooth="yes"/>
      <point x="882" y="520"/>
      <point x="922" y="496" type="qcurve" smooth="yes"/>
      <point x="965" y="469" type="line"/>
      <point x="965" y="653" type="line" smooth="yes"/>
      <point x="965" y="776"/>
      <point x="872" y="841" type="qcurve" smooth="yes"/>
      <point x="778" y="905"/>
      <point x="639" y="905" type="qcurve" smooth="yes"/>
      <point x="503" y="905"/>
      <point x="403" y="849" type="qcurve" smooth="yes"/>
      <point x="303" y="794"/>
      <point x="303" y="711" type="qcurve"/>
      <point x="176" y="711" type="line"/>
      <point x="181" y="835"/>
      <point x="299" y="929" type="qcurve" smooth="yes"/>
      <point x="418" y="1024"/>
      <point x="635" y="1024" type="qcurve" smooth="yes"/>
      <point x="831" y="1024"/>
      <point x="961" y="930" type="qcurve" smooth="yes"/>
      <point x="1092" y="835"/>
      <point x="1092" y="653" type="qcurve" smooth="yes"/>
      <point x="1092" y="229" type="line" smooth="yes"/>
      <point x="1092" y="157"/>
      <point x="1137" y="98"/>
      <point x="1190" y="98" type="qcurve" smooth="yes"/>
      <point x="1224" y="98"/>
      <point x="1245" y="106" type="qcurve"/>
      <point x="1251" y="111" type="line"/>
      <point x="1251" y="0" type="line"/>
      <point x="1223" y="-14"/>
      <point x="1169" y="-14" type="qcurve" smooth="yes"/>
      <point x="1074" y="-14"/>
      <point x="1033" y="29" type="qcurve" smooth="yes"/>
      <point x="991" y="70"/>
      <point x="983" y="94" type="qcurve" smooth="yes"/>
      <point x="981" y="106" type="line"/>
      <point x="975" y="106" type="line"/>
      <point x="968" y="94"/>
      <point x="915" y="63" type="qcurve" smooth="yes"/>
      <point x="878" y="40"/>
      <point x="839" y="24" type="qcurve" smooth="yes"/>
      <point x="742" y="-20"/>
      <point x="594" y="-20" type="qcurve" smooth="yes"/>
      <point x="387" y="-20"/>
      <point x="123" y="124"/>
    </contour>
    <contour>
      <point x="254" y="274" type="qcurve" smooth="yes"/>
      <point x="254" y="98"/>
      <point x="610" y="98" type="qcurve" smooth="yes"/>
      <point x="715" y="98"/>
      <point x="805" y="129" type="qcurve" smooth="yes"/>
      <point x="894" y="160"/>
      <point x="923" y="180" type="qcurve" smooth="yes"/>
      <point x="950" y="200"/>
      <point x="965" y="213" type="qcurve"/>
      <point x="965" y="354" type="line"/>
      <point x="958" y="363"/>
      <point x="926" y="383" type="qcurve" smooth="yes"/>
      <point x="890" y="404"/>
      <point x="804" y="429" type="qcurve" smooth="yes"/>
      <point x="714" y="455"/>
      <point x="610" y="455" type="qcurve" smooth="yes"/>
      <point x="400" y="455"/>
      <point x="307" y="382" type="qcurve" smooth="yes"/>
      <point x="254" y="340"/>
    </contour>
    <contour>
      <point x="392" y="1251" type="qcurve" smooth="yes"/>
      <point x="370" y="1272"/>
      <point x="370" y="1341"/>
      <point x="392" y="1363" type="qcurve" smooth="yes"/>
      <point x="414" y="1384"/>
      <point x="492" y="1384"/>
      <point x="515" y="1363" type="qcurve" smooth="yes"/>
      <point x="538" y="1341"/>
      <point x="538" y="1272"/>
      <point x="515" y="1251" type="qcurve" smooth="yes"/>
      <point x="493" y="1229"/>
      <point x="453" y="1229" type="qcurve" smooth="yes"/>
      <point x="414" y="1229"/>
    </contour>
    <contour>
      <point x="764" y="1251" type="qcurve" smooth="yes"/>
      <point x="742" y="1272"/>
      <point x="742" y="1341"/>
      <point x="764" y="1363" type="qcurve" smooth="yes"/>
      <point x="786" y="1384"/>
      <point x="864" y="1384"/>
      <point x="887" y="1363" type="qcurve" smooth="yes"/>
      <point x="910" y="1341"/>
      <point x="910" y="1272"/>
      <point x="887" y="1251" type="qcurve" smooth="yes"/>
      <point x="865" y="1229"/>
      <point x="825" y="1229" type="qcurve" smooth="yes"/>
      <point x="786" y="1229"/>
    </contour>
  </outline>
</glyph>
<glyph name="ae" format="2">
  <advance width="2093"/>
  <unicode hex="00E6"/>
  <outline>
    <contour>
      <point x="1960" y="514" type="qcurve"/>
      <point x="1956" y="442" type="line"/>
      <point x="1114" y="442" type="line"/>
      <point x="1114" y="295"/>
      <point x="1218" y="197" type="qcurve" smooth="yes"/>
      <point x="1322" y="98"/>
      <point x="1501" y="98" type="qcurve" smooth="yes"/>
      <point x="1568" y="98"/>
      <point x="1684" y="130"/>
      <point x="1717" y="154" type="qcurve" smooth="yes"/>
      <point x="1781" y="202"/>
      <point x="1794" y="240" type="qcurve"/>
      <point x="1802" y="256" type="line"/>
      <point x="1937" y="256" type="line"/>
      <point x="1928" y="219"/>
      <point x="1891" y="160" type="qcurve" smooth="yes"/>
      <point x="1858" y="111"/>
      <point x="1817" y="76" type="qcurve" smooth="yes"/>
      <point x="1773" y="38"/>
      <point x="1693" y="10" type="qcurve" smooth="yes"/>
      <point x="1612" y="-20"/>
      <point x="1513" y="-20" type="qcurve" smooth="yes"/>
      <point x="1415" y="-20"/>
      <point x="1244" y="31"/>
      <point x="1193" y="70" type="qcurve" smooth="yes"/>
      <point x="1091" y="147"/>
      <point x="1063" y="209" type="qcurve" smooth="yes"/>
      <point x="1051" y="236" type="line"/>
      <point x="1047" y="236" type="line" smooth="yes"/>
      <point x="1046" y="234"/>
      <point x="1042" y="224"/>
      <point x="1037" y="213"/>
      <point x="1035" y="208" type="qcurve" smooth="yes"/>
      <point x="1025" y="189"/>
      <point x="990" y="146" type="qcurve" smooth="yes"/>
      <point x="954" y="102"/>
      <point x="907" y="69" type="qcurve" smooth="yes"/>
      <point x="862" y="36"/>
      <point x="770" y="8" type="qcurve" smooth="yes"/>
      <point x="682" y="-20"/>
      <point x="571" y="-20" type="qcurve" smooth="yes"/>
      <point x="356" y="-20"/>
      <point x="123" y="127"/>
      <point x="123" y="262" type="qcurve" smooth="yes"/>
      <point x="123" y="406"/>
      <point x="355" y="561"/>
      <point x="563" y="561" type="qcurve" smooth="yes"/>
      <point x="983" y="561" type="line"/>
      <point x="983" y="717"/>
      <point x="885" y="812" type="qcurve" smooth="yes"/>
      <point x="785" y="907"/>
      <point x="631" y="907" type="qcurve" smooth="yes"/>
      <point x="550" y="907"/>
      <point x="422" y="870"/>
      <point x="388" y="840" type="qcurve" smooth="yes"/>
      <point x="319" y="779"/>
      <point x="311" y="737" type="qcurve" smooth="yes"/>
      <point x="307" y="717" type="line"/>
      <point x="180" y="717" type="line"/>
      <point x="180" y="772"/>
      <point x="233" y="849" type="qcurve" smooth="yes"/>
      <point x="264" y="896"/>
      <point x="311" y="933" type="qcurve" smooth="yes"/>
      <point x="361" y="973"/>
      <point x="530" y="1024"/>
      <point x="631" y="1024" type="qcurve" smooth="yes"/>
      <point x="715" y="1024"/>
      <point x="865" y="973"/>
      <point x="912" y="934" type="qcurve" smooth="yes"/>
      <point x="1006" y="856"/>
      <point x="1034" y="795" type="qcurve" smooth="yes"/>
      <point x="1047" y="768" type="line"/>
      <point x="1051" y="768" type="line"/>
      <point x="1057" y="782"/>
      <point x="1064" y="796" type="qcurve" smooth="yes"/>
      <point x="1075" y="815"/>
      <point x="1109" y="857" type="qcurve" smooth="yes"/>
      <point x="1144" y="899"/>
      <point x="1189" y="935" type="qcurve" smooth="yes"/>
      <point x="1229" y="967"/>
      <point x="1310" y="997" type="qcurve" smooth="yes"/>
      <point x="1386" y="1024"/>
      <point x="1475" y="1024" type="qcurve" smooth="yes"/>
      <point x="1702" y="1024"/>
      <point x="1831" y="884" type="qcurve" smooth="yes"/>
      <point x="1960" y="743"/>
    </contour>
    <contour>
      <point x="586" y="98" type="qcurve" smooth="yes"/>
      <point x="786" y="98"/>
      <point x="884" y="195" type="qcurve" smooth="yes"/>
      <point x="983" y="291"/>
      <point x="983" y="442" type="qcurve"/>
      <point x="563" y="442" type="line" smooth="yes"/>
      <point x="254" y="442"/>
      <point x="254" y="98"/>
    </contour>
    <contour>
      <point x="1470" y="907" type="qcurve" smooth="yes"/>
      <point x="1320" y="907"/>
      <point x="1114" y="719"/>
      <point x="1114" y="561" type="qcurve"/>
      <point x="1829" y="561" type="line"/>
      <point x="1829" y="713"/>
      <point x="1641" y="907"/>
    </contour>
  </outline>
</glyph>
<glyph name="ccedilla" format="2">
  <advance width="1312"/>
  <unicode hex="00E7"/>
  <outline>
    <contour>
      <point x="485" y="-233" type="qcurve"/>
      <point x="578" y="-233" type="line"/>
      <point x="578" y="-305"/>
      <point x="672" y="-305" type="qcurve" smooth="yes"/>
      <point x="770" y="-305"/>
      <point x="770" y="-240" type="qcurve" smooth="yes"/>
      <point x="770" y="-172"/>
      <point x="672" y="-172" type="qcurve" smooth="yes"/>
      <point x="571" y="-172" type="line"/>
      <point x="571" y="-86" type="line"/>
      <point x="631" y="-18" type="line"/>
      <point x="412" y="-7"/>
      <point x="273" y="137" type="qcurve" smooth="yes"/>
      <point x="133" y="282"/>
      <point x="133" y="502" type="qcurve" smooth="yes"/>
      <point x="133" y="734"/>
      <point x="283" y="879" type="qcurve" smooth="yes"/>
      <point x="431" y="1024"/>
      <point x="666" y="1024" type="qcurve" smooth="yes"/>
      <point x="768" y="1024"/>
      <point x="952" y="963"/>
      <point x="1013" y="913" type="qcurve" smooth="yes"/>
      <point x="1071" y="864"/>
      <point x="1113" y="807" type="qcurve" smooth="yes"/>
      <point x="1190" y="702"/>
      <point x="1190" y="614" type="qcurve"/>
      <point x="1057" y="614" type="line"/>
      <point x="1057" y="636"/>
      <point x="1014" y="722"/>
      <point x="974" y="772" type="qcurve" smooth="yes"/>
      <point x="930" y="826"/>
      <point x="850" y="863" type="qcurve" smooth="yes"/>
      <point x="766" y="901"/>
      <point x="666" y="901" type="qcurve" smooth="yes"/>
      <point x="486" y="901"/>
      <point x="375" y="787" type="qcurve" smooth="yes"/>
      <point x="264" y="672"/>
      <point x="264" y="332"/>
      <point x="375" y="217" type="qcurve" smooth="yes"/>
      <point x="484" y="102"/>
      <point x="666" y="102" type="qcurve" smooth="yes"/>
      <point x="766" y="102"/>
      <point x="850" y="140" type="qcurve" smooth="yes"/>
      <point x="931" y="177"/>
      <point x="974" y="232" type="qcurve" smooth="yes"/>
      <point x="1057" y="337"/>
      <point x="1057" y="389" type="qcurve"/>
      <point x="1190" y="389" type="line"/>
      <point x="1190" y="293"/>
      <point x="1084" y="159" type="qcurve" smooth="yes"/>
      <point x="1029" y="92"/>
      <point x="938" y="44" type="qcurve" smooth="yes"/>
      <point x="843" y="-6"/>
      <point x="729" y="-16" type="qcurve"/>
      <point x="668" y="-88" type="line"/>
      <point x="765" y="-88"/>
      <point x="863" y="-164"/>
      <point x="862" y="-240" type="qcurve" smooth="yes"/>
      <point x="862" y="-310"/>
      <point x="763" y="-389"/>
      <point x="672" y="-389" type="qcurve" smooth="yes"/>
      <point x="485" y="-389"/>
    </contour>
  </outline>
</glyph>
<glyph name="igrave" format="2">
  <advance width="475"/>
  <unicode hex="00EC"/>
  <outline>
    <contour>
      <point x="-180" y="1536" type="line"/>
      <point x="-12" y="1536" type="line"/>
      <point x="295" y="1208" type="line"/>
      <point x="168" y="1208" type="line"/>
    </contour>
    <contour>
      <point x="174" y="1004" type="line"/>
      <point x="301" y="1004" type="line"/>
      <point x="301" y="0" type="line"/>
      <point x="174" y="0" type="line"/>
    </contour>
  </outline>
</glyph>
<glyph name="iacute" format="2">
  <advance width="475"/>
  <unicode hex="00ED"/>
  <outline>
    <contour>
      <point x="303" y="1208" type="line"/>
      <point x="176" y="1208" type="line"/>
      <point x="483" y="1536" type="line"/>
      <point x="651" y="1536" type="line"/>
    </contour>
    <contour>
      <point x="174" y="1004" type="line"/>
      <point x="301" y="1004" type="line"/>
      <point x="301" y="0" type="line"/>
      <point x="174" y="0" type="line"/>
    </contour>
  </outline>
</glyph>
<glyph name="icircumflex" format="2">
  <advance width="475"/>
  <unicode hex="00EE"/>
  <outline>
    <contour>
      <point x="174" y="1004" type="line"/>
      <point x="301" y="1004" type="line"/>
      <point x="301" y="0" type="line"/>
      <point x="174" y="0" type="line"/>
    </contour>
    <contour>
      <point x="590" y="1208" type="line"/>
      <point x="455" y="1208" type="line"/>
      <point x="238" y="1468" type="line"/>
      <point x="20" y="1208" type="line"/>
      <point x="-115" y="1208" type="line"/>
      <point x="162" y="1536" type="line"/>
      <point x="313" y="1536" type="line"/>
    </contour>
  </outline>
</glyph>
<glyph name="idieresis" format="2">
  <advance width="475"/>
  <unicode hex="00EF"/>
  <outline>
    <contour>
      <point x="-11" y="1251" type="qcurve" smooth="yes"/>
      <point x="-34" y="1272"/>
      <point x="-34" y="1341"/>
      <point x="-11" y="1363" type="qcurve" smooth="yes"/>
      <point x="13" y="1384"/>
      <point x="51" y="1384" type="qcurve" smooth="yes"/>
      <point x="90" y="1384"/>
      <point x="113" y="1363" type="qcurve" smooth="yes"/>
      <point x="136" y="1341"/>
      <point x="136" y="1272"/>
      <point x="113" y="1251" type="qcurve" smooth="yes"/>
      <point x="91" y="1229"/>
      <point x="51" y="1229" type="qcurve" smooth="yes"/>
      <point x="12" y="1229"/>
    </contour>
    <contour>
      <point x="363" y="1251" type="qcurve" smooth="yes"/>
      <point x="340" y="1272"/>
      <point x="340" y="1341"/>
      <point x="363" y="1363" type="qcurve" smooth="yes"/>
      <point x="385" y="1384"/>
      <point x="424" y="1384" type="qcurve" smooth="yes"/>
      <point x="464" y="1384"/>
      <point x="486" y="1363" type="qcurve" smooth="yes"/>
      <point x="508" y="1341"/>
      <point x="508" y="1272"/>
      <point x="486" y="1251" type="qcurve" smooth="yes"/>
      <point x="464" y="1229"/>
      <point x="424" y="1229" type="qcurve" smooth="yes"/>
      <point x="385" y="1229"/>
    </contour>
    <contour>
      <point x="174" y="1004" type="line"/>
      <point x="301" y="1004" type="line"/>
      <point x="301" y="0" type="line"/>
      <point x="174" y="0" type="line"/>
    </contour>
  </outline>
</glyph>
<glyph name="eth" format="2">
  <advance width="1337"/>
  <unicode hex="00F0"/>
  <outline>
    <contour>
      <point x="578" y="1137" type="line"/>
      <point x="481" y="1171" type="line"/>
      <point x="532" y="1329" type="line"/>
      <point x="346" y="1374" type="line"/>
      <point x="377" y="1475" type="line"/>
      <point x="459" y="1463"/>
      <point x="567" y="1430" type="qcurve"/>
      <point x="618" y="1579" type="line"/>
      <point x="719" y="1546" type="line"/>
      <point x="668" y="1397" type="line"/>
      <point x="678" y="1396"/>
      <point x="698" y="1388" type="qcurve" smooth="yes"/>
      <point x="715" y="1382"/>
      <point x="771" y="1355" type="qcurve" smooth="yes"/>
      <point x="888" y="1300"/>
      <point x="987" y="1202" type="qcurve" smooth="yes"/>
      <point x="1051" y="1137"/>
      <point x="1136" y="993"/>
      <point x="1165" y="891" type="qcurve" smooth="yes"/>
      <point x="1194" y="783"/>
      <point x="1194" y="664" type="qcurve" smooth="yes"/>
      <point x="1194" y="594" type="line" smooth="yes"/>
      <point x="1194" y="325"/>
      <point x="1045" y="152" type="qcurve" smooth="yes"/>
      <point x="895" y="-20"/>
      <point x="653" y="-20" type="qcurve" smooth="yes"/>
      <point x="417" y="-20"/>
      <point x="133" y="246"/>
      <point x="133" y="668"/>
      <point x="271" y="801" type="qcurve" smooth="yes"/>
      <point x="407" y="934"/>
      <point x="635" y="934" type="qcurve" smooth="yes"/>
      <point x="727" y="934"/>
      <point x="889" y="885"/>
      <point x="937" y="846" type="qcurve" smooth="yes"/>
      <point x="1034" y="768"/>
      <point x="1061" y="709" type="qcurve" smooth="yes"/>
      <point x="1071" y="684" type="line"/>
      <point x="1079" y="684" type="line"/>
      <point x="1079" y="824"/>
      <point x="987" y="1050"/>
      <point x="922" y="1115" type="qcurve" smooth="yes"/>
      <point x="857" y="1177"/>
      <point x="724" y="1265"/>
      <point x="676" y="1280" type="qcurve" smooth="yes"/>
      <point x="631" y="1294" type="line"/>
    </contour>
    <contour>
      <point x="372" y="712" type="qcurve" smooth="yes"/>
      <point x="264" y="612"/>
      <point x="264" y="457" type="qcurve" smooth="yes"/>
      <point x="264" y="301"/>
      <point x="372" y="202" type="qcurve" smooth="yes"/>
      <point x="478" y="102"/>
      <point x="655" y="102" type="qcurve" smooth="yes"/>
      <point x="815" y="102"/>
      <point x="926" y="204" type="qcurve" smooth="yes"/>
      <point x="1036" y="305"/>
      <point x="1036" y="457" type="qcurve" smooth="yes"/>
      <point x="1036" y="607"/>
      <point x="925" y="709" type="qcurve" smooth="yes"/>
      <point x="812" y="811"/>
      <point x="655" y="811" type="qcurve" smooth="yes"/>
      <point x="478" y="811"/>
    </contour>
  </outline>
</glyph>
<glyph name="ntilde" format="2">
  <advance width="1300"/>
  <unicode hex="00F1"/>
  <outline>
    <contour>
      <point x="1137" y="0" type="line"/>
      <point x="1010" y="0" type="line"/>
      <point x="1010" y="537" type="line" smooth="yes"/>
      <point x="1010" y="728"/>
      <point x="913" y="816" type="qcurve" smooth="yes"/>
      <point x="815" y="905"/>
      <point x="655" y="905" type="qcurve" smooth="yes"/>
      <point x="483" y="905"/>
      <point x="301" y="699"/>
      <point x="301" y="532" type="qcurve" smooth="yes"/>
      <point x="301" y="0" type="line"/>
      <point x="174" y="0" type="line"/>
      <point x="174" y="1004" type="line"/>
      <point x="301" y="1004" type="line"/>
      <point x="301" y="846" type="line"/>
      <point x="309" y="846" type="line"/>
      <point x="319" y="868"/>
      <point x="360" y="908" type="qcurve" smooth="yes"/>
      <point x="392" y="939"/>
      <point x="430" y="962" type="qcurve" smooth="yes"/>
      <point x="473" y="988"/>
      <point x="613" y="1024"/>
      <point x="688" y="1024" type="qcurve" smooth="yes"/>
      <point x="883" y="1024"/>
      <point x="1137" y="794"/>
      <point x="1137" y="561" type="qcurve" smooth="yes"/>
    </contour>
    <contour>
      <point x="477" y="1208" type="qcurve" smooth="yes"/>
      <point x="397" y="1208"/>
      <point x="309" y="1288"/>
      <point x="309" y="1358" type="qcurve"/>
      <point x="317" y="1427" type="line"/>
      <point x="422" y="1427" type="line"/>
      <point x="416" y="1404"/>
      <point x="416" y="1376" type="qcurve" smooth="yes"/>
      <point x="416" y="1306"/>
      <point x="492" y="1307" type="qcurve" smooth="yes"/>
      <point x="549" y="1307"/>
      <point x="636" y="1376" type="qcurve" smooth="yes"/>
      <point x="672" y="1404"/>
      <point x="774" y="1444"/>
      <point x="825" y="1444" type="qcurve" smooth="yes"/>
      <point x="905" y="1444"/>
      <point x="993" y="1365"/>
      <point x="993" y="1296" type="qcurve"/>
      <point x="985" y="1225" type="line"/>
      <point x="881" y="1225" type="line"/>
      <point x="887" y="1248"/>
      <point x="887" y="1278" type="qcurve" smooth="yes"/>
      <point x="887" y="1346"/>
      <point x="809" y="1346" type="qcurve" smooth="yes"/>
      <point x="783" y="1348"/>
      <point x="703" y="1305"/>
      <point x="629" y="1250"/>
      <point x="525" y="1206"/>
    </contour>
  </outline>
</glyph>
<glyph name="ocircumflex" format="2">
  <advance width="1339"/>
  <unicode hex="00F4"/>
  <outline>
    <contour>
      <point x="285" y="125" type="qcurve" smooth="yes"/>
      <point x="133" y="271"/>
      <point x="133" y="733"/>
      <point x="285" y="879" type="qcurve" smooth="yes"/>
      <point x="436" y="1024"/>
      <point x="904" y="1024"/>
      <point x="1206" y="734"/>
      <point x="1206" y="270"/>
      <point x="904" y="-20"/>
      <point x="436" y="-20"/>
    </contour>
    <contour>
      <point x="1075" y="332"/>
      <point x="1075" y="672"/>
      <point x="963" y="787" type="qcurve" smooth="yes"/>
      <point x="851" y="901"/>
      <point x="670" y="901" type="qcurve" smooth="yes"/>
      <point x="490" y="901"/>
      <point x="377" y="787" type="qcurve" smooth="yes"/>
      <point x="264" y="671"/>
      <point x="264" y="333"/>
      <point x="377" y="217" type="qcurve" smooth="yes"/>
      <point x="489" y="102"/>
      <point x="851" y="102"/>
    </contour>
    <contour>
      <point x="1022" y="1208" type="line"/>
      <point x="887" y="1208" type="line"/>
      <point x="670" y="1468" type="line"/>
      <point x="453" y="1208" type="line"/>
      <point x="317" y="1208" type="line"/>
      <point x="594" y="1536" type="line"/>
      <point x="745" y="1536" type="line"/>
    </contour>
  </outline>
</glyph>
<glyph name="otilde" format="2">
  <advance width="1339"/>
  <unicode hex="00F5"/>
  <outline>
    <contour>
      <point x="285" y="125" type="qcurve" smooth="yes"/>
      <point x="133" y="271"/>
      <point x="133" y="733"/>
      <point x="285" y="879" type="qcurve" smooth="yes"/>
      <point x="436" y="1024"/>
      <point x="904" y="1024"/>
      <point x="1206" y="734"/>
      <point x="1206" y="270"/>
      <point x="904" y="-20"/>
      <point x="436" y="-20"/>
    </contour>
    <contour>
      <point x="1075" y="332"/>
      <point x="1075" y="672"/>
      <point x="963" y="787" type="qcurve" smooth="yes"/>
      <point x="851" y="901"/>
      <point x="670" y="901" type="qcurve" smooth="yes"/>
      <point x="490" y="901"/>
      <point x="377" y="787" type="qcurve" smooth="yes"/>
      <point x="264" y="671"/>
      <point x="264" y="333"/>
      <point x="377" y="217" type="qcurve" smooth="yes"/>
      <point x="489" y="102"/>
      <point x="851" y="102"/>
    </contour>
    <contour>
      <point x="500" y="1208" type="qcurve" smooth="yes"/>
      <point x="420" y="1208"/>
      <point x="332" y="1288"/>
      <point x="332" y="1358" type="qcurve"/>
      <point x="340" y="1427" type="line"/>
      <point x="444" y="1427" type="line"/>
      <point x="438" y="1404"/>
      <point x="438" y="1376" type="qcurve" smooth="yes"/>
      <point x="438" y="1306"/>
      <point x="514" y="1307" type="qcurve" smooth="yes"/>
      <point x="561" y="1307"/>
      <point x="660" y="1376" type="qcurve" smooth="yes"/>
      <point x="758" y="1444"/>
      <point x="848" y="1444" type="qcurve" smooth="yes"/>
      <point x="928" y="1444"/>
      <point x="1016" y="1365"/>
      <point x="1016" y="1296" type="qcurve"/>
      <point x="1008" y="1225" type="line"/>
      <point x="903" y="1225" type="line"/>
      <point x="909" y="1248"/>
      <point x="909" y="1278" type="qcurve" smooth="yes"/>
      <point x="909" y="1346"/>
      <point x="831" y="1346" type="qcurve" smooth="yes"/>
      <point x="804" y="1348"/>
      <point x="724" y="1305"/>
      <point x="651" y="1250"/>
      <point x="547" y="1206"/>
    </contour>
  </outline>
</glyph>
